%TF.GenerationSoftware,KiCad,Pcbnew,8.0.2*%
%TF.CreationDate,2024-05-29T11:07:07+02:00*%
%TF.ProjectId,JK-BMS_CAN,4a4b2d42-4d53-45f4-9341-4e2e6b696361,rev?*%
%TF.SameCoordinates,Original*%
%TF.FileFunction,Drillmap*%
%TF.FilePolarity,Positive*%
%FSLAX45Y45*%
G04 Gerber Fmt 4.5, Leading zero omitted, Abs format (unit mm)*
G04 Created by KiCad (PCBNEW 8.0.2) date 2024-05-29 11:07:07*
%MOMM*%
%LPD*%
G01*
G04 APERTURE LIST*
%ADD10C,0.100000*%
%ADD11C,0.200000*%
%ADD12C,0.320000*%
G04 APERTURE END LIST*
D10*
X8350000Y-7275000D02*
X13375000Y-7275000D01*
X13375000Y-12675000D01*
X8350000Y-12675000D01*
X8350000Y-7275000D01*
D11*
D12*
X8559750Y-11990000D02*
X8879750Y-12310000D01*
X8879750Y-11990000D02*
X8559750Y-12310000D01*
X9702750Y-11990000D02*
X10022750Y-12310000D01*
X10022750Y-11990000D02*
X9702750Y-12310000D01*
D11*
X8605777Y-12991484D02*
X8605777Y-12791484D01*
X8605777Y-12791484D02*
X8653396Y-12791484D01*
X8653396Y-12791484D02*
X8681967Y-12801008D01*
X8681967Y-12801008D02*
X8701015Y-12820055D01*
X8701015Y-12820055D02*
X8710539Y-12839103D01*
X8710539Y-12839103D02*
X8720063Y-12877198D01*
X8720063Y-12877198D02*
X8720063Y-12905769D01*
X8720063Y-12905769D02*
X8710539Y-12943865D01*
X8710539Y-12943865D02*
X8701015Y-12962912D01*
X8701015Y-12962912D02*
X8681967Y-12981960D01*
X8681967Y-12981960D02*
X8653396Y-12991484D01*
X8653396Y-12991484D02*
X8605777Y-12991484D01*
X8805777Y-12991484D02*
X8805777Y-12858150D01*
X8805777Y-12896246D02*
X8815301Y-12877198D01*
X8815301Y-12877198D02*
X8824824Y-12867674D01*
X8824824Y-12867674D02*
X8843872Y-12858150D01*
X8843872Y-12858150D02*
X8862920Y-12858150D01*
X8929586Y-12991484D02*
X8929586Y-12858150D01*
X8929586Y-12791484D02*
X8920063Y-12801008D01*
X8920063Y-12801008D02*
X8929586Y-12810531D01*
X8929586Y-12810531D02*
X8939110Y-12801008D01*
X8939110Y-12801008D02*
X8929586Y-12791484D01*
X8929586Y-12791484D02*
X8929586Y-12810531D01*
X9053396Y-12991484D02*
X9034348Y-12981960D01*
X9034348Y-12981960D02*
X9024824Y-12962912D01*
X9024824Y-12962912D02*
X9024824Y-12791484D01*
X9158158Y-12991484D02*
X9139110Y-12981960D01*
X9139110Y-12981960D02*
X9129586Y-12962912D01*
X9129586Y-12962912D02*
X9129586Y-12791484D01*
X9386729Y-12991484D02*
X9386729Y-12791484D01*
X9386729Y-12791484D02*
X9453396Y-12934341D01*
X9453396Y-12934341D02*
X9520063Y-12791484D01*
X9520063Y-12791484D02*
X9520063Y-12991484D01*
X9701015Y-12991484D02*
X9701015Y-12886722D01*
X9701015Y-12886722D02*
X9691491Y-12867674D01*
X9691491Y-12867674D02*
X9672444Y-12858150D01*
X9672444Y-12858150D02*
X9634348Y-12858150D01*
X9634348Y-12858150D02*
X9615301Y-12867674D01*
X9701015Y-12981960D02*
X9681967Y-12991484D01*
X9681967Y-12991484D02*
X9634348Y-12991484D01*
X9634348Y-12991484D02*
X9615301Y-12981960D01*
X9615301Y-12981960D02*
X9605777Y-12962912D01*
X9605777Y-12962912D02*
X9605777Y-12943865D01*
X9605777Y-12943865D02*
X9615301Y-12924817D01*
X9615301Y-12924817D02*
X9634348Y-12915293D01*
X9634348Y-12915293D02*
X9681967Y-12915293D01*
X9681967Y-12915293D02*
X9701015Y-12905769D01*
X9796253Y-12858150D02*
X9796253Y-13058150D01*
X9796253Y-12867674D02*
X9815301Y-12858150D01*
X9815301Y-12858150D02*
X9853396Y-12858150D01*
X9853396Y-12858150D02*
X9872444Y-12867674D01*
X9872444Y-12867674D02*
X9881967Y-12877198D01*
X9881967Y-12877198D02*
X9891491Y-12896246D01*
X9891491Y-12896246D02*
X9891491Y-12953388D01*
X9891491Y-12953388D02*
X9881967Y-12972436D01*
X9881967Y-12972436D02*
X9872444Y-12981960D01*
X9872444Y-12981960D02*
X9853396Y-12991484D01*
X9853396Y-12991484D02*
X9815301Y-12991484D01*
X9815301Y-12991484D02*
X9796253Y-12981960D01*
X9977205Y-12972436D02*
X9986729Y-12981960D01*
X9986729Y-12981960D02*
X9977205Y-12991484D01*
X9977205Y-12991484D02*
X9967682Y-12981960D01*
X9967682Y-12981960D02*
X9977205Y-12972436D01*
X9977205Y-12972436D02*
X9977205Y-12991484D01*
X9977205Y-12867674D02*
X9986729Y-12877198D01*
X9986729Y-12877198D02*
X9977205Y-12886722D01*
X9977205Y-12886722D02*
X9967682Y-12877198D01*
X9967682Y-12877198D02*
X9977205Y-12867674D01*
X9977205Y-12867674D02*
X9977205Y-12886722D01*
X8145000Y-13220000D02*
X8345000Y-13420000D01*
X8345000Y-13220000D02*
X8145000Y-13420000D01*
X8586729Y-13211484D02*
X8710539Y-13211484D01*
X8710539Y-13211484D02*
X8643872Y-13287674D01*
X8643872Y-13287674D02*
X8672444Y-13287674D01*
X8672444Y-13287674D02*
X8691491Y-13297198D01*
X8691491Y-13297198D02*
X8701015Y-13306722D01*
X8701015Y-13306722D02*
X8710539Y-13325769D01*
X8710539Y-13325769D02*
X8710539Y-13373388D01*
X8710539Y-13373388D02*
X8701015Y-13392436D01*
X8701015Y-13392436D02*
X8691491Y-13401960D01*
X8691491Y-13401960D02*
X8672444Y-13411484D01*
X8672444Y-13411484D02*
X8615301Y-13411484D01*
X8615301Y-13411484D02*
X8596253Y-13401960D01*
X8596253Y-13401960D02*
X8586729Y-13392436D01*
X8796253Y-13392436D02*
X8805777Y-13401960D01*
X8805777Y-13401960D02*
X8796253Y-13411484D01*
X8796253Y-13411484D02*
X8786729Y-13401960D01*
X8786729Y-13401960D02*
X8796253Y-13392436D01*
X8796253Y-13392436D02*
X8796253Y-13411484D01*
X8881967Y-13230531D02*
X8891491Y-13221008D01*
X8891491Y-13221008D02*
X8910539Y-13211484D01*
X8910539Y-13211484D02*
X8958158Y-13211484D01*
X8958158Y-13211484D02*
X8977205Y-13221008D01*
X8977205Y-13221008D02*
X8986729Y-13230531D01*
X8986729Y-13230531D02*
X8996253Y-13249579D01*
X8996253Y-13249579D02*
X8996253Y-13268627D01*
X8996253Y-13268627D02*
X8986729Y-13297198D01*
X8986729Y-13297198D02*
X8872444Y-13411484D01*
X8872444Y-13411484D02*
X8996253Y-13411484D01*
X9120063Y-13211484D02*
X9139110Y-13211484D01*
X9139110Y-13211484D02*
X9158158Y-13221008D01*
X9158158Y-13221008D02*
X9167682Y-13230531D01*
X9167682Y-13230531D02*
X9177205Y-13249579D01*
X9177205Y-13249579D02*
X9186729Y-13287674D01*
X9186729Y-13287674D02*
X9186729Y-13335293D01*
X9186729Y-13335293D02*
X9177205Y-13373388D01*
X9177205Y-13373388D02*
X9167682Y-13392436D01*
X9167682Y-13392436D02*
X9158158Y-13401960D01*
X9158158Y-13401960D02*
X9139110Y-13411484D01*
X9139110Y-13411484D02*
X9120063Y-13411484D01*
X9120063Y-13411484D02*
X9101015Y-13401960D01*
X9101015Y-13401960D02*
X9091491Y-13392436D01*
X9091491Y-13392436D02*
X9081967Y-13373388D01*
X9081967Y-13373388D02*
X9072444Y-13335293D01*
X9072444Y-13335293D02*
X9072444Y-13287674D01*
X9072444Y-13287674D02*
X9081967Y-13249579D01*
X9081967Y-13249579D02*
X9091491Y-13230531D01*
X9091491Y-13230531D02*
X9101015Y-13221008D01*
X9101015Y-13221008D02*
X9120063Y-13211484D01*
X9310539Y-13211484D02*
X9329586Y-13211484D01*
X9329586Y-13211484D02*
X9348634Y-13221008D01*
X9348634Y-13221008D02*
X9358158Y-13230531D01*
X9358158Y-13230531D02*
X9367682Y-13249579D01*
X9367682Y-13249579D02*
X9377205Y-13287674D01*
X9377205Y-13287674D02*
X9377205Y-13335293D01*
X9377205Y-13335293D02*
X9367682Y-13373388D01*
X9367682Y-13373388D02*
X9358158Y-13392436D01*
X9358158Y-13392436D02*
X9348634Y-13401960D01*
X9348634Y-13401960D02*
X9329586Y-13411484D01*
X9329586Y-13411484D02*
X9310539Y-13411484D01*
X9310539Y-13411484D02*
X9291491Y-13401960D01*
X9291491Y-13401960D02*
X9281967Y-13392436D01*
X9281967Y-13392436D02*
X9272444Y-13373388D01*
X9272444Y-13373388D02*
X9262920Y-13335293D01*
X9262920Y-13335293D02*
X9262920Y-13287674D01*
X9262920Y-13287674D02*
X9272444Y-13249579D01*
X9272444Y-13249579D02*
X9281967Y-13230531D01*
X9281967Y-13230531D02*
X9291491Y-13221008D01*
X9291491Y-13221008D02*
X9310539Y-13211484D01*
X9462920Y-13411484D02*
X9462920Y-13278150D01*
X9462920Y-13297198D02*
X9472444Y-13287674D01*
X9472444Y-13287674D02*
X9491491Y-13278150D01*
X9491491Y-13278150D02*
X9520063Y-13278150D01*
X9520063Y-13278150D02*
X9539110Y-13287674D01*
X9539110Y-13287674D02*
X9548634Y-13306722D01*
X9548634Y-13306722D02*
X9548634Y-13411484D01*
X9548634Y-13306722D02*
X9558158Y-13287674D01*
X9558158Y-13287674D02*
X9577205Y-13278150D01*
X9577205Y-13278150D02*
X9605777Y-13278150D01*
X9605777Y-13278150D02*
X9624825Y-13287674D01*
X9624825Y-13287674D02*
X9634348Y-13306722D01*
X9634348Y-13306722D02*
X9634348Y-13411484D01*
X9729586Y-13411484D02*
X9729586Y-13278150D01*
X9729586Y-13297198D02*
X9739110Y-13287674D01*
X9739110Y-13287674D02*
X9758158Y-13278150D01*
X9758158Y-13278150D02*
X9786729Y-13278150D01*
X9786729Y-13278150D02*
X9805777Y-13287674D01*
X9805777Y-13287674D02*
X9815301Y-13306722D01*
X9815301Y-13306722D02*
X9815301Y-13411484D01*
X9815301Y-13306722D02*
X9824825Y-13287674D01*
X9824825Y-13287674D02*
X9843872Y-13278150D01*
X9843872Y-13278150D02*
X9872444Y-13278150D01*
X9872444Y-13278150D02*
X9891491Y-13287674D01*
X9891491Y-13287674D02*
X9901015Y-13306722D01*
X9901015Y-13306722D02*
X9901015Y-13411484D01*
X10291491Y-13201960D02*
X10120063Y-13459103D01*
X10548634Y-13211484D02*
X10567682Y-13211484D01*
X10567682Y-13211484D02*
X10586729Y-13221008D01*
X10586729Y-13221008D02*
X10596253Y-13230531D01*
X10596253Y-13230531D02*
X10605777Y-13249579D01*
X10605777Y-13249579D02*
X10615301Y-13287674D01*
X10615301Y-13287674D02*
X10615301Y-13335293D01*
X10615301Y-13335293D02*
X10605777Y-13373388D01*
X10605777Y-13373388D02*
X10596253Y-13392436D01*
X10596253Y-13392436D02*
X10586729Y-13401960D01*
X10586729Y-13401960D02*
X10567682Y-13411484D01*
X10567682Y-13411484D02*
X10548634Y-13411484D01*
X10548634Y-13411484D02*
X10529587Y-13401960D01*
X10529587Y-13401960D02*
X10520063Y-13392436D01*
X10520063Y-13392436D02*
X10510539Y-13373388D01*
X10510539Y-13373388D02*
X10501015Y-13335293D01*
X10501015Y-13335293D02*
X10501015Y-13287674D01*
X10501015Y-13287674D02*
X10510539Y-13249579D01*
X10510539Y-13249579D02*
X10520063Y-13230531D01*
X10520063Y-13230531D02*
X10529587Y-13221008D01*
X10529587Y-13221008D02*
X10548634Y-13211484D01*
X10701015Y-13392436D02*
X10710539Y-13401960D01*
X10710539Y-13401960D02*
X10701015Y-13411484D01*
X10701015Y-13411484D02*
X10691491Y-13401960D01*
X10691491Y-13401960D02*
X10701015Y-13392436D01*
X10701015Y-13392436D02*
X10701015Y-13411484D01*
X10901015Y-13411484D02*
X10786729Y-13411484D01*
X10843872Y-13411484D02*
X10843872Y-13211484D01*
X10843872Y-13211484D02*
X10824825Y-13240055D01*
X10824825Y-13240055D02*
X10805777Y-13259103D01*
X10805777Y-13259103D02*
X10786729Y-13268627D01*
X10977206Y-13230531D02*
X10986729Y-13221008D01*
X10986729Y-13221008D02*
X11005777Y-13211484D01*
X11005777Y-13211484D02*
X11053396Y-13211484D01*
X11053396Y-13211484D02*
X11072444Y-13221008D01*
X11072444Y-13221008D02*
X11081968Y-13230531D01*
X11081968Y-13230531D02*
X11091491Y-13249579D01*
X11091491Y-13249579D02*
X11091491Y-13268627D01*
X11091491Y-13268627D02*
X11081968Y-13297198D01*
X11081968Y-13297198D02*
X10967682Y-13411484D01*
X10967682Y-13411484D02*
X11091491Y-13411484D01*
X11262920Y-13211484D02*
X11224825Y-13211484D01*
X11224825Y-13211484D02*
X11205777Y-13221008D01*
X11205777Y-13221008D02*
X11196253Y-13230531D01*
X11196253Y-13230531D02*
X11177206Y-13259103D01*
X11177206Y-13259103D02*
X11167682Y-13297198D01*
X11167682Y-13297198D02*
X11167682Y-13373388D01*
X11167682Y-13373388D02*
X11177206Y-13392436D01*
X11177206Y-13392436D02*
X11186729Y-13401960D01*
X11186729Y-13401960D02*
X11205777Y-13411484D01*
X11205777Y-13411484D02*
X11243872Y-13411484D01*
X11243872Y-13411484D02*
X11262920Y-13401960D01*
X11262920Y-13401960D02*
X11272444Y-13392436D01*
X11272444Y-13392436D02*
X11281967Y-13373388D01*
X11281967Y-13373388D02*
X11281967Y-13325769D01*
X11281967Y-13325769D02*
X11272444Y-13306722D01*
X11272444Y-13306722D02*
X11262920Y-13297198D01*
X11262920Y-13297198D02*
X11243872Y-13287674D01*
X11243872Y-13287674D02*
X11205777Y-13287674D01*
X11205777Y-13287674D02*
X11186729Y-13297198D01*
X11186729Y-13297198D02*
X11177206Y-13306722D01*
X11177206Y-13306722D02*
X11167682Y-13325769D01*
X11405777Y-13211484D02*
X11424825Y-13211484D01*
X11424825Y-13211484D02*
X11443872Y-13221008D01*
X11443872Y-13221008D02*
X11453396Y-13230531D01*
X11453396Y-13230531D02*
X11462920Y-13249579D01*
X11462920Y-13249579D02*
X11472444Y-13287674D01*
X11472444Y-13287674D02*
X11472444Y-13335293D01*
X11472444Y-13335293D02*
X11462920Y-13373388D01*
X11462920Y-13373388D02*
X11453396Y-13392436D01*
X11453396Y-13392436D02*
X11443872Y-13401960D01*
X11443872Y-13401960D02*
X11424825Y-13411484D01*
X11424825Y-13411484D02*
X11405777Y-13411484D01*
X11405777Y-13411484D02*
X11386729Y-13401960D01*
X11386729Y-13401960D02*
X11377206Y-13392436D01*
X11377206Y-13392436D02*
X11367682Y-13373388D01*
X11367682Y-13373388D02*
X11358158Y-13335293D01*
X11358158Y-13335293D02*
X11358158Y-13287674D01*
X11358158Y-13287674D02*
X11367682Y-13249579D01*
X11367682Y-13249579D02*
X11377206Y-13230531D01*
X11377206Y-13230531D02*
X11386729Y-13221008D01*
X11386729Y-13221008D02*
X11405777Y-13211484D01*
X11548634Y-13211484D02*
X11548634Y-13249579D01*
X11624825Y-13211484D02*
X11624825Y-13249579D01*
X11920063Y-13487674D02*
X11910539Y-13478150D01*
X11910539Y-13478150D02*
X11891491Y-13449579D01*
X11891491Y-13449579D02*
X11881968Y-13430531D01*
X11881968Y-13430531D02*
X11872444Y-13401960D01*
X11872444Y-13401960D02*
X11862920Y-13354341D01*
X11862920Y-13354341D02*
X11862920Y-13316246D01*
X11862920Y-13316246D02*
X11872444Y-13268627D01*
X11872444Y-13268627D02*
X11881968Y-13240055D01*
X11881968Y-13240055D02*
X11891491Y-13221008D01*
X11891491Y-13221008D02*
X11910539Y-13192436D01*
X11910539Y-13192436D02*
X11920063Y-13182912D01*
X11986729Y-13230531D02*
X11996253Y-13221008D01*
X11996253Y-13221008D02*
X12015301Y-13211484D01*
X12015301Y-13211484D02*
X12062920Y-13211484D01*
X12062920Y-13211484D02*
X12081968Y-13221008D01*
X12081968Y-13221008D02*
X12091491Y-13230531D01*
X12091491Y-13230531D02*
X12101015Y-13249579D01*
X12101015Y-13249579D02*
X12101015Y-13268627D01*
X12101015Y-13268627D02*
X12091491Y-13297198D01*
X12091491Y-13297198D02*
X11977206Y-13411484D01*
X11977206Y-13411484D02*
X12101015Y-13411484D01*
X12339110Y-13411484D02*
X12339110Y-13211484D01*
X12424825Y-13411484D02*
X12424825Y-13306722D01*
X12424825Y-13306722D02*
X12415301Y-13287674D01*
X12415301Y-13287674D02*
X12396253Y-13278150D01*
X12396253Y-13278150D02*
X12367682Y-13278150D01*
X12367682Y-13278150D02*
X12348634Y-13287674D01*
X12348634Y-13287674D02*
X12339110Y-13297198D01*
X12548634Y-13411484D02*
X12529587Y-13401960D01*
X12529587Y-13401960D02*
X12520063Y-13392436D01*
X12520063Y-13392436D02*
X12510539Y-13373388D01*
X12510539Y-13373388D02*
X12510539Y-13316246D01*
X12510539Y-13316246D02*
X12520063Y-13297198D01*
X12520063Y-13297198D02*
X12529587Y-13287674D01*
X12529587Y-13287674D02*
X12548634Y-13278150D01*
X12548634Y-13278150D02*
X12577206Y-13278150D01*
X12577206Y-13278150D02*
X12596253Y-13287674D01*
X12596253Y-13287674D02*
X12605777Y-13297198D01*
X12605777Y-13297198D02*
X12615301Y-13316246D01*
X12615301Y-13316246D02*
X12615301Y-13373388D01*
X12615301Y-13373388D02*
X12605777Y-13392436D01*
X12605777Y-13392436D02*
X12596253Y-13401960D01*
X12596253Y-13401960D02*
X12577206Y-13411484D01*
X12577206Y-13411484D02*
X12548634Y-13411484D01*
X12729587Y-13411484D02*
X12710539Y-13401960D01*
X12710539Y-13401960D02*
X12701015Y-13382912D01*
X12701015Y-13382912D02*
X12701015Y-13211484D01*
X12881968Y-13401960D02*
X12862920Y-13411484D01*
X12862920Y-13411484D02*
X12824825Y-13411484D01*
X12824825Y-13411484D02*
X12805777Y-13401960D01*
X12805777Y-13401960D02*
X12796253Y-13382912D01*
X12796253Y-13382912D02*
X12796253Y-13306722D01*
X12796253Y-13306722D02*
X12805777Y-13287674D01*
X12805777Y-13287674D02*
X12824825Y-13278150D01*
X12824825Y-13278150D02*
X12862920Y-13278150D01*
X12862920Y-13278150D02*
X12881968Y-13287674D01*
X12881968Y-13287674D02*
X12891491Y-13306722D01*
X12891491Y-13306722D02*
X12891491Y-13325769D01*
X12891491Y-13325769D02*
X12796253Y-13344817D01*
X12967682Y-13401960D02*
X12986730Y-13411484D01*
X12986730Y-13411484D02*
X13024825Y-13411484D01*
X13024825Y-13411484D02*
X13043872Y-13401960D01*
X13043872Y-13401960D02*
X13053396Y-13382912D01*
X13053396Y-13382912D02*
X13053396Y-13373388D01*
X13053396Y-13373388D02*
X13043872Y-13354341D01*
X13043872Y-13354341D02*
X13024825Y-13344817D01*
X13024825Y-13344817D02*
X12996253Y-13344817D01*
X12996253Y-13344817D02*
X12977206Y-13335293D01*
X12977206Y-13335293D02*
X12967682Y-13316246D01*
X12967682Y-13316246D02*
X12967682Y-13306722D01*
X12967682Y-13306722D02*
X12977206Y-13287674D01*
X12977206Y-13287674D02*
X12996253Y-13278150D01*
X12996253Y-13278150D02*
X13024825Y-13278150D01*
X13024825Y-13278150D02*
X13043872Y-13287674D01*
X13120063Y-13487674D02*
X13129587Y-13478150D01*
X13129587Y-13478150D02*
X13148634Y-13449579D01*
X13148634Y-13449579D02*
X13158158Y-13430531D01*
X13158158Y-13430531D02*
X13167682Y-13401960D01*
X13167682Y-13401960D02*
X13177206Y-13354341D01*
X13177206Y-13354341D02*
X13177206Y-13316246D01*
X13177206Y-13316246D02*
X13167682Y-13268627D01*
X13167682Y-13268627D02*
X13158158Y-13240055D01*
X13158158Y-13240055D02*
X13148634Y-13221008D01*
X13148634Y-13221008D02*
X13129587Y-13192436D01*
X13129587Y-13192436D02*
X13120063Y-13182912D01*
X13481968Y-13487674D02*
X13472444Y-13478150D01*
X13472444Y-13478150D02*
X13453396Y-13449579D01*
X13453396Y-13449579D02*
X13443872Y-13430531D01*
X13443872Y-13430531D02*
X13434349Y-13401960D01*
X13434349Y-13401960D02*
X13424825Y-13354341D01*
X13424825Y-13354341D02*
X13424825Y-13316246D01*
X13424825Y-13316246D02*
X13434349Y-13268627D01*
X13434349Y-13268627D02*
X13443872Y-13240055D01*
X13443872Y-13240055D02*
X13453396Y-13221008D01*
X13453396Y-13221008D02*
X13472444Y-13192436D01*
X13472444Y-13192436D02*
X13481968Y-13182912D01*
X13558158Y-13278150D02*
X13558158Y-13411484D01*
X13558158Y-13297198D02*
X13567682Y-13287674D01*
X13567682Y-13287674D02*
X13586730Y-13278150D01*
X13586730Y-13278150D02*
X13615301Y-13278150D01*
X13615301Y-13278150D02*
X13634349Y-13287674D01*
X13634349Y-13287674D02*
X13643872Y-13306722D01*
X13643872Y-13306722D02*
X13643872Y-13411484D01*
X13767682Y-13411484D02*
X13748634Y-13401960D01*
X13748634Y-13401960D02*
X13739111Y-13392436D01*
X13739111Y-13392436D02*
X13729587Y-13373388D01*
X13729587Y-13373388D02*
X13729587Y-13316246D01*
X13729587Y-13316246D02*
X13739111Y-13297198D01*
X13739111Y-13297198D02*
X13748634Y-13287674D01*
X13748634Y-13287674D02*
X13767682Y-13278150D01*
X13767682Y-13278150D02*
X13796253Y-13278150D01*
X13796253Y-13278150D02*
X13815301Y-13287674D01*
X13815301Y-13287674D02*
X13824825Y-13297198D01*
X13824825Y-13297198D02*
X13834349Y-13316246D01*
X13834349Y-13316246D02*
X13834349Y-13373388D01*
X13834349Y-13373388D02*
X13824825Y-13392436D01*
X13824825Y-13392436D02*
X13815301Y-13401960D01*
X13815301Y-13401960D02*
X13796253Y-13411484D01*
X13796253Y-13411484D02*
X13767682Y-13411484D01*
X13891492Y-13278150D02*
X13967682Y-13278150D01*
X13920063Y-13211484D02*
X13920063Y-13382912D01*
X13920063Y-13382912D02*
X13929587Y-13401960D01*
X13929587Y-13401960D02*
X13948634Y-13411484D01*
X13948634Y-13411484D02*
X13967682Y-13411484D01*
X14186730Y-13278150D02*
X14186730Y-13478150D01*
X14186730Y-13287674D02*
X14205777Y-13278150D01*
X14205777Y-13278150D02*
X14243873Y-13278150D01*
X14243873Y-13278150D02*
X14262920Y-13287674D01*
X14262920Y-13287674D02*
X14272444Y-13297198D01*
X14272444Y-13297198D02*
X14281968Y-13316246D01*
X14281968Y-13316246D02*
X14281968Y-13373388D01*
X14281968Y-13373388D02*
X14272444Y-13392436D01*
X14272444Y-13392436D02*
X14262920Y-13401960D01*
X14262920Y-13401960D02*
X14243873Y-13411484D01*
X14243873Y-13411484D02*
X14205777Y-13411484D01*
X14205777Y-13411484D02*
X14186730Y-13401960D01*
X14396253Y-13411484D02*
X14377206Y-13401960D01*
X14377206Y-13401960D02*
X14367682Y-13382912D01*
X14367682Y-13382912D02*
X14367682Y-13211484D01*
X14558158Y-13411484D02*
X14558158Y-13306722D01*
X14558158Y-13306722D02*
X14548634Y-13287674D01*
X14548634Y-13287674D02*
X14529587Y-13278150D01*
X14529587Y-13278150D02*
X14491492Y-13278150D01*
X14491492Y-13278150D02*
X14472444Y-13287674D01*
X14558158Y-13401960D02*
X14539111Y-13411484D01*
X14539111Y-13411484D02*
X14491492Y-13411484D01*
X14491492Y-13411484D02*
X14472444Y-13401960D01*
X14472444Y-13401960D02*
X14462920Y-13382912D01*
X14462920Y-13382912D02*
X14462920Y-13363865D01*
X14462920Y-13363865D02*
X14472444Y-13344817D01*
X14472444Y-13344817D02*
X14491492Y-13335293D01*
X14491492Y-13335293D02*
X14539111Y-13335293D01*
X14539111Y-13335293D02*
X14558158Y-13325769D01*
X14624825Y-13278150D02*
X14701015Y-13278150D01*
X14653396Y-13211484D02*
X14653396Y-13382912D01*
X14653396Y-13382912D02*
X14662920Y-13401960D01*
X14662920Y-13401960D02*
X14681968Y-13411484D01*
X14681968Y-13411484D02*
X14701015Y-13411484D01*
X14843873Y-13401960D02*
X14824825Y-13411484D01*
X14824825Y-13411484D02*
X14786730Y-13411484D01*
X14786730Y-13411484D02*
X14767682Y-13401960D01*
X14767682Y-13401960D02*
X14758158Y-13382912D01*
X14758158Y-13382912D02*
X14758158Y-13306722D01*
X14758158Y-13306722D02*
X14767682Y-13287674D01*
X14767682Y-13287674D02*
X14786730Y-13278150D01*
X14786730Y-13278150D02*
X14824825Y-13278150D01*
X14824825Y-13278150D02*
X14843873Y-13287674D01*
X14843873Y-13287674D02*
X14853396Y-13306722D01*
X14853396Y-13306722D02*
X14853396Y-13325769D01*
X14853396Y-13325769D02*
X14758158Y-13344817D01*
X15024825Y-13411484D02*
X15024825Y-13211484D01*
X15024825Y-13401960D02*
X15005777Y-13411484D01*
X15005777Y-13411484D02*
X14967682Y-13411484D01*
X14967682Y-13411484D02*
X14948634Y-13401960D01*
X14948634Y-13401960D02*
X14939111Y-13392436D01*
X14939111Y-13392436D02*
X14929587Y-13373388D01*
X14929587Y-13373388D02*
X14929587Y-13316246D01*
X14929587Y-13316246D02*
X14939111Y-13297198D01*
X14939111Y-13297198D02*
X14948634Y-13287674D01*
X14948634Y-13287674D02*
X14967682Y-13278150D01*
X14967682Y-13278150D02*
X15005777Y-13278150D01*
X15005777Y-13278150D02*
X15024825Y-13287674D01*
X15101015Y-13487674D02*
X15110539Y-13478150D01*
X15110539Y-13478150D02*
X15129587Y-13449579D01*
X15129587Y-13449579D02*
X15139111Y-13430531D01*
X15139111Y-13430531D02*
X15148634Y-13401960D01*
X15148634Y-13401960D02*
X15158158Y-13354341D01*
X15158158Y-13354341D02*
X15158158Y-13316246D01*
X15158158Y-13316246D02*
X15148634Y-13268627D01*
X15148634Y-13268627D02*
X15139111Y-13240055D01*
X15139111Y-13240055D02*
X15129587Y-13221008D01*
X15129587Y-13221008D02*
X15110539Y-13192436D01*
X15110539Y-13192436D02*
X15101015Y-13182912D01*
M02*
