M48
; DRILL file {KiCad 8.0.2} date 2024-06-12T01:24:34+0200
; FORMAT={-:-/ absolute / metric / decimal}
; #@! TF.CreationDate,2024-06-12T01:24:34+02:00
; #@! TF.GenerationSoftware,Kicad,Pcbnew,8.0.2
; #@! TF.FileFunction,Plated,1,2,PTH
FMAT,2
METRIC
; #@! TA.AperFunction,Plated,PTH,ViaDrill
T1C0.300
; #@! TA.AperFunction,Plated,PTH,ComponentDrill
T2C0.330
; #@! TA.AperFunction,Plated,PTH,ViaDrill
T3C0.400
; #@! TA.AperFunction,Plated,PTH,ViaDrill
T4C0.500
; #@! TA.AperFunction,Plated,PTH,ComponentDrill
T5C0.750
; #@! TA.AperFunction,Plated,PTH,ComponentDrill
T6C0.760
; #@! TA.AperFunction,Plated,PTH,ComponentDrill
T7C1.000
; #@! TA.AperFunction,Plated,PTH,ComponentDrill
T8C2.700
%
G90
G05
T1
X86.5Y-111.0
X87.25Y-108.0
X88.575Y-108.0
X89.9Y-108.0
X91.0Y-90.5
X102.197Y-95.947
X103.0Y-95.5
X103.0Y-98.25
X104.5Y-94.0
X104.75Y-95.875
X105.25Y-93.5
X106.0Y-98.75
X107.75Y-90.75
X108.692Y-90.692
X109.25Y-118.25
X109.5Y-78.0
X112.121Y-88.996
X112.75Y-78.5
X112.875Y-87.308
X113.625Y-85.741
X114.183Y-84.183
X116.25Y-96.0
X121.0Y-95.25
X123.75Y-95.25
T2
X118.893Y-110.145
X118.893Y-111.445
X120.193Y-110.145
X120.193Y-111.445
X121.493Y-110.145
X121.493Y-111.445
T3
X85.0Y-74.5
X85.0Y-98.25
X85.0Y-102.75
X85.0Y-106.5
X85.0Y-113.25
X85.0Y-119.25
X85.0Y-125.0
X89.5Y-78.5
X90.25Y-125.25
X91.25Y-102.25
X92.5Y-95.25
X92.5Y-107.25
X93.5Y-95.25
X93.5Y-98.25
X95.5Y-125.25
X97.75Y-78.5
X98.15Y-85.5
X98.5Y-83.0
X99.172Y-105.828
X99.25Y-92.35
X99.85Y-89.1
X100.75Y-101.5
X102.0Y-113.0
X102.0Y-119.25
X102.0Y-125.25
X103.25Y-94.0
X103.7Y-85.85
X103.75Y-79.25
X103.75Y-83.25
X103.75Y-101.5
X106.0Y-101.5
X107.0Y-78.75
X107.75Y-100.5
X107.75Y-105.25
X108.5Y-83.0
X110.0Y-84.25
X111.75Y-94.5
X114.25Y-92.0
X116.5Y-107.75
X116.5Y-111.0
X116.75Y-79.25
X117.0Y-99.0
X117.673Y-88.673
X118.75Y-99.0
X120.5Y-99.0
X121.0Y-117.75
X122.25Y-99.0
X122.5Y-89.5
X122.5Y-93.75
X123.25Y-85.25
X124.0Y-99.0
X124.75Y-111.25
X125.5Y-121.0
X127.25Y-111.25
X128.5Y-82.5
X129.5Y-111.25
X131.0Y-109.4
X132.25Y-74.5
X132.25Y-81.25
X132.25Y-87.75
X132.25Y-95.0
T4
X110.75Y-96.25
X113.5Y-96.25
T5
X105.75Y-122.75
X107.75Y-122.75
X109.75Y-122.75
X111.75Y-122.75
X121.0Y-79.75
X123.0Y-79.75
X124.25Y-122.75
X125.0Y-79.75
X126.25Y-122.75
X127.0Y-79.75
X128.25Y-122.75
X130.25Y-122.75
T6
X88.468Y-115.15
X89.737Y-112.61
X91.007Y-115.15
X92.277Y-112.61
X93.547Y-115.15
X94.817Y-112.61
X96.087Y-115.15
X97.358Y-112.61
T7
X85.25Y-87.0
X86.725Y-91.225
X86.725Y-93.765
X86.725Y-96.305
X87.2Y-78.75
X87.79Y-87.0
X89.265Y-91.225
X89.265Y-93.765
X89.265Y-96.305
X90.33Y-87.0
X92.87Y-87.0
X94.8Y-78.75
X95.095Y-104.835
X95.095Y-107.375
X95.41Y-87.0
T8
X118.0Y-123.19
M30
