%TF.GenerationSoftware,KiCad,Pcbnew,8.0.2*%
%TF.CreationDate,2024-05-29T11:06:28+02:00*%
%TF.ProjectId,JK-BMS_CAN,4a4b2d42-4d53-45f4-9341-4e2e6b696361,rev?*%
%TF.SameCoordinates,Original*%
%TF.FileFunction,Soldermask,Top*%
%TF.FilePolarity,Negative*%
%FSLAX46Y46*%
G04 Gerber Fmt 4.6, Leading zero omitted, Abs format (unit mm)*
G04 Created by KiCad (PCBNEW 8.0.2) date 2024-05-29 11:06:28*
%MOMM*%
%LPD*%
G01*
G04 APERTURE LIST*
G04 Aperture macros list*
%AMRoundRect*
0 Rectangle with rounded corners*
0 $1 Rounding radius*
0 $2 $3 $4 $5 $6 $7 $8 $9 X,Y pos of 4 corners*
0 Add a 4 corners polygon primitive as box body*
4,1,4,$2,$3,$4,$5,$6,$7,$8,$9,$2,$3,0*
0 Add four circle primitives for the rounded corners*
1,1,$1+$1,$2,$3*
1,1,$1+$1,$4,$5*
1,1,$1+$1,$6,$7*
1,1,$1+$1,$8,$9*
0 Add four rect primitives between the rounded corners*
20,1,$1+$1,$2,$3,$4,$5,0*
20,1,$1+$1,$4,$5,$6,$7,0*
20,1,$1+$1,$6,$7,$8,$9,0*
20,1,$1+$1,$8,$9,$2,$3,0*%
%AMRotRect*
0 Rectangle, with rotation*
0 The origin of the aperture is its center*
0 $1 length*
0 $2 width*
0 $3 Rotation angle, in degrees counterclockwise*
0 Add horizontal line*
21,1,$1,$2,0,0,$3*%
G04 Aperture macros list end*
%ADD10RoundRect,0.237500X0.044194X0.380070X-0.380070X-0.044194X-0.044194X-0.380070X0.380070X0.044194X0*%
%ADD11RoundRect,0.218750X0.218750X0.256250X-0.218750X0.256250X-0.218750X-0.256250X0.218750X-0.256250X0*%
%ADD12RoundRect,0.237500X0.237500X-0.287500X0.237500X0.287500X-0.237500X0.287500X-0.237500X-0.287500X0*%
%ADD13RoundRect,0.237500X0.237500X-0.300000X0.237500X0.300000X-0.237500X0.300000X-0.237500X-0.300000X0*%
%ADD14RoundRect,0.237500X0.250000X0.237500X-0.250000X0.237500X-0.250000X-0.237500X0.250000X-0.237500X0*%
%ADD15RoundRect,0.250000X-0.350000X-0.625000X0.350000X-0.625000X0.350000X0.625000X-0.350000X0.625000X0*%
%ADD16O,1.200000X1.750000*%
%ADD17RoundRect,0.237500X-0.237500X0.300000X-0.237500X-0.300000X0.237500X-0.300000X0.237500X0.300000X0*%
%ADD18RoundRect,0.237500X-0.237500X0.250000X-0.237500X-0.250000X0.237500X-0.250000X0.237500X0.250000X0*%
%ADD19RoundRect,0.250000X1.000000X0.650000X-1.000000X0.650000X-1.000000X-0.650000X1.000000X-0.650000X0*%
%ADD20RoundRect,0.237500X-0.044194X-0.380070X0.380070X0.044194X0.044194X0.380070X-0.380070X-0.044194X0*%
%ADD21RoundRect,0.250000X-0.650000X1.000000X-0.650000X-1.000000X0.650000X-1.000000X0.650000X1.000000X0*%
%ADD22RoundRect,0.237500X0.237500X-0.250000X0.237500X0.250000X-0.237500X0.250000X-0.237500X-0.250000X0*%
%ADD23RoundRect,0.100000X-0.100000X0.637500X-0.100000X-0.637500X0.100000X-0.637500X0.100000X0.637500X0*%
%ADD24R,2.000000X2.000000*%
%ADD25C,2.000000*%
%ADD26RoundRect,0.250000X-0.375000X-1.075000X0.375000X-1.075000X0.375000X1.075000X-0.375000X1.075000X0*%
%ADD27O,1.700000X1.700000*%
%ADD28R,1.700000X1.700000*%
%ADD29RoundRect,0.250000X-0.337500X-0.475000X0.337500X-0.475000X0.337500X0.475000X-0.337500X0.475000X0*%
%ADD30R,1.400000X1.200000*%
%ADD31C,4.500000*%
%ADD32RoundRect,0.150000X0.150000X-0.825000X0.150000X0.825000X-0.150000X0.825000X-0.150000X-0.825000X0*%
%ADD33RoundRect,0.102000X2.667000X1.206500X-2.667000X1.206500X-2.667000X-1.206500X2.667000X-1.206500X0*%
%ADD34RoundRect,0.150000X-0.150000X0.825000X-0.150000X-0.825000X0.150000X-0.825000X0.150000X0.825000X0*%
%ADD35RoundRect,0.237500X-0.250000X-0.237500X0.250000X-0.237500X0.250000X0.237500X-0.250000X0.237500X0*%
%ADD36RoundRect,0.237500X-0.300000X-0.237500X0.300000X-0.237500X0.300000X0.237500X-0.300000X0.237500X0*%
%ADD37RoundRect,0.150000X-0.150000X0.587500X-0.150000X-0.587500X0.150000X-0.587500X0.150000X0.587500X0*%
%ADD38R,1.050000X0.650000*%
%ADD39C,3.200000*%
%ADD40R,1.500000X1.500000*%
%ADD41C,1.500000*%
%ADD42RoundRect,0.250000X0.350000X0.625000X-0.350000X0.625000X-0.350000X-0.625000X0.350000X-0.625000X0*%
%ADD43RoundRect,0.250000X-0.412500X-1.100000X0.412500X-1.100000X0.412500X1.100000X-0.412500X1.100000X0*%
%ADD44R,3.100000X2.400000*%
%ADD45RoundRect,0.070000X-0.250000X1.100000X-0.250000X-1.100000X0.250000X-1.100000X0.250000X1.100000X0*%
%ADD46C,0.770000*%
%ADD47RotRect,1.500000X0.550000X45.000000*%
%ADD48RotRect,1.500000X0.550000X135.000000*%
%ADD49RoundRect,0.250000X0.412500X1.100000X-0.412500X1.100000X-0.412500X-1.100000X0.412500X-1.100000X0*%
%ADD50R,0.650000X1.050000*%
%ADD51RoundRect,0.237500X0.380070X-0.044194X-0.044194X0.380070X-0.380070X0.044194X0.044194X-0.380070X0*%
G04 APERTURE END LIST*
D10*
%TO.C,C18*%
X108359880Y-97140120D03*
X107140120Y-98359880D03*
%TD*%
D11*
%TO.C,D5*%
X119787500Y-84750000D03*
X118212500Y-84750000D03*
%TD*%
D12*
%TO.C,D4*%
X131318000Y-103999000D03*
X131318000Y-102249000D03*
%TD*%
D13*
%TO.C,C21*%
X92500000Y-109862500D03*
X92500000Y-108137500D03*
%TD*%
D14*
%TO.C,R13*%
X96012500Y-109950000D03*
X94187500Y-109950000D03*
%TD*%
D13*
%TO.C,C15*%
X93600000Y-101362500D03*
X93600000Y-99637500D03*
%TD*%
D15*
%TO.C,J2*%
X124250000Y-122750000D03*
D16*
X126250000Y-122750000D03*
X128250000Y-122750000D03*
X130250000Y-122750000D03*
%TD*%
D17*
%TO.C,C22*%
X103095000Y-103887500D03*
X103095000Y-105612500D03*
%TD*%
D18*
%TO.C,R7*%
X131318000Y-98655500D03*
X131318000Y-100480500D03*
%TD*%
D19*
%TO.C,D3*%
X112490000Y-102870000D03*
X108490000Y-102870000D03*
%TD*%
D18*
%TO.C,R5*%
X118033800Y-115851300D03*
X118033800Y-117676300D03*
%TD*%
D17*
%TO.C,C13*%
X110250000Y-97637500D03*
X110250000Y-99362500D03*
%TD*%
%TO.C,C14*%
X99400000Y-99637500D03*
X99400000Y-101362500D03*
%TD*%
D20*
%TO.C,C17*%
X98640120Y-85109880D03*
X99859880Y-83890120D03*
%TD*%
D17*
%TO.C,C9*%
X116509800Y-115901300D03*
X116509800Y-117626300D03*
%TD*%
D21*
%TO.C,D2*%
X112268000Y-111792000D03*
X112268000Y-115792000D03*
%TD*%
D14*
%TO.C,R3*%
X125610500Y-94750000D03*
X123785500Y-94750000D03*
%TD*%
D22*
%TO.C,R9*%
X106500000Y-77162500D03*
X106500000Y-75337500D03*
%TD*%
D23*
%TO.C,U6*%
X91175000Y-103887500D03*
X90525000Y-103887500D03*
X89875000Y-103887500D03*
X89225000Y-103887500D03*
X88575000Y-103887500D03*
X87925000Y-103887500D03*
X87275000Y-103887500D03*
X86625000Y-103887500D03*
X85975000Y-103887500D03*
X85325000Y-103887500D03*
X85325000Y-109612500D03*
X85975000Y-109612500D03*
X86625000Y-109612500D03*
X87275000Y-109612500D03*
X87925000Y-109612500D03*
X88575000Y-109612500D03*
X89225000Y-109612500D03*
X89875000Y-109612500D03*
X90525000Y-109612500D03*
X91175000Y-109612500D03*
%TD*%
D24*
%TO.C,BZ1*%
X94800000Y-78750000D03*
D25*
X87200000Y-78750000D03*
%TD*%
D26*
%TO.C,F1*%
X109090000Y-107696000D03*
X111890000Y-107696000D03*
%TD*%
D17*
%TO.C,C19*%
X91650000Y-99637500D03*
X91650000Y-101362500D03*
%TD*%
D27*
%TO.C,JP1*%
X95095000Y-104835000D03*
D28*
X95095000Y-107375000D03*
%TD*%
D14*
%TO.C,R1*%
X117736500Y-94750000D03*
X115911500Y-94750000D03*
%TD*%
D29*
%TO.C,C2*%
X120552300Y-105460800D03*
X122627300Y-105460800D03*
%TD*%
D30*
%TO.C,Y2*%
X89850000Y-99700000D03*
X87650000Y-99700000D03*
X87650000Y-101300000D03*
X89850000Y-101300000D03*
%TD*%
D31*
%TO.C,H1*%
X118000000Y-123190000D03*
%TD*%
D18*
%TO.C,R8*%
X96400000Y-95187500D03*
X96400000Y-97012500D03*
%TD*%
D32*
%TO.C,U3*%
X124980400Y-92248500D03*
X126250400Y-92248500D03*
X127520400Y-92248500D03*
X128790400Y-92248500D03*
X128790400Y-87298500D03*
X127520400Y-87298500D03*
X126250400Y-87298500D03*
X124980400Y-87298500D03*
%TD*%
D15*
%TO.C,J1*%
X105750000Y-122750000D03*
D16*
X107750000Y-122750000D03*
X109750000Y-122750000D03*
X111750000Y-122750000D03*
%TD*%
D28*
%TO.C,J3*%
X85950000Y-87000000D03*
D27*
X88490000Y-87000000D03*
X91030000Y-87000000D03*
X93570000Y-87000000D03*
%TD*%
D33*
%TO.C,L1*%
X127304800Y-114413800D03*
X127304800Y-107175800D03*
%TD*%
D21*
%TO.C,D1*%
X108712000Y-111792000D03*
X108712000Y-115792000D03*
%TD*%
D12*
%TO.C,D8*%
X114500000Y-77125000D03*
X114500000Y-75375000D03*
%TD*%
D34*
%TO.C,U7*%
X101500000Y-104275000D03*
X100230000Y-104275000D03*
X98960000Y-104275000D03*
X97690000Y-104275000D03*
X97690000Y-109225000D03*
X98960000Y-109225000D03*
X100230000Y-109225000D03*
X101500000Y-109225000D03*
%TD*%
D22*
%TO.C,R11*%
X113000000Y-77162500D03*
X113000000Y-75337500D03*
%TD*%
D12*
%TO.C,D6*%
X108000000Y-77125000D03*
X108000000Y-75375000D03*
%TD*%
D35*
%TO.C,R4*%
X127087500Y-94750000D03*
X128912500Y-94750000D03*
%TD*%
D30*
%TO.C,Y1*%
X97600000Y-99700000D03*
X95400000Y-99700000D03*
X95400000Y-101300000D03*
X97600000Y-101300000D03*
%TD*%
D13*
%TO.C,C20*%
X85850000Y-101362500D03*
X85850000Y-99637500D03*
%TD*%
D36*
%TO.C,C6*%
X121108300Y-115874800D03*
X122833300Y-115874800D03*
%TD*%
D35*
%TO.C,R2*%
X119213500Y-94750000D03*
X121038500Y-94750000D03*
%TD*%
D37*
%TO.C,U4*%
X113700000Y-97812500D03*
X111800000Y-97812500D03*
X112750000Y-99687500D03*
%TD*%
D17*
%TO.C,C3*%
X119557800Y-115901300D03*
X119557800Y-117626300D03*
%TD*%
D38*
%TO.C,SW1*%
X104325000Y-77325000D03*
X100175000Y-77325000D03*
X104325000Y-75175000D03*
X100200000Y-75175000D03*
%TD*%
D18*
%TO.C,R12*%
X92500000Y-104737500D03*
X92500000Y-106562500D03*
%TD*%
D39*
%TO.C,J6*%
X87197500Y-121500000D03*
X98627500Y-121500000D03*
D40*
X88467500Y-115150000D03*
D41*
X89737500Y-112610000D03*
X91007500Y-115150000D03*
X92277500Y-112610000D03*
X93547500Y-115150000D03*
X94817500Y-112610000D03*
X96087500Y-115150000D03*
X97357500Y-112610000D03*
%TD*%
D28*
%TO.C,J4*%
X86725000Y-91225000D03*
D27*
X89265000Y-91225000D03*
X86725000Y-93765000D03*
X89265000Y-93765000D03*
X86725000Y-96305000D03*
X89265000Y-96305000D03*
%TD*%
D42*
%TO.C,J5*%
X127000000Y-78450000D03*
D16*
X125000000Y-78450000D03*
X123000000Y-78450000D03*
X121000000Y-78450000D03*
%TD*%
D22*
%TO.C,R10*%
X109750000Y-77162500D03*
X109750000Y-75337500D03*
%TD*%
D17*
%TO.C,C7*%
X115750000Y-86958500D03*
X115750000Y-88683500D03*
%TD*%
D43*
%TO.C,C1*%
X120408300Y-102793800D03*
X123533300Y-102793800D03*
%TD*%
D12*
%TO.C,D7*%
X111250000Y-77125000D03*
X111250000Y-75375000D03*
%TD*%
D13*
%TO.C,C5*%
X123326400Y-92160000D03*
X123326400Y-90435000D03*
%TD*%
D44*
%TO.C,U1*%
X120192800Y-110794800D03*
D45*
X122097800Y-107919800D03*
X120827800Y-107919800D03*
X119557800Y-107919800D03*
X118287800Y-107919800D03*
X118287800Y-113669800D03*
X119557800Y-113669800D03*
X120827800Y-113669800D03*
X122097800Y-113669800D03*
D46*
X121492800Y-110144800D03*
X120192800Y-110144800D03*
X118892800Y-110144800D03*
X121492800Y-111444800D03*
X120192800Y-111444800D03*
X118892800Y-111444800D03*
%TD*%
D47*
%TO.C,U5*%
X96891064Y-92202082D03*
X97456750Y-92767767D03*
X98022435Y-93333452D03*
X98588120Y-93899138D03*
X99153806Y-94464823D03*
X99719491Y-95030509D03*
X100285177Y-95596194D03*
X100850862Y-96161880D03*
X101416548Y-96727565D03*
X101982233Y-97293250D03*
X102547918Y-97858936D03*
D48*
X104952082Y-97858936D03*
X105517767Y-97293250D03*
X106083452Y-96727565D03*
X106649138Y-96161880D03*
X107214823Y-95596194D03*
X107780509Y-95030509D03*
X108346194Y-94464823D03*
X108911880Y-93899138D03*
X109477565Y-93333452D03*
X110043250Y-92767767D03*
X110608936Y-92202082D03*
D47*
X110608936Y-89797918D03*
X110043250Y-89232233D03*
X109477565Y-88666548D03*
X108911880Y-88100862D03*
X108346194Y-87535177D03*
X107780509Y-86969491D03*
X107214823Y-86403806D03*
X106649138Y-85838120D03*
X106083452Y-85272435D03*
X105517767Y-84706750D03*
X104952082Y-84141064D03*
D48*
X102547918Y-84141064D03*
X101982233Y-84706750D03*
X101416548Y-85272435D03*
X100850862Y-85838120D03*
X100285177Y-86403806D03*
X99719491Y-86969491D03*
X99153806Y-87535177D03*
X98588120Y-88100862D03*
X98022435Y-88666548D03*
X97456750Y-89232233D03*
X96891064Y-89797918D03*
%TD*%
D49*
%TO.C,C10*%
X128613300Y-102793800D03*
X125488300Y-102793800D03*
%TD*%
D50*
%TO.C,Reset1*%
X92675000Y-97825000D03*
X92675000Y-93675000D03*
X94825000Y-97825000D03*
X94825000Y-93700000D03*
%TD*%
D18*
%TO.C,R6*%
X116509800Y-112422300D03*
X116509800Y-114247300D03*
%TD*%
D51*
%TO.C,C16*%
X108359880Y-84609880D03*
X107140120Y-83390120D03*
%TD*%
D49*
%TO.C,C11*%
X128613300Y-99491800D03*
X125488300Y-99491800D03*
%TD*%
D13*
%TO.C,C4*%
X115750000Y-92112500D03*
X115750000Y-90387500D03*
%TD*%
D17*
%TO.C,C8*%
X123326400Y-87006000D03*
X123326400Y-88731000D03*
%TD*%
D32*
%TO.C,U2*%
X117383400Y-92248500D03*
X118653400Y-92248500D03*
X119923400Y-92248500D03*
X121193400Y-92248500D03*
X121193400Y-87298500D03*
X119923400Y-87298500D03*
X118653400Y-87298500D03*
X117383400Y-87298500D03*
%TD*%
D17*
%TO.C,C12*%
X115250000Y-97637500D03*
X115250000Y-99362500D03*
%TD*%
M02*
