%TF.GenerationSoftware,KiCad,Pcbnew,8.0.2*%
%TF.CreationDate,2024-05-29T11:06:28+02:00*%
%TF.ProjectId,JK-BMS_CAN,4a4b2d42-4d53-45f4-9341-4e2e6b696361,rev?*%
%TF.SameCoordinates,Original*%
%TF.FileFunction,Legend,Bot*%
%TF.FilePolarity,Positive*%
%FSLAX46Y46*%
G04 Gerber Fmt 4.6, Leading zero omitted, Abs format (unit mm)*
G04 Created by KiCad (PCBNEW 8.0.2) date 2024-05-29 11:06:28*
%MOMM*%
%LPD*%
G01*
G04 APERTURE LIST*
%ADD10C,0.153000*%
G04 APERTURE END LIST*
D10*
X93500000Y-116750000D02*
X93500000Y-116250000D01*
X92000000Y-116750000D02*
X92250000Y-113750000D01*
X93774424Y-117660180D02*
X93822044Y-117612561D01*
X93822044Y-117612561D02*
X93869663Y-117469704D01*
X93869663Y-117469704D02*
X93869663Y-117374466D01*
X93869663Y-117374466D02*
X93822044Y-117231609D01*
X93822044Y-117231609D02*
X93726805Y-117136371D01*
X93726805Y-117136371D02*
X93631567Y-117088752D01*
X93631567Y-117088752D02*
X93441091Y-117041133D01*
X93441091Y-117041133D02*
X93298234Y-117041133D01*
X93298234Y-117041133D02*
X93107758Y-117088752D01*
X93107758Y-117088752D02*
X93012520Y-117136371D01*
X93012520Y-117136371D02*
X92917282Y-117231609D01*
X92917282Y-117231609D02*
X92869663Y-117374466D01*
X92869663Y-117374466D02*
X92869663Y-117469704D01*
X92869663Y-117469704D02*
X92917282Y-117612561D01*
X92917282Y-117612561D02*
X92964901Y-117660180D01*
X93583948Y-118041133D02*
X93583948Y-118517323D01*
X93869663Y-117945895D02*
X92869663Y-118279228D01*
X92869663Y-118279228D02*
X93869663Y-118612561D01*
X93869663Y-118945895D02*
X92869663Y-118945895D01*
X92869663Y-118945895D02*
X93869663Y-119517323D01*
X93869663Y-119517323D02*
X92869663Y-119517323D01*
X93488710Y-119993514D02*
X93488710Y-120755419D01*
X93869663Y-121707799D02*
X93869663Y-121231609D01*
X93869663Y-121231609D02*
X92869663Y-121231609D01*
X91774424Y-117660180D02*
X91822044Y-117612561D01*
X91822044Y-117612561D02*
X91869663Y-117469704D01*
X91869663Y-117469704D02*
X91869663Y-117374466D01*
X91869663Y-117374466D02*
X91822044Y-117231609D01*
X91822044Y-117231609D02*
X91726805Y-117136371D01*
X91726805Y-117136371D02*
X91631567Y-117088752D01*
X91631567Y-117088752D02*
X91441091Y-117041133D01*
X91441091Y-117041133D02*
X91298234Y-117041133D01*
X91298234Y-117041133D02*
X91107758Y-117088752D01*
X91107758Y-117088752D02*
X91012520Y-117136371D01*
X91012520Y-117136371D02*
X90917282Y-117231609D01*
X90917282Y-117231609D02*
X90869663Y-117374466D01*
X90869663Y-117374466D02*
X90869663Y-117469704D01*
X90869663Y-117469704D02*
X90917282Y-117612561D01*
X90917282Y-117612561D02*
X90964901Y-117660180D01*
X91583948Y-118041133D02*
X91583948Y-118517323D01*
X91869663Y-117945895D02*
X90869663Y-118279228D01*
X90869663Y-118279228D02*
X91869663Y-118612561D01*
X91869663Y-118945895D02*
X90869663Y-118945895D01*
X90869663Y-118945895D02*
X91869663Y-119517323D01*
X91869663Y-119517323D02*
X90869663Y-119517323D01*
X91488710Y-119993514D02*
X91488710Y-120755419D01*
X91869663Y-121231609D02*
X90869663Y-121231609D01*
X91345853Y-121231609D02*
X91345853Y-121803037D01*
X91869663Y-121803037D02*
X90869663Y-121803037D01*
X100949342Y-91534890D02*
X100035057Y-91534890D01*
X100492199Y-92144414D02*
X100492199Y-90925366D01*
X98892200Y-90544414D02*
X99463628Y-90544414D01*
X99463628Y-90544414D02*
X99520771Y-91306319D01*
X99520771Y-91306319D02*
X99463628Y-91230128D01*
X99463628Y-91230128D02*
X99349343Y-91153938D01*
X99349343Y-91153938D02*
X99063628Y-91153938D01*
X99063628Y-91153938D02*
X98949343Y-91230128D01*
X98949343Y-91230128D02*
X98892200Y-91306319D01*
X98892200Y-91306319D02*
X98835057Y-91458700D01*
X98835057Y-91458700D02*
X98835057Y-91839652D01*
X98835057Y-91839652D02*
X98892200Y-91992033D01*
X98892200Y-91992033D02*
X98949343Y-92068224D01*
X98949343Y-92068224D02*
X99063628Y-92144414D01*
X99063628Y-92144414D02*
X99349343Y-92144414D01*
X99349343Y-92144414D02*
X99463628Y-92068224D01*
X99463628Y-92068224D02*
X99520771Y-91992033D01*
X98492200Y-90544414D02*
X98092200Y-92144414D01*
X98092200Y-92144414D02*
X97692200Y-90544414D01*
X96092200Y-92677747D02*
X96092200Y-90392033D01*
X94320771Y-92144414D02*
X94320771Y-90544414D01*
X94320771Y-90544414D02*
X93920771Y-91687271D01*
X93920771Y-91687271D02*
X93520771Y-90544414D01*
X93520771Y-90544414D02*
X93520771Y-92144414D01*
X92949342Y-92144414D02*
X92949342Y-90544414D01*
X92435056Y-92068224D02*
X92263628Y-92144414D01*
X92263628Y-92144414D02*
X91977913Y-92144414D01*
X91977913Y-92144414D02*
X91863628Y-92068224D01*
X91863628Y-92068224D02*
X91806485Y-91992033D01*
X91806485Y-91992033D02*
X91749342Y-91839652D01*
X91749342Y-91839652D02*
X91749342Y-91687271D01*
X91749342Y-91687271D02*
X91806485Y-91534890D01*
X91806485Y-91534890D02*
X91863628Y-91458700D01*
X91863628Y-91458700D02*
X91977913Y-91382509D01*
X91977913Y-91382509D02*
X92206485Y-91306319D01*
X92206485Y-91306319D02*
X92320770Y-91230128D01*
X92320770Y-91230128D02*
X92377913Y-91153938D01*
X92377913Y-91153938D02*
X92435056Y-91001557D01*
X92435056Y-91001557D02*
X92435056Y-90849176D01*
X92435056Y-90849176D02*
X92377913Y-90696795D01*
X92377913Y-90696795D02*
X92320770Y-90620604D01*
X92320770Y-90620604D02*
X92206485Y-90544414D01*
X92206485Y-90544414D02*
X91920770Y-90544414D01*
X91920770Y-90544414D02*
X91749342Y-90620604D01*
X91006485Y-90544414D02*
X90777913Y-90544414D01*
X90777913Y-90544414D02*
X90663628Y-90620604D01*
X90663628Y-90620604D02*
X90549342Y-90772985D01*
X90549342Y-90772985D02*
X90492199Y-91077747D01*
X90492199Y-91077747D02*
X90492199Y-91611081D01*
X90492199Y-91611081D02*
X90549342Y-91915843D01*
X90549342Y-91915843D02*
X90663628Y-92068224D01*
X90663628Y-92068224D02*
X90777913Y-92144414D01*
X90777913Y-92144414D02*
X91006485Y-92144414D01*
X91006485Y-92144414D02*
X91120771Y-92068224D01*
X91120771Y-92068224D02*
X91235056Y-91915843D01*
X91235056Y-91915843D02*
X91292199Y-91611081D01*
X91292199Y-91611081D02*
X91292199Y-91077747D01*
X91292199Y-91077747D02*
X91235056Y-90772985D01*
X91235056Y-90772985D02*
X91120771Y-90620604D01*
X91120771Y-90620604D02*
X91006485Y-90544414D01*
X101863628Y-94720324D02*
X101863628Y-93120324D01*
X101863628Y-93120324D02*
X101463628Y-94263181D01*
X101463628Y-94263181D02*
X101063628Y-93120324D01*
X101063628Y-93120324D02*
X101063628Y-94720324D01*
X100263628Y-93120324D02*
X100035056Y-93120324D01*
X100035056Y-93120324D02*
X99920771Y-93196514D01*
X99920771Y-93196514D02*
X99806485Y-93348895D01*
X99806485Y-93348895D02*
X99749342Y-93653657D01*
X99749342Y-93653657D02*
X99749342Y-94186991D01*
X99749342Y-94186991D02*
X99806485Y-94491753D01*
X99806485Y-94491753D02*
X99920771Y-94644134D01*
X99920771Y-94644134D02*
X100035056Y-94720324D01*
X100035056Y-94720324D02*
X100263628Y-94720324D01*
X100263628Y-94720324D02*
X100377914Y-94644134D01*
X100377914Y-94644134D02*
X100492199Y-94491753D01*
X100492199Y-94491753D02*
X100549342Y-94186991D01*
X100549342Y-94186991D02*
X100549342Y-93653657D01*
X100549342Y-93653657D02*
X100492199Y-93348895D01*
X100492199Y-93348895D02*
X100377914Y-93196514D01*
X100377914Y-93196514D02*
X100263628Y-93120324D01*
X99292199Y-94644134D02*
X99120771Y-94720324D01*
X99120771Y-94720324D02*
X98835056Y-94720324D01*
X98835056Y-94720324D02*
X98720771Y-94644134D01*
X98720771Y-94644134D02*
X98663628Y-94567943D01*
X98663628Y-94567943D02*
X98606485Y-94415562D01*
X98606485Y-94415562D02*
X98606485Y-94263181D01*
X98606485Y-94263181D02*
X98663628Y-94110800D01*
X98663628Y-94110800D02*
X98720771Y-94034610D01*
X98720771Y-94034610D02*
X98835056Y-93958419D01*
X98835056Y-93958419D02*
X99063628Y-93882229D01*
X99063628Y-93882229D02*
X99177913Y-93806038D01*
X99177913Y-93806038D02*
X99235056Y-93729848D01*
X99235056Y-93729848D02*
X99292199Y-93577467D01*
X99292199Y-93577467D02*
X99292199Y-93425086D01*
X99292199Y-93425086D02*
X99235056Y-93272705D01*
X99235056Y-93272705D02*
X99177913Y-93196514D01*
X99177913Y-93196514D02*
X99063628Y-93120324D01*
X99063628Y-93120324D02*
X98777913Y-93120324D01*
X98777913Y-93120324D02*
X98606485Y-93196514D01*
X98092199Y-94720324D02*
X98092199Y-93120324D01*
X96320770Y-95253657D02*
X96320770Y-92967943D01*
X94606484Y-94644134D02*
X94435056Y-94720324D01*
X94435056Y-94720324D02*
X94149341Y-94720324D01*
X94149341Y-94720324D02*
X94035056Y-94644134D01*
X94035056Y-94644134D02*
X93977913Y-94567943D01*
X93977913Y-94567943D02*
X93920770Y-94415562D01*
X93920770Y-94415562D02*
X93920770Y-94263181D01*
X93920770Y-94263181D02*
X93977913Y-94110800D01*
X93977913Y-94110800D02*
X94035056Y-94034610D01*
X94035056Y-94034610D02*
X94149341Y-93958419D01*
X94149341Y-93958419D02*
X94377913Y-93882229D01*
X94377913Y-93882229D02*
X94492198Y-93806038D01*
X94492198Y-93806038D02*
X94549341Y-93729848D01*
X94549341Y-93729848D02*
X94606484Y-93577467D01*
X94606484Y-93577467D02*
X94606484Y-93425086D01*
X94606484Y-93425086D02*
X94549341Y-93272705D01*
X94549341Y-93272705D02*
X94492198Y-93196514D01*
X94492198Y-93196514D02*
X94377913Y-93120324D01*
X94377913Y-93120324D02*
X94092198Y-93120324D01*
X94092198Y-93120324D02*
X93920770Y-93196514D01*
X92720770Y-94567943D02*
X92777913Y-94644134D01*
X92777913Y-94644134D02*
X92949341Y-94720324D01*
X92949341Y-94720324D02*
X93063627Y-94720324D01*
X93063627Y-94720324D02*
X93235056Y-94644134D01*
X93235056Y-94644134D02*
X93349341Y-94491753D01*
X93349341Y-94491753D02*
X93406484Y-94339372D01*
X93406484Y-94339372D02*
X93463627Y-94034610D01*
X93463627Y-94034610D02*
X93463627Y-93806038D01*
X93463627Y-93806038D02*
X93406484Y-93501276D01*
X93406484Y-93501276D02*
X93349341Y-93348895D01*
X93349341Y-93348895D02*
X93235056Y-93196514D01*
X93235056Y-93196514D02*
X93063627Y-93120324D01*
X93063627Y-93120324D02*
X92949341Y-93120324D01*
X92949341Y-93120324D02*
X92777913Y-93196514D01*
X92777913Y-93196514D02*
X92720770Y-93272705D01*
X92206484Y-94720324D02*
X92206484Y-93120324D01*
X91520770Y-94720324D02*
X92035056Y-93806038D01*
X91520770Y-93120324D02*
X92206484Y-94034610D01*
X100320771Y-95772424D02*
X100435057Y-95696234D01*
X100435057Y-95696234D02*
X100606485Y-95696234D01*
X100606485Y-95696234D02*
X100777914Y-95772424D01*
X100777914Y-95772424D02*
X100892199Y-95924805D01*
X100892199Y-95924805D02*
X100949342Y-96077186D01*
X100949342Y-96077186D02*
X101006485Y-96381948D01*
X101006485Y-96381948D02*
X101006485Y-96610520D01*
X101006485Y-96610520D02*
X100949342Y-96915282D01*
X100949342Y-96915282D02*
X100892199Y-97067663D01*
X100892199Y-97067663D02*
X100777914Y-97220044D01*
X100777914Y-97220044D02*
X100606485Y-97296234D01*
X100606485Y-97296234D02*
X100492199Y-97296234D01*
X100492199Y-97296234D02*
X100320771Y-97220044D01*
X100320771Y-97220044D02*
X100263628Y-97143853D01*
X100263628Y-97143853D02*
X100263628Y-96610520D01*
X100263628Y-96610520D02*
X100492199Y-96610520D01*
X99749342Y-97296234D02*
X99749342Y-95696234D01*
X99749342Y-95696234D02*
X99063628Y-97296234D01*
X99063628Y-97296234D02*
X99063628Y-95696234D01*
X98492199Y-97296234D02*
X98492199Y-95696234D01*
X98492199Y-95696234D02*
X98206485Y-95696234D01*
X98206485Y-95696234D02*
X98035056Y-95772424D01*
X98035056Y-95772424D02*
X97920771Y-95924805D01*
X97920771Y-95924805D02*
X97863628Y-96077186D01*
X97863628Y-96077186D02*
X97806485Y-96381948D01*
X97806485Y-96381948D02*
X97806485Y-96610520D01*
X97806485Y-96610520D02*
X97863628Y-96915282D01*
X97863628Y-96915282D02*
X97920771Y-97067663D01*
X97920771Y-97067663D02*
X98035056Y-97220044D01*
X98035056Y-97220044D02*
X98206485Y-97296234D01*
X98206485Y-97296234D02*
X98492199Y-97296234D01*
X96092199Y-97829567D02*
X96092199Y-95543853D01*
X93635056Y-97296234D02*
X94035056Y-96534329D01*
X94320770Y-97296234D02*
X94320770Y-95696234D01*
X94320770Y-95696234D02*
X93863627Y-95696234D01*
X93863627Y-95696234D02*
X93749342Y-95772424D01*
X93749342Y-95772424D02*
X93692199Y-95848615D01*
X93692199Y-95848615D02*
X93635056Y-96000996D01*
X93635056Y-96000996D02*
X93635056Y-96229567D01*
X93635056Y-96229567D02*
X93692199Y-96381948D01*
X93692199Y-96381948D02*
X93749342Y-96458139D01*
X93749342Y-96458139D02*
X93863627Y-96534329D01*
X93863627Y-96534329D02*
X94320770Y-96534329D01*
X93177913Y-97220044D02*
X93006485Y-97296234D01*
X93006485Y-97296234D02*
X92720770Y-97296234D01*
X92720770Y-97296234D02*
X92606485Y-97220044D01*
X92606485Y-97220044D02*
X92549342Y-97143853D01*
X92549342Y-97143853D02*
X92492199Y-96991472D01*
X92492199Y-96991472D02*
X92492199Y-96839091D01*
X92492199Y-96839091D02*
X92549342Y-96686710D01*
X92549342Y-96686710D02*
X92606485Y-96610520D01*
X92606485Y-96610520D02*
X92720770Y-96534329D01*
X92720770Y-96534329D02*
X92949342Y-96458139D01*
X92949342Y-96458139D02*
X93063627Y-96381948D01*
X93063627Y-96381948D02*
X93120770Y-96305758D01*
X93120770Y-96305758D02*
X93177913Y-96153377D01*
X93177913Y-96153377D02*
X93177913Y-96000996D01*
X93177913Y-96000996D02*
X93120770Y-95848615D01*
X93120770Y-95848615D02*
X93063627Y-95772424D01*
X93063627Y-95772424D02*
X92949342Y-95696234D01*
X92949342Y-95696234D02*
X92663627Y-95696234D01*
X92663627Y-95696234D02*
X92492199Y-95772424D01*
X92149342Y-95696234D02*
X91463628Y-95696234D01*
X91806485Y-97296234D02*
X91806485Y-95696234D01*
X94455305Y-84735057D02*
X94531495Y-84849343D01*
X94531495Y-84849343D02*
X94531495Y-85020771D01*
X94531495Y-85020771D02*
X94455305Y-85192200D01*
X94455305Y-85192200D02*
X94302924Y-85306485D01*
X94302924Y-85306485D02*
X94150543Y-85363628D01*
X94150543Y-85363628D02*
X93845781Y-85420771D01*
X93845781Y-85420771D02*
X93617209Y-85420771D01*
X93617209Y-85420771D02*
X93312447Y-85363628D01*
X93312447Y-85363628D02*
X93160066Y-85306485D01*
X93160066Y-85306485D02*
X93007686Y-85192200D01*
X93007686Y-85192200D02*
X92931495Y-85020771D01*
X92931495Y-85020771D02*
X92931495Y-84906485D01*
X92931495Y-84906485D02*
X93007686Y-84735057D01*
X93007686Y-84735057D02*
X93083876Y-84677914D01*
X93083876Y-84677914D02*
X93617209Y-84677914D01*
X93617209Y-84677914D02*
X93617209Y-84906485D01*
X92931495Y-84163628D02*
X94531495Y-84163628D01*
X94531495Y-84163628D02*
X92931495Y-83477914D01*
X92931495Y-83477914D02*
X94531495Y-83477914D01*
X92931495Y-82906485D02*
X94531495Y-82906485D01*
X94531495Y-82906485D02*
X94531495Y-82620771D01*
X94531495Y-82620771D02*
X94455305Y-82449342D01*
X94455305Y-82449342D02*
X94302924Y-82335057D01*
X94302924Y-82335057D02*
X94150543Y-82277914D01*
X94150543Y-82277914D02*
X93845781Y-82220771D01*
X93845781Y-82220771D02*
X93617209Y-82220771D01*
X93617209Y-82220771D02*
X93312447Y-82277914D01*
X93312447Y-82277914D02*
X93160066Y-82335057D01*
X93160066Y-82335057D02*
X93007686Y-82449342D01*
X93007686Y-82449342D02*
X92931495Y-82620771D01*
X92931495Y-82620771D02*
X92931495Y-82906485D01*
X91955585Y-85535057D02*
X91955585Y-84849343D01*
X90355585Y-85192200D02*
X91955585Y-85192200D01*
X91955585Y-84563628D02*
X90355585Y-83763628D01*
X91955585Y-83763628D02*
X90355585Y-84563628D01*
X87779675Y-84677914D02*
X88541580Y-85077914D01*
X87779675Y-85363628D02*
X89379675Y-85363628D01*
X89379675Y-85363628D02*
X89379675Y-84906485D01*
X89379675Y-84906485D02*
X89303485Y-84792200D01*
X89303485Y-84792200D02*
X89227294Y-84735057D01*
X89227294Y-84735057D02*
X89074913Y-84677914D01*
X89074913Y-84677914D02*
X88846342Y-84677914D01*
X88846342Y-84677914D02*
X88693961Y-84735057D01*
X88693961Y-84735057D02*
X88617770Y-84792200D01*
X88617770Y-84792200D02*
X88541580Y-84906485D01*
X88541580Y-84906485D02*
X88541580Y-85363628D01*
X89379675Y-84277914D02*
X87779675Y-83477914D01*
X89379675Y-83477914D02*
X87779675Y-84277914D01*
X85813289Y-85363628D02*
X85813289Y-84449343D01*
X85203765Y-84906485D02*
X86422813Y-84906485D01*
X86803765Y-83306486D02*
X86803765Y-83877914D01*
X86803765Y-83877914D02*
X86041860Y-83935057D01*
X86041860Y-83935057D02*
X86118051Y-83877914D01*
X86118051Y-83877914D02*
X86194241Y-83763629D01*
X86194241Y-83763629D02*
X86194241Y-83477914D01*
X86194241Y-83477914D02*
X86118051Y-83363629D01*
X86118051Y-83363629D02*
X86041860Y-83306486D01*
X86041860Y-83306486D02*
X85889479Y-83249343D01*
X85889479Y-83249343D02*
X85508527Y-83249343D01*
X85508527Y-83249343D02*
X85356146Y-83306486D01*
X85356146Y-83306486D02*
X85279956Y-83363629D01*
X85279956Y-83363629D02*
X85203765Y-83477914D01*
X85203765Y-83477914D02*
X85203765Y-83763629D01*
X85203765Y-83763629D02*
X85279956Y-83877914D01*
X85279956Y-83877914D02*
X85356146Y-83935057D01*
X86803765Y-82906486D02*
X85203765Y-82506486D01*
X85203765Y-82506486D02*
X86803765Y-82106486D01*
X127343469Y-82735057D02*
X127400612Y-82849343D01*
X127400612Y-82849343D02*
X127400612Y-83020771D01*
X127400612Y-83020771D02*
X127343469Y-83192200D01*
X127343469Y-83192200D02*
X127229183Y-83306485D01*
X127229183Y-83306485D02*
X127114897Y-83363628D01*
X127114897Y-83363628D02*
X126886326Y-83420771D01*
X126886326Y-83420771D02*
X126714897Y-83420771D01*
X126714897Y-83420771D02*
X126486326Y-83363628D01*
X126486326Y-83363628D02*
X126372040Y-83306485D01*
X126372040Y-83306485D02*
X126257755Y-83192200D01*
X126257755Y-83192200D02*
X126200612Y-83020771D01*
X126200612Y-83020771D02*
X126200612Y-82906485D01*
X126200612Y-82906485D02*
X126257755Y-82735057D01*
X126257755Y-82735057D02*
X126314897Y-82677914D01*
X126314897Y-82677914D02*
X126714897Y-82677914D01*
X126714897Y-82677914D02*
X126714897Y-82906485D01*
X126200612Y-82163628D02*
X127400612Y-82163628D01*
X127400612Y-82163628D02*
X126200612Y-81477914D01*
X126200612Y-81477914D02*
X127400612Y-81477914D01*
X126200612Y-80906485D02*
X127400612Y-80906485D01*
X127400612Y-80906485D02*
X127400612Y-80620771D01*
X127400612Y-80620771D02*
X127343469Y-80449342D01*
X127343469Y-80449342D02*
X127229183Y-80335057D01*
X127229183Y-80335057D02*
X127114897Y-80277914D01*
X127114897Y-80277914D02*
X126886326Y-80220771D01*
X126886326Y-80220771D02*
X126714897Y-80220771D01*
X126714897Y-80220771D02*
X126486326Y-80277914D01*
X126486326Y-80277914D02*
X126372040Y-80335057D01*
X126372040Y-80335057D02*
X126257755Y-80449342D01*
X126257755Y-80449342D02*
X126200612Y-80620771D01*
X126200612Y-80620771D02*
X126200612Y-80906485D01*
X124725822Y-83363628D02*
X124725822Y-82449343D01*
X124268679Y-82906485D02*
X125182964Y-82906485D01*
X125468679Y-81306486D02*
X125468679Y-81877914D01*
X125468679Y-81877914D02*
X124897250Y-81935057D01*
X124897250Y-81935057D02*
X124954393Y-81877914D01*
X124954393Y-81877914D02*
X125011536Y-81763629D01*
X125011536Y-81763629D02*
X125011536Y-81477914D01*
X125011536Y-81477914D02*
X124954393Y-81363629D01*
X124954393Y-81363629D02*
X124897250Y-81306486D01*
X124897250Y-81306486D02*
X124782964Y-81249343D01*
X124782964Y-81249343D02*
X124497250Y-81249343D01*
X124497250Y-81249343D02*
X124382964Y-81306486D01*
X124382964Y-81306486D02*
X124325822Y-81363629D01*
X124325822Y-81363629D02*
X124268679Y-81477914D01*
X124268679Y-81477914D02*
X124268679Y-81763629D01*
X124268679Y-81763629D02*
X124325822Y-81877914D01*
X124325822Y-81877914D02*
X124382964Y-81935057D01*
X125468679Y-80906486D02*
X124268679Y-80506486D01*
X124268679Y-80506486D02*
X125468679Y-80106486D01*
X122393889Y-83420771D02*
X122336746Y-83249343D01*
X122336746Y-83249343D02*
X122336746Y-82963628D01*
X122336746Y-82963628D02*
X122393889Y-82849343D01*
X122393889Y-82849343D02*
X122451031Y-82792200D01*
X122451031Y-82792200D02*
X122565317Y-82735057D01*
X122565317Y-82735057D02*
X122679603Y-82735057D01*
X122679603Y-82735057D02*
X122793889Y-82792200D01*
X122793889Y-82792200D02*
X122851031Y-82849343D01*
X122851031Y-82849343D02*
X122908174Y-82963628D01*
X122908174Y-82963628D02*
X122965317Y-83192200D01*
X122965317Y-83192200D02*
X123022460Y-83306485D01*
X123022460Y-83306485D02*
X123079603Y-83363628D01*
X123079603Y-83363628D02*
X123193889Y-83420771D01*
X123193889Y-83420771D02*
X123308174Y-83420771D01*
X123308174Y-83420771D02*
X123422460Y-83363628D01*
X123422460Y-83363628D02*
X123479603Y-83306485D01*
X123479603Y-83306485D02*
X123536746Y-83192200D01*
X123536746Y-83192200D02*
X123536746Y-82906485D01*
X123536746Y-82906485D02*
X123479603Y-82735057D01*
X122336746Y-82220771D02*
X123536746Y-82220771D01*
X123536746Y-82220771D02*
X123536746Y-81935057D01*
X123536746Y-81935057D02*
X123479603Y-81763628D01*
X123479603Y-81763628D02*
X123365317Y-81649343D01*
X123365317Y-81649343D02*
X123251031Y-81592200D01*
X123251031Y-81592200D02*
X123022460Y-81535057D01*
X123022460Y-81535057D02*
X122851031Y-81535057D01*
X122851031Y-81535057D02*
X122622460Y-81592200D01*
X122622460Y-81592200D02*
X122508174Y-81649343D01*
X122508174Y-81649343D02*
X122393889Y-81763628D01*
X122393889Y-81763628D02*
X122336746Y-81935057D01*
X122336746Y-81935057D02*
X122336746Y-82220771D01*
X122679603Y-81077914D02*
X122679603Y-80506486D01*
X122336746Y-81192200D02*
X123536746Y-80792200D01*
X123536746Y-80792200D02*
X122336746Y-80392200D01*
X120461956Y-83420771D02*
X120404813Y-83249343D01*
X120404813Y-83249343D02*
X120404813Y-82963628D01*
X120404813Y-82963628D02*
X120461956Y-82849343D01*
X120461956Y-82849343D02*
X120519098Y-82792200D01*
X120519098Y-82792200D02*
X120633384Y-82735057D01*
X120633384Y-82735057D02*
X120747670Y-82735057D01*
X120747670Y-82735057D02*
X120861956Y-82792200D01*
X120861956Y-82792200D02*
X120919098Y-82849343D01*
X120919098Y-82849343D02*
X120976241Y-82963628D01*
X120976241Y-82963628D02*
X121033384Y-83192200D01*
X121033384Y-83192200D02*
X121090527Y-83306485D01*
X121090527Y-83306485D02*
X121147670Y-83363628D01*
X121147670Y-83363628D02*
X121261956Y-83420771D01*
X121261956Y-83420771D02*
X121376241Y-83420771D01*
X121376241Y-83420771D02*
X121490527Y-83363628D01*
X121490527Y-83363628D02*
X121547670Y-83306485D01*
X121547670Y-83306485D02*
X121604813Y-83192200D01*
X121604813Y-83192200D02*
X121604813Y-82906485D01*
X121604813Y-82906485D02*
X121547670Y-82735057D01*
X120519098Y-81535057D02*
X120461956Y-81592200D01*
X120461956Y-81592200D02*
X120404813Y-81763628D01*
X120404813Y-81763628D02*
X120404813Y-81877914D01*
X120404813Y-81877914D02*
X120461956Y-82049343D01*
X120461956Y-82049343D02*
X120576241Y-82163628D01*
X120576241Y-82163628D02*
X120690527Y-82220771D01*
X120690527Y-82220771D02*
X120919098Y-82277914D01*
X120919098Y-82277914D02*
X121090527Y-82277914D01*
X121090527Y-82277914D02*
X121319098Y-82220771D01*
X121319098Y-82220771D02*
X121433384Y-82163628D01*
X121433384Y-82163628D02*
X121547670Y-82049343D01*
X121547670Y-82049343D02*
X121604813Y-81877914D01*
X121604813Y-81877914D02*
X121604813Y-81763628D01*
X121604813Y-81763628D02*
X121547670Y-81592200D01*
X121547670Y-81592200D02*
X121490527Y-81535057D01*
X120404813Y-80449343D02*
X120404813Y-81020771D01*
X120404813Y-81020771D02*
X121604813Y-81020771D01*
X124788336Y-120804104D02*
X123788336Y-120470771D01*
X123788336Y-120470771D02*
X124788336Y-120137438D01*
X123677860Y-119851723D02*
X124211194Y-119851723D01*
X124477860Y-119851723D02*
X124439765Y-119889819D01*
X124439765Y-119889819D02*
X124401670Y-119851723D01*
X124401670Y-119851723D02*
X124439765Y-119813628D01*
X124439765Y-119813628D02*
X124477860Y-119851723D01*
X124477860Y-119851723D02*
X124401670Y-119851723D01*
X124211194Y-119470771D02*
X123677860Y-119470771D01*
X124135003Y-119470771D02*
X124173098Y-119432676D01*
X124173098Y-119432676D02*
X124211194Y-119356486D01*
X124211194Y-119356486D02*
X124211194Y-119242200D01*
X124211194Y-119242200D02*
X124173098Y-119166009D01*
X124173098Y-119166009D02*
X124096908Y-119127914D01*
X124096908Y-119127914D02*
X123677860Y-119127914D01*
X123788336Y-117937437D02*
X124455003Y-117937437D01*
X124359765Y-117937437D02*
X124407384Y-117889818D01*
X124407384Y-117889818D02*
X124455003Y-117794580D01*
X124455003Y-117794580D02*
X124455003Y-117651723D01*
X124455003Y-117651723D02*
X124407384Y-117556485D01*
X124407384Y-117556485D02*
X124312146Y-117508866D01*
X124312146Y-117508866D02*
X123788336Y-117508866D01*
X124312146Y-117508866D02*
X124407384Y-117461247D01*
X124407384Y-117461247D02*
X124455003Y-117366009D01*
X124455003Y-117366009D02*
X124455003Y-117223152D01*
X124455003Y-117223152D02*
X124407384Y-117127913D01*
X124407384Y-117127913D02*
X124312146Y-117080294D01*
X124312146Y-117080294D02*
X123788336Y-117080294D01*
X123788336Y-116175533D02*
X124312146Y-116175533D01*
X124312146Y-116175533D02*
X124407384Y-116223152D01*
X124407384Y-116223152D02*
X124455003Y-116318390D01*
X124455003Y-116318390D02*
X124455003Y-116508866D01*
X124455003Y-116508866D02*
X124407384Y-116604104D01*
X123835956Y-116175533D02*
X123788336Y-116270771D01*
X123788336Y-116270771D02*
X123788336Y-116508866D01*
X123788336Y-116508866D02*
X123835956Y-116604104D01*
X123835956Y-116604104D02*
X123931194Y-116651723D01*
X123931194Y-116651723D02*
X124026432Y-116651723D01*
X124026432Y-116651723D02*
X124121670Y-116604104D01*
X124121670Y-116604104D02*
X124169289Y-116508866D01*
X124169289Y-116508866D02*
X124169289Y-116270771D01*
X124169289Y-116270771D02*
X124216908Y-116175533D01*
X123788336Y-115794580D02*
X124455003Y-115270771D01*
X124455003Y-115794580D02*
X123788336Y-115270771D01*
X124788336Y-113699342D02*
X124788336Y-113889818D01*
X124788336Y-113889818D02*
X124740717Y-113985056D01*
X124740717Y-113985056D02*
X124693098Y-114032675D01*
X124693098Y-114032675D02*
X124550241Y-114127913D01*
X124550241Y-114127913D02*
X124359765Y-114175532D01*
X124359765Y-114175532D02*
X123978813Y-114175532D01*
X123978813Y-114175532D02*
X123883575Y-114127913D01*
X123883575Y-114127913D02*
X123835956Y-114080294D01*
X123835956Y-114080294D02*
X123788336Y-113985056D01*
X123788336Y-113985056D02*
X123788336Y-113794580D01*
X123788336Y-113794580D02*
X123835956Y-113699342D01*
X123835956Y-113699342D02*
X123883575Y-113651723D01*
X123883575Y-113651723D02*
X123978813Y-113604104D01*
X123978813Y-113604104D02*
X124216908Y-113604104D01*
X124216908Y-113604104D02*
X124312146Y-113651723D01*
X124312146Y-113651723D02*
X124359765Y-113699342D01*
X124359765Y-113699342D02*
X124407384Y-113794580D01*
X124407384Y-113794580D02*
X124407384Y-113985056D01*
X124407384Y-113985056D02*
X124359765Y-114080294D01*
X124359765Y-114080294D02*
X124312146Y-114127913D01*
X124312146Y-114127913D02*
X124216908Y-114175532D01*
X124788336Y-112699342D02*
X124788336Y-113175532D01*
X124788336Y-113175532D02*
X124312146Y-113223151D01*
X124312146Y-113223151D02*
X124359765Y-113175532D01*
X124359765Y-113175532D02*
X124407384Y-113080294D01*
X124407384Y-113080294D02*
X124407384Y-112842199D01*
X124407384Y-112842199D02*
X124359765Y-112746961D01*
X124359765Y-112746961D02*
X124312146Y-112699342D01*
X124312146Y-112699342D02*
X124216908Y-112651723D01*
X124216908Y-112651723D02*
X123978813Y-112651723D01*
X123978813Y-112651723D02*
X123883575Y-112699342D01*
X123883575Y-112699342D02*
X123835956Y-112746961D01*
X123835956Y-112746961D02*
X123788336Y-112842199D01*
X123788336Y-112842199D02*
X123788336Y-113080294D01*
X123788336Y-113080294D02*
X123835956Y-113175532D01*
X123835956Y-113175532D02*
X123883575Y-113223151D01*
X124788336Y-112366008D02*
X123788336Y-112032675D01*
X123788336Y-112032675D02*
X124788336Y-111699342D01*
X112082717Y-120137438D02*
X112130336Y-120232676D01*
X112130336Y-120232676D02*
X112130336Y-120375533D01*
X112130336Y-120375533D02*
X112082717Y-120518390D01*
X112082717Y-120518390D02*
X111987479Y-120613628D01*
X111987479Y-120613628D02*
X111892241Y-120661247D01*
X111892241Y-120661247D02*
X111701765Y-120708866D01*
X111701765Y-120708866D02*
X111558908Y-120708866D01*
X111558908Y-120708866D02*
X111368432Y-120661247D01*
X111368432Y-120661247D02*
X111273194Y-120613628D01*
X111273194Y-120613628D02*
X111177956Y-120518390D01*
X111177956Y-120518390D02*
X111130336Y-120375533D01*
X111130336Y-120375533D02*
X111130336Y-120280295D01*
X111130336Y-120280295D02*
X111177956Y-120137438D01*
X111177956Y-120137438D02*
X111225575Y-120089819D01*
X111225575Y-120089819D02*
X111558908Y-120089819D01*
X111558908Y-120089819D02*
X111558908Y-120280295D01*
X111130336Y-119661247D02*
X112130336Y-119661247D01*
X112130336Y-119661247D02*
X111130336Y-119089819D01*
X111130336Y-119089819D02*
X112130336Y-119089819D01*
X111130336Y-118613628D02*
X112130336Y-118613628D01*
X112130336Y-118613628D02*
X112130336Y-118375533D01*
X112130336Y-118375533D02*
X112082717Y-118232676D01*
X112082717Y-118232676D02*
X111987479Y-118137438D01*
X111987479Y-118137438D02*
X111892241Y-118089819D01*
X111892241Y-118089819D02*
X111701765Y-118042200D01*
X111701765Y-118042200D02*
X111558908Y-118042200D01*
X111558908Y-118042200D02*
X111368432Y-118089819D01*
X111368432Y-118089819D02*
X111273194Y-118137438D01*
X111273194Y-118137438D02*
X111177956Y-118232676D01*
X111177956Y-118232676D02*
X111130336Y-118375533D01*
X111130336Y-118375533D02*
X111130336Y-118613628D01*
X126566336Y-120804104D02*
X126566336Y-120232676D01*
X125566336Y-120518390D02*
X126566336Y-120518390D01*
X125566336Y-119994580D02*
X126233003Y-119470771D01*
X126233003Y-119994580D02*
X125566336Y-119470771D01*
X130582717Y-120137438D02*
X130630336Y-120232676D01*
X130630336Y-120232676D02*
X130630336Y-120375533D01*
X130630336Y-120375533D02*
X130582717Y-120518390D01*
X130582717Y-120518390D02*
X130487479Y-120613628D01*
X130487479Y-120613628D02*
X130392241Y-120661247D01*
X130392241Y-120661247D02*
X130201765Y-120708866D01*
X130201765Y-120708866D02*
X130058908Y-120708866D01*
X130058908Y-120708866D02*
X129868432Y-120661247D01*
X129868432Y-120661247D02*
X129773194Y-120613628D01*
X129773194Y-120613628D02*
X129677956Y-120518390D01*
X129677956Y-120518390D02*
X129630336Y-120375533D01*
X129630336Y-120375533D02*
X129630336Y-120280295D01*
X129630336Y-120280295D02*
X129677956Y-120137438D01*
X129677956Y-120137438D02*
X129725575Y-120089819D01*
X129725575Y-120089819D02*
X130058908Y-120089819D01*
X130058908Y-120089819D02*
X130058908Y-120280295D01*
X129630336Y-119661247D02*
X130630336Y-119661247D01*
X130630336Y-119661247D02*
X129630336Y-119089819D01*
X129630336Y-119089819D02*
X130630336Y-119089819D01*
X129630336Y-118613628D02*
X130630336Y-118613628D01*
X130630336Y-118613628D02*
X130630336Y-118375533D01*
X130630336Y-118375533D02*
X130582717Y-118232676D01*
X130582717Y-118232676D02*
X130487479Y-118137438D01*
X130487479Y-118137438D02*
X130392241Y-118089819D01*
X130392241Y-118089819D02*
X130201765Y-118042200D01*
X130201765Y-118042200D02*
X130058908Y-118042200D01*
X130058908Y-118042200D02*
X129868432Y-118089819D01*
X129868432Y-118089819D02*
X129773194Y-118137438D01*
X129773194Y-118137438D02*
X129677956Y-118232676D01*
X129677956Y-118232676D02*
X129630336Y-118375533D01*
X129630336Y-118375533D02*
X129630336Y-118613628D01*
X106288336Y-120804104D02*
X105288336Y-120470771D01*
X105288336Y-120470771D02*
X106288336Y-120137438D01*
X105177860Y-119851723D02*
X105711194Y-119851723D01*
X105977860Y-119851723D02*
X105939765Y-119889819D01*
X105939765Y-119889819D02*
X105901670Y-119851723D01*
X105901670Y-119851723D02*
X105939765Y-119813628D01*
X105939765Y-119813628D02*
X105977860Y-119851723D01*
X105977860Y-119851723D02*
X105901670Y-119851723D01*
X105711194Y-119470771D02*
X105177860Y-119470771D01*
X105635003Y-119470771D02*
X105673098Y-119432676D01*
X105673098Y-119432676D02*
X105711194Y-119356486D01*
X105711194Y-119356486D02*
X105711194Y-119242200D01*
X105711194Y-119242200D02*
X105673098Y-119166009D01*
X105673098Y-119166009D02*
X105596908Y-119127914D01*
X105596908Y-119127914D02*
X105177860Y-119127914D01*
X105288336Y-117937437D02*
X105955003Y-117937437D01*
X105859765Y-117937437D02*
X105907384Y-117889818D01*
X105907384Y-117889818D02*
X105955003Y-117794580D01*
X105955003Y-117794580D02*
X105955003Y-117651723D01*
X105955003Y-117651723D02*
X105907384Y-117556485D01*
X105907384Y-117556485D02*
X105812146Y-117508866D01*
X105812146Y-117508866D02*
X105288336Y-117508866D01*
X105812146Y-117508866D02*
X105907384Y-117461247D01*
X105907384Y-117461247D02*
X105955003Y-117366009D01*
X105955003Y-117366009D02*
X105955003Y-117223152D01*
X105955003Y-117223152D02*
X105907384Y-117127913D01*
X105907384Y-117127913D02*
X105812146Y-117080294D01*
X105812146Y-117080294D02*
X105288336Y-117080294D01*
X105288336Y-116175533D02*
X105812146Y-116175533D01*
X105812146Y-116175533D02*
X105907384Y-116223152D01*
X105907384Y-116223152D02*
X105955003Y-116318390D01*
X105955003Y-116318390D02*
X105955003Y-116508866D01*
X105955003Y-116508866D02*
X105907384Y-116604104D01*
X105335956Y-116175533D02*
X105288336Y-116270771D01*
X105288336Y-116270771D02*
X105288336Y-116508866D01*
X105288336Y-116508866D02*
X105335956Y-116604104D01*
X105335956Y-116604104D02*
X105431194Y-116651723D01*
X105431194Y-116651723D02*
X105526432Y-116651723D01*
X105526432Y-116651723D02*
X105621670Y-116604104D01*
X105621670Y-116604104D02*
X105669289Y-116508866D01*
X105669289Y-116508866D02*
X105669289Y-116270771D01*
X105669289Y-116270771D02*
X105716908Y-116175533D01*
X105288336Y-115794580D02*
X105955003Y-115270771D01*
X105955003Y-115794580D02*
X105288336Y-115270771D01*
X106288336Y-113699342D02*
X106288336Y-113889818D01*
X106288336Y-113889818D02*
X106240717Y-113985056D01*
X106240717Y-113985056D02*
X106193098Y-114032675D01*
X106193098Y-114032675D02*
X106050241Y-114127913D01*
X106050241Y-114127913D02*
X105859765Y-114175532D01*
X105859765Y-114175532D02*
X105478813Y-114175532D01*
X105478813Y-114175532D02*
X105383575Y-114127913D01*
X105383575Y-114127913D02*
X105335956Y-114080294D01*
X105335956Y-114080294D02*
X105288336Y-113985056D01*
X105288336Y-113985056D02*
X105288336Y-113794580D01*
X105288336Y-113794580D02*
X105335956Y-113699342D01*
X105335956Y-113699342D02*
X105383575Y-113651723D01*
X105383575Y-113651723D02*
X105478813Y-113604104D01*
X105478813Y-113604104D02*
X105716908Y-113604104D01*
X105716908Y-113604104D02*
X105812146Y-113651723D01*
X105812146Y-113651723D02*
X105859765Y-113699342D01*
X105859765Y-113699342D02*
X105907384Y-113794580D01*
X105907384Y-113794580D02*
X105907384Y-113985056D01*
X105907384Y-113985056D02*
X105859765Y-114080294D01*
X105859765Y-114080294D02*
X105812146Y-114127913D01*
X105812146Y-114127913D02*
X105716908Y-114175532D01*
X106288336Y-112699342D02*
X106288336Y-113175532D01*
X106288336Y-113175532D02*
X105812146Y-113223151D01*
X105812146Y-113223151D02*
X105859765Y-113175532D01*
X105859765Y-113175532D02*
X105907384Y-113080294D01*
X105907384Y-113080294D02*
X105907384Y-112842199D01*
X105907384Y-112842199D02*
X105859765Y-112746961D01*
X105859765Y-112746961D02*
X105812146Y-112699342D01*
X105812146Y-112699342D02*
X105716908Y-112651723D01*
X105716908Y-112651723D02*
X105478813Y-112651723D01*
X105478813Y-112651723D02*
X105383575Y-112699342D01*
X105383575Y-112699342D02*
X105335956Y-112746961D01*
X105335956Y-112746961D02*
X105288336Y-112842199D01*
X105288336Y-112842199D02*
X105288336Y-113080294D01*
X105288336Y-113080294D02*
X105335956Y-113175532D01*
X105335956Y-113175532D02*
X105383575Y-113223151D01*
X106288336Y-112366008D02*
X105288336Y-112032675D01*
X105288336Y-112032675D02*
X106288336Y-111699342D01*
X116217051Y-110468390D02*
X115288479Y-110468390D01*
X115288479Y-110468390D02*
X115102765Y-110530295D01*
X115102765Y-110530295D02*
X114978956Y-110654104D01*
X114978956Y-110654104D02*
X114917051Y-110839819D01*
X114917051Y-110839819D02*
X114917051Y-110963628D01*
X114917051Y-109849343D02*
X116217051Y-109849343D01*
X114917051Y-109106486D02*
X115659908Y-109663628D01*
X116217051Y-109106486D02*
X115474194Y-109849343D01*
X115412289Y-108549343D02*
X115412289Y-107558867D01*
X115598003Y-106506485D02*
X115536098Y-106320771D01*
X115536098Y-106320771D02*
X115474194Y-106258866D01*
X115474194Y-106258866D02*
X115350384Y-106196962D01*
X115350384Y-106196962D02*
X115164670Y-106196962D01*
X115164670Y-106196962D02*
X115040860Y-106258866D01*
X115040860Y-106258866D02*
X114978956Y-106320771D01*
X114978956Y-106320771D02*
X114917051Y-106444581D01*
X114917051Y-106444581D02*
X114917051Y-106939819D01*
X114917051Y-106939819D02*
X116217051Y-106939819D01*
X116217051Y-106939819D02*
X116217051Y-106506485D01*
X116217051Y-106506485D02*
X116155146Y-106382676D01*
X116155146Y-106382676D02*
X116093241Y-106320771D01*
X116093241Y-106320771D02*
X115969432Y-106258866D01*
X115969432Y-106258866D02*
X115845622Y-106258866D01*
X115845622Y-106258866D02*
X115721813Y-106320771D01*
X115721813Y-106320771D02*
X115659908Y-106382676D01*
X115659908Y-106382676D02*
X115598003Y-106506485D01*
X115598003Y-106506485D02*
X115598003Y-106939819D01*
X114917051Y-105639819D02*
X116217051Y-105639819D01*
X116217051Y-105639819D02*
X115288479Y-105206485D01*
X115288479Y-105206485D02*
X116217051Y-104773152D01*
X116217051Y-104773152D02*
X114917051Y-104773152D01*
X114978956Y-104216009D02*
X114917051Y-104030295D01*
X114917051Y-104030295D02*
X114917051Y-103720771D01*
X114917051Y-103720771D02*
X114978956Y-103596962D01*
X114978956Y-103596962D02*
X115040860Y-103535057D01*
X115040860Y-103535057D02*
X115164670Y-103473152D01*
X115164670Y-103473152D02*
X115288479Y-103473152D01*
X115288479Y-103473152D02*
X115412289Y-103535057D01*
X115412289Y-103535057D02*
X115474194Y-103596962D01*
X115474194Y-103596962D02*
X115536098Y-103720771D01*
X115536098Y-103720771D02*
X115598003Y-103968390D01*
X115598003Y-103968390D02*
X115659908Y-104092200D01*
X115659908Y-104092200D02*
X115721813Y-104154105D01*
X115721813Y-104154105D02*
X115845622Y-104216009D01*
X115845622Y-104216009D02*
X115969432Y-104216009D01*
X115969432Y-104216009D02*
X116093241Y-104154105D01*
X116093241Y-104154105D02*
X116155146Y-104092200D01*
X116155146Y-104092200D02*
X116217051Y-103968390D01*
X116217051Y-103968390D02*
X116217051Y-103658867D01*
X116217051Y-103658867D02*
X116155146Y-103473152D01*
X115783717Y-102111248D02*
X115783717Y-101616010D01*
X116217051Y-101925534D02*
X115102765Y-101925534D01*
X115102765Y-101925534D02*
X114978956Y-101863629D01*
X114978956Y-101863629D02*
X114917051Y-101739819D01*
X114917051Y-101739819D02*
X114917051Y-101616010D01*
X114917051Y-100996962D02*
X114978956Y-101120772D01*
X114978956Y-101120772D02*
X115040860Y-101182677D01*
X115040860Y-101182677D02*
X115164670Y-101244581D01*
X115164670Y-101244581D02*
X115536098Y-101244581D01*
X115536098Y-101244581D02*
X115659908Y-101182677D01*
X115659908Y-101182677D02*
X115721813Y-101120772D01*
X115721813Y-101120772D02*
X115783717Y-100996962D01*
X115783717Y-100996962D02*
X115783717Y-100811248D01*
X115783717Y-100811248D02*
X115721813Y-100687439D01*
X115721813Y-100687439D02*
X115659908Y-100625534D01*
X115659908Y-100625534D02*
X115536098Y-100563629D01*
X115536098Y-100563629D02*
X115164670Y-100563629D01*
X115164670Y-100563629D02*
X115040860Y-100625534D01*
X115040860Y-100625534D02*
X114978956Y-100687439D01*
X114978956Y-100687439D02*
X114917051Y-100811248D01*
X114917051Y-100811248D02*
X114917051Y-100996962D01*
X114917051Y-99016011D02*
X116217051Y-99016011D01*
X116217051Y-99016011D02*
X116217051Y-98520773D01*
X116217051Y-98520773D02*
X116155146Y-98396963D01*
X116155146Y-98396963D02*
X116093241Y-98335058D01*
X116093241Y-98335058D02*
X115969432Y-98273154D01*
X115969432Y-98273154D02*
X115783717Y-98273154D01*
X115783717Y-98273154D02*
X115659908Y-98335058D01*
X115659908Y-98335058D02*
X115598003Y-98396963D01*
X115598003Y-98396963D02*
X115536098Y-98520773D01*
X115536098Y-98520773D02*
X115536098Y-99016011D01*
X115783717Y-97839820D02*
X114917051Y-97530296D01*
X115783717Y-97220773D02*
X114917051Y-97530296D01*
X114917051Y-97530296D02*
X114607527Y-97654106D01*
X114607527Y-97654106D02*
X114545622Y-97716011D01*
X114545622Y-97716011D02*
X114483717Y-97839820D01*
X114917051Y-96539820D02*
X114978956Y-96663630D01*
X114978956Y-96663630D02*
X115102765Y-96725535D01*
X115102765Y-96725535D02*
X116217051Y-96725535D01*
X114917051Y-95858868D02*
X114978956Y-95982678D01*
X114978956Y-95982678D02*
X115040860Y-96044583D01*
X115040860Y-96044583D02*
X115164670Y-96106487D01*
X115164670Y-96106487D02*
X115536098Y-96106487D01*
X115536098Y-96106487D02*
X115659908Y-96044583D01*
X115659908Y-96044583D02*
X115721813Y-95982678D01*
X115721813Y-95982678D02*
X115783717Y-95858868D01*
X115783717Y-95858868D02*
X115783717Y-95673154D01*
X115783717Y-95673154D02*
X115721813Y-95549345D01*
X115721813Y-95549345D02*
X115659908Y-95487440D01*
X115659908Y-95487440D02*
X115536098Y-95425535D01*
X115536098Y-95425535D02*
X115164670Y-95425535D01*
X115164670Y-95425535D02*
X115040860Y-95487440D01*
X115040860Y-95487440D02*
X114978956Y-95549345D01*
X114978956Y-95549345D02*
X114917051Y-95673154D01*
X114917051Y-95673154D02*
X114917051Y-95858868D01*
X115783717Y-94868393D02*
X114917051Y-94868393D01*
X115659908Y-94868393D02*
X115721813Y-94806488D01*
X115721813Y-94806488D02*
X115783717Y-94682678D01*
X115783717Y-94682678D02*
X115783717Y-94496964D01*
X115783717Y-94496964D02*
X115721813Y-94373155D01*
X115721813Y-94373155D02*
X115598003Y-94311250D01*
X115598003Y-94311250D02*
X114917051Y-94311250D01*
X115783717Y-93877917D02*
X115783717Y-93382679D01*
X116217051Y-93692203D02*
X115102765Y-93692203D01*
X115102765Y-93692203D02*
X114978956Y-93630298D01*
X114978956Y-93630298D02*
X114917051Y-93506488D01*
X114917051Y-93506488D02*
X114917051Y-93382679D01*
X114978956Y-92454108D02*
X114917051Y-92577917D01*
X114917051Y-92577917D02*
X114917051Y-92825536D01*
X114917051Y-92825536D02*
X114978956Y-92949346D01*
X114978956Y-92949346D02*
X115102765Y-93011250D01*
X115102765Y-93011250D02*
X115598003Y-93011250D01*
X115598003Y-93011250D02*
X115721813Y-92949346D01*
X115721813Y-92949346D02*
X115783717Y-92825536D01*
X115783717Y-92825536D02*
X115783717Y-92577917D01*
X115783717Y-92577917D02*
X115721813Y-92454108D01*
X115721813Y-92454108D02*
X115598003Y-92392203D01*
X115598003Y-92392203D02*
X115474194Y-92392203D01*
X115474194Y-92392203D02*
X115350384Y-93011250D01*
X114978956Y-91277917D02*
X114917051Y-91401726D01*
X114917051Y-91401726D02*
X114917051Y-91649345D01*
X114917051Y-91649345D02*
X114978956Y-91773155D01*
X114978956Y-91773155D02*
X115040860Y-91835060D01*
X115040860Y-91835060D02*
X115164670Y-91896964D01*
X115164670Y-91896964D02*
X115536098Y-91896964D01*
X115536098Y-91896964D02*
X115659908Y-91835060D01*
X115659908Y-91835060D02*
X115721813Y-91773155D01*
X115721813Y-91773155D02*
X115783717Y-91649345D01*
X115783717Y-91649345D02*
X115783717Y-91401726D01*
X115783717Y-91401726D02*
X115721813Y-91277917D01*
X114917051Y-90720774D02*
X116217051Y-90720774D01*
X114917051Y-90163631D02*
X115598003Y-90163631D01*
X115598003Y-90163631D02*
X115721813Y-90225536D01*
X115721813Y-90225536D02*
X115783717Y-90349345D01*
X115783717Y-90349345D02*
X115783717Y-90535059D01*
X115783717Y-90535059D02*
X115721813Y-90658869D01*
X115721813Y-90658869D02*
X115659908Y-90720774D01*
X115040860Y-87811251D02*
X114978956Y-87873155D01*
X114978956Y-87873155D02*
X114917051Y-88058870D01*
X114917051Y-88058870D02*
X114917051Y-88182679D01*
X114917051Y-88182679D02*
X114978956Y-88368393D01*
X114978956Y-88368393D02*
X115102765Y-88492203D01*
X115102765Y-88492203D02*
X115226575Y-88554108D01*
X115226575Y-88554108D02*
X115474194Y-88616012D01*
X115474194Y-88616012D02*
X115659908Y-88616012D01*
X115659908Y-88616012D02*
X115907527Y-88554108D01*
X115907527Y-88554108D02*
X116031336Y-88492203D01*
X116031336Y-88492203D02*
X116155146Y-88368393D01*
X116155146Y-88368393D02*
X116217051Y-88182679D01*
X116217051Y-88182679D02*
X116217051Y-88058870D01*
X116217051Y-88058870D02*
X116155146Y-87873155D01*
X116155146Y-87873155D02*
X116093241Y-87811251D01*
X115288479Y-87316012D02*
X115288479Y-86696965D01*
X114917051Y-87439822D02*
X116217051Y-87006489D01*
X116217051Y-87006489D02*
X114917051Y-86573155D01*
X114917051Y-86139822D02*
X116217051Y-86139822D01*
X116217051Y-86139822D02*
X114917051Y-85396965D01*
X114917051Y-85396965D02*
X116217051Y-85396965D01*
X108066336Y-120804104D02*
X108066336Y-120232676D01*
X107066336Y-120518390D02*
X108066336Y-120518390D01*
X107066336Y-119994580D02*
X107733003Y-119470771D01*
X107733003Y-119994580D02*
X107066336Y-119470771D01*
X112916051Y-101958866D02*
X112916051Y-101482676D01*
X112630336Y-102054104D02*
X113630336Y-101720771D01*
X113630336Y-101720771D02*
X112630336Y-101387438D01*
X112630336Y-101054104D02*
X113630336Y-101054104D01*
X113630336Y-101054104D02*
X112916051Y-100720771D01*
X112916051Y-100720771D02*
X113630336Y-100387438D01*
X113630336Y-100387438D02*
X112630336Y-100387438D01*
X113154146Y-99911247D02*
X113154146Y-99577914D01*
X112630336Y-99435057D02*
X112630336Y-99911247D01*
X112630336Y-99911247D02*
X113630336Y-99911247D01*
X113630336Y-99911247D02*
X113630336Y-99435057D01*
X113630336Y-98054104D02*
X113630336Y-97958866D01*
X113630336Y-97958866D02*
X113582717Y-97863628D01*
X113582717Y-97863628D02*
X113535098Y-97816009D01*
X113535098Y-97816009D02*
X113439860Y-97768390D01*
X113439860Y-97768390D02*
X113249384Y-97720771D01*
X113249384Y-97720771D02*
X113011289Y-97720771D01*
X113011289Y-97720771D02*
X112820813Y-97768390D01*
X112820813Y-97768390D02*
X112725575Y-97816009D01*
X112725575Y-97816009D02*
X112677956Y-97863628D01*
X112677956Y-97863628D02*
X112630336Y-97958866D01*
X112630336Y-97958866D02*
X112630336Y-98054104D01*
X112630336Y-98054104D02*
X112677956Y-98149342D01*
X112677956Y-98149342D02*
X112725575Y-98196961D01*
X112725575Y-98196961D02*
X112820813Y-98244580D01*
X112820813Y-98244580D02*
X113011289Y-98292199D01*
X113011289Y-98292199D02*
X113249384Y-98292199D01*
X113249384Y-98292199D02*
X113439860Y-98244580D01*
X113439860Y-98244580D02*
X113535098Y-98196961D01*
X113535098Y-98196961D02*
X113582717Y-98149342D01*
X113582717Y-98149342D02*
X113630336Y-98054104D01*
X113630336Y-96863628D02*
X113630336Y-97054104D01*
X113630336Y-97054104D02*
X113582717Y-97149342D01*
X113582717Y-97149342D02*
X113535098Y-97196961D01*
X113535098Y-97196961D02*
X113392241Y-97292199D01*
X113392241Y-97292199D02*
X113201765Y-97339818D01*
X113201765Y-97339818D02*
X112820813Y-97339818D01*
X112820813Y-97339818D02*
X112725575Y-97292199D01*
X112725575Y-97292199D02*
X112677956Y-97244580D01*
X112677956Y-97244580D02*
X112630336Y-97149342D01*
X112630336Y-97149342D02*
X112630336Y-96958866D01*
X112630336Y-96958866D02*
X112677956Y-96863628D01*
X112677956Y-96863628D02*
X112725575Y-96816009D01*
X112725575Y-96816009D02*
X112820813Y-96768390D01*
X112820813Y-96768390D02*
X113058908Y-96768390D01*
X113058908Y-96768390D02*
X113154146Y-96816009D01*
X113154146Y-96816009D02*
X113201765Y-96863628D01*
X113201765Y-96863628D02*
X113249384Y-96958866D01*
X113249384Y-96958866D02*
X113249384Y-97149342D01*
X113249384Y-97149342D02*
X113201765Y-97244580D01*
X113201765Y-97244580D02*
X113154146Y-97292199D01*
X113154146Y-97292199D02*
X113058908Y-97339818D01*
X113677956Y-95625533D02*
X112392241Y-96482675D01*
X113535098Y-95339818D02*
X113582717Y-95292199D01*
X113582717Y-95292199D02*
X113630336Y-95196961D01*
X113630336Y-95196961D02*
X113630336Y-94958866D01*
X113630336Y-94958866D02*
X113582717Y-94863628D01*
X113582717Y-94863628D02*
X113535098Y-94816009D01*
X113535098Y-94816009D02*
X113439860Y-94768390D01*
X113439860Y-94768390D02*
X113344622Y-94768390D01*
X113344622Y-94768390D02*
X113201765Y-94816009D01*
X113201765Y-94816009D02*
X112630336Y-95387437D01*
X112630336Y-95387437D02*
X112630336Y-94768390D01*
X113630336Y-94149342D02*
X113630336Y-94054104D01*
X113630336Y-94054104D02*
X113582717Y-93958866D01*
X113582717Y-93958866D02*
X113535098Y-93911247D01*
X113535098Y-93911247D02*
X113439860Y-93863628D01*
X113439860Y-93863628D02*
X113249384Y-93816009D01*
X113249384Y-93816009D02*
X113011289Y-93816009D01*
X113011289Y-93816009D02*
X112820813Y-93863628D01*
X112820813Y-93863628D02*
X112725575Y-93911247D01*
X112725575Y-93911247D02*
X112677956Y-93958866D01*
X112677956Y-93958866D02*
X112630336Y-94054104D01*
X112630336Y-94054104D02*
X112630336Y-94149342D01*
X112630336Y-94149342D02*
X112677956Y-94244580D01*
X112677956Y-94244580D02*
X112725575Y-94292199D01*
X112725575Y-94292199D02*
X112820813Y-94339818D01*
X112820813Y-94339818D02*
X113011289Y-94387437D01*
X113011289Y-94387437D02*
X113249384Y-94387437D01*
X113249384Y-94387437D02*
X113439860Y-94339818D01*
X113439860Y-94339818D02*
X113535098Y-94292199D01*
X113535098Y-94292199D02*
X113582717Y-94244580D01*
X113582717Y-94244580D02*
X113630336Y-94149342D01*
X113535098Y-93435056D02*
X113582717Y-93387437D01*
X113582717Y-93387437D02*
X113630336Y-93292199D01*
X113630336Y-93292199D02*
X113630336Y-93054104D01*
X113630336Y-93054104D02*
X113582717Y-92958866D01*
X113582717Y-92958866D02*
X113535098Y-92911247D01*
X113535098Y-92911247D02*
X113439860Y-92863628D01*
X113439860Y-92863628D02*
X113344622Y-92863628D01*
X113344622Y-92863628D02*
X113201765Y-92911247D01*
X113201765Y-92911247D02*
X112630336Y-93482675D01*
X112630336Y-93482675D02*
X112630336Y-92863628D01*
X113297003Y-92006485D02*
X112630336Y-92006485D01*
X113677956Y-92244580D02*
X112963670Y-92482675D01*
X112963670Y-92482675D02*
X112963670Y-91863628D01*
X109098336Y-120089819D02*
X109574527Y-120423152D01*
X109098336Y-120661247D02*
X110098336Y-120661247D01*
X110098336Y-120661247D02*
X110098336Y-120280295D01*
X110098336Y-120280295D02*
X110050717Y-120185057D01*
X110050717Y-120185057D02*
X110003098Y-120137438D01*
X110003098Y-120137438D02*
X109907860Y-120089819D01*
X109907860Y-120089819D02*
X109765003Y-120089819D01*
X109765003Y-120089819D02*
X109669765Y-120137438D01*
X109669765Y-120137438D02*
X109622146Y-120185057D01*
X109622146Y-120185057D02*
X109574527Y-120280295D01*
X109574527Y-120280295D02*
X109574527Y-120661247D01*
X109098336Y-119756485D02*
X109765003Y-119232676D01*
X109765003Y-119756485D02*
X109098336Y-119232676D01*
X127598336Y-120089819D02*
X128074527Y-120423152D01*
X127598336Y-120661247D02*
X128598336Y-120661247D01*
X128598336Y-120661247D02*
X128598336Y-120280295D01*
X128598336Y-120280295D02*
X128550717Y-120185057D01*
X128550717Y-120185057D02*
X128503098Y-120137438D01*
X128503098Y-120137438D02*
X128407860Y-120089819D01*
X128407860Y-120089819D02*
X128265003Y-120089819D01*
X128265003Y-120089819D02*
X128169765Y-120137438D01*
X128169765Y-120137438D02*
X128122146Y-120185057D01*
X128122146Y-120185057D02*
X128074527Y-120280295D01*
X128074527Y-120280295D02*
X128074527Y-120661247D01*
X127598336Y-119756485D02*
X128265003Y-119232676D01*
X128265003Y-119756485D02*
X127598336Y-119232676D01*
M02*
