%TF.GenerationSoftware,KiCad,Pcbnew,8.0.2*%
%TF.CreationDate,2024-05-29T11:06:28+02:00*%
%TF.ProjectId,JK-BMS_CAN,4a4b2d42-4d53-45f4-9341-4e2e6b696361,rev?*%
%TF.SameCoordinates,Original*%
%TF.FileFunction,Legend,Top*%
%TF.FilePolarity,Positive*%
%FSLAX46Y46*%
G04 Gerber Fmt 4.6, Leading zero omitted, Abs format (unit mm)*
G04 Created by KiCad (PCBNEW 8.0.2) date 2024-05-29 11:06:28*
%MOMM*%
%LPD*%
G01*
G04 APERTURE LIST*
%ADD10C,0.153000*%
%ADD11C,0.150000*%
%ADD12C,0.120000*%
%ADD13C,0.100000*%
G04 APERTURE END LIST*
D10*
X130619663Y-93875533D02*
X131333948Y-93875533D01*
X131333948Y-93875533D02*
X131476805Y-93923152D01*
X131476805Y-93923152D02*
X131572044Y-94018390D01*
X131572044Y-94018390D02*
X131619663Y-94161247D01*
X131619663Y-94161247D02*
X131619663Y-94256485D01*
X131619663Y-93399342D02*
X130619663Y-93399342D01*
X131619663Y-92827914D02*
X131048234Y-93256485D01*
X130619663Y-92827914D02*
X131191091Y-93399342D01*
X131238710Y-92399342D02*
X131238710Y-91637438D01*
X131095853Y-90827914D02*
X131143472Y-90685057D01*
X131143472Y-90685057D02*
X131191091Y-90637438D01*
X131191091Y-90637438D02*
X131286329Y-90589819D01*
X131286329Y-90589819D02*
X131429186Y-90589819D01*
X131429186Y-90589819D02*
X131524424Y-90637438D01*
X131524424Y-90637438D02*
X131572044Y-90685057D01*
X131572044Y-90685057D02*
X131619663Y-90780295D01*
X131619663Y-90780295D02*
X131619663Y-91161247D01*
X131619663Y-91161247D02*
X130619663Y-91161247D01*
X130619663Y-91161247D02*
X130619663Y-90827914D01*
X130619663Y-90827914D02*
X130667282Y-90732676D01*
X130667282Y-90732676D02*
X130714901Y-90685057D01*
X130714901Y-90685057D02*
X130810139Y-90637438D01*
X130810139Y-90637438D02*
X130905377Y-90637438D01*
X130905377Y-90637438D02*
X131000615Y-90685057D01*
X131000615Y-90685057D02*
X131048234Y-90732676D01*
X131048234Y-90732676D02*
X131095853Y-90827914D01*
X131095853Y-90827914D02*
X131095853Y-91161247D01*
X131619663Y-90161247D02*
X130619663Y-90161247D01*
X130619663Y-90161247D02*
X131333948Y-89827914D01*
X131333948Y-89827914D02*
X130619663Y-89494581D01*
X130619663Y-89494581D02*
X131619663Y-89494581D01*
X131572044Y-89066009D02*
X131619663Y-88923152D01*
X131619663Y-88923152D02*
X131619663Y-88685057D01*
X131619663Y-88685057D02*
X131572044Y-88589819D01*
X131572044Y-88589819D02*
X131524424Y-88542200D01*
X131524424Y-88542200D02*
X131429186Y-88494581D01*
X131429186Y-88494581D02*
X131333948Y-88494581D01*
X131333948Y-88494581D02*
X131238710Y-88542200D01*
X131238710Y-88542200D02*
X131191091Y-88589819D01*
X131191091Y-88589819D02*
X131143472Y-88685057D01*
X131143472Y-88685057D02*
X131095853Y-88875533D01*
X131095853Y-88875533D02*
X131048234Y-88970771D01*
X131048234Y-88970771D02*
X131000615Y-89018390D01*
X131000615Y-89018390D02*
X130905377Y-89066009D01*
X130905377Y-89066009D02*
X130810139Y-89066009D01*
X130810139Y-89066009D02*
X130714901Y-89018390D01*
X130714901Y-89018390D02*
X130667282Y-88970771D01*
X130667282Y-88970771D02*
X130619663Y-88875533D01*
X130619663Y-88875533D02*
X130619663Y-88637438D01*
X130619663Y-88637438D02*
X130667282Y-88494581D01*
X130952996Y-87446961D02*
X130952996Y-87066009D01*
X130619663Y-87304104D02*
X131476805Y-87304104D01*
X131476805Y-87304104D02*
X131572044Y-87256485D01*
X131572044Y-87256485D02*
X131619663Y-87161247D01*
X131619663Y-87161247D02*
X131619663Y-87066009D01*
X131619663Y-86589818D02*
X131572044Y-86685056D01*
X131572044Y-86685056D02*
X131524424Y-86732675D01*
X131524424Y-86732675D02*
X131429186Y-86780294D01*
X131429186Y-86780294D02*
X131143472Y-86780294D01*
X131143472Y-86780294D02*
X131048234Y-86732675D01*
X131048234Y-86732675D02*
X131000615Y-86685056D01*
X131000615Y-86685056D02*
X130952996Y-86589818D01*
X130952996Y-86589818D02*
X130952996Y-86446961D01*
X130952996Y-86446961D02*
X131000615Y-86351723D01*
X131000615Y-86351723D02*
X131048234Y-86304104D01*
X131048234Y-86304104D02*
X131143472Y-86256485D01*
X131143472Y-86256485D02*
X131429186Y-86256485D01*
X131429186Y-86256485D02*
X131524424Y-86304104D01*
X131524424Y-86304104D02*
X131572044Y-86351723D01*
X131572044Y-86351723D02*
X131619663Y-86446961D01*
X131619663Y-86446961D02*
X131619663Y-86589818D01*
X131619663Y-85066008D02*
X130619663Y-85066008D01*
X130619663Y-85066008D02*
X130619663Y-84685056D01*
X130619663Y-84685056D02*
X130667282Y-84589818D01*
X130667282Y-84589818D02*
X130714901Y-84542199D01*
X130714901Y-84542199D02*
X130810139Y-84494580D01*
X130810139Y-84494580D02*
X130952996Y-84494580D01*
X130952996Y-84494580D02*
X131048234Y-84542199D01*
X131048234Y-84542199D02*
X131095853Y-84589818D01*
X131095853Y-84589818D02*
X131143472Y-84685056D01*
X131143472Y-84685056D02*
X131143472Y-85066008D01*
X130952996Y-84161246D02*
X131619663Y-83923151D01*
X130952996Y-83685056D02*
X131619663Y-83923151D01*
X131619663Y-83923151D02*
X131857758Y-84018389D01*
X131857758Y-84018389D02*
X131905377Y-84066008D01*
X131905377Y-84066008D02*
X131952996Y-84161246D01*
X131619663Y-83161246D02*
X131572044Y-83256484D01*
X131572044Y-83256484D02*
X131476805Y-83304103D01*
X131476805Y-83304103D02*
X130619663Y-83304103D01*
X131619663Y-82637436D02*
X131572044Y-82732674D01*
X131572044Y-82732674D02*
X131524424Y-82780293D01*
X131524424Y-82780293D02*
X131429186Y-82827912D01*
X131429186Y-82827912D02*
X131143472Y-82827912D01*
X131143472Y-82827912D02*
X131048234Y-82780293D01*
X131048234Y-82780293D02*
X131000615Y-82732674D01*
X131000615Y-82732674D02*
X130952996Y-82637436D01*
X130952996Y-82637436D02*
X130952996Y-82494579D01*
X130952996Y-82494579D02*
X131000615Y-82399341D01*
X131000615Y-82399341D02*
X131048234Y-82351722D01*
X131048234Y-82351722D02*
X131143472Y-82304103D01*
X131143472Y-82304103D02*
X131429186Y-82304103D01*
X131429186Y-82304103D02*
X131524424Y-82351722D01*
X131524424Y-82351722D02*
X131572044Y-82399341D01*
X131572044Y-82399341D02*
X131619663Y-82494579D01*
X131619663Y-82494579D02*
X131619663Y-82637436D01*
X130952996Y-81875531D02*
X131619663Y-81875531D01*
X131048234Y-81875531D02*
X131000615Y-81827912D01*
X131000615Y-81827912D02*
X130952996Y-81732674D01*
X130952996Y-81732674D02*
X130952996Y-81589817D01*
X130952996Y-81589817D02*
X131000615Y-81494579D01*
X131000615Y-81494579D02*
X131095853Y-81446960D01*
X131095853Y-81446960D02*
X131619663Y-81446960D01*
X130952996Y-81113626D02*
X130952996Y-80732674D01*
X130619663Y-80970769D02*
X131476805Y-80970769D01*
X131476805Y-80970769D02*
X131572044Y-80923150D01*
X131572044Y-80923150D02*
X131619663Y-80827912D01*
X131619663Y-80827912D02*
X131619663Y-80732674D01*
X131572044Y-80018388D02*
X131619663Y-80113626D01*
X131619663Y-80113626D02*
X131619663Y-80304102D01*
X131619663Y-80304102D02*
X131572044Y-80399340D01*
X131572044Y-80399340D02*
X131476805Y-80446959D01*
X131476805Y-80446959D02*
X131095853Y-80446959D01*
X131095853Y-80446959D02*
X131000615Y-80399340D01*
X131000615Y-80399340D02*
X130952996Y-80304102D01*
X130952996Y-80304102D02*
X130952996Y-80113626D01*
X130952996Y-80113626D02*
X131000615Y-80018388D01*
X131000615Y-80018388D02*
X131095853Y-79970769D01*
X131095853Y-79970769D02*
X131191091Y-79970769D01*
X131191091Y-79970769D02*
X131286329Y-80446959D01*
X131572044Y-79113626D02*
X131619663Y-79208864D01*
X131619663Y-79208864D02*
X131619663Y-79399340D01*
X131619663Y-79399340D02*
X131572044Y-79494578D01*
X131572044Y-79494578D02*
X131524424Y-79542197D01*
X131524424Y-79542197D02*
X131429186Y-79589816D01*
X131429186Y-79589816D02*
X131143472Y-79589816D01*
X131143472Y-79589816D02*
X131048234Y-79542197D01*
X131048234Y-79542197D02*
X131000615Y-79494578D01*
X131000615Y-79494578D02*
X130952996Y-79399340D01*
X130952996Y-79399340D02*
X130952996Y-79208864D01*
X130952996Y-79208864D02*
X131000615Y-79113626D01*
X131619663Y-78685054D02*
X130619663Y-78685054D01*
X131619663Y-78256483D02*
X131095853Y-78256483D01*
X131095853Y-78256483D02*
X131000615Y-78304102D01*
X131000615Y-78304102D02*
X130952996Y-78399340D01*
X130952996Y-78399340D02*
X130952996Y-78542197D01*
X130952996Y-78542197D02*
X131000615Y-78637435D01*
X131000615Y-78637435D02*
X131048234Y-78685054D01*
X131524424Y-76446959D02*
X131572044Y-76494578D01*
X131572044Y-76494578D02*
X131619663Y-76637435D01*
X131619663Y-76637435D02*
X131619663Y-76732673D01*
X131619663Y-76732673D02*
X131572044Y-76875530D01*
X131572044Y-76875530D02*
X131476805Y-76970768D01*
X131476805Y-76970768D02*
X131381567Y-77018387D01*
X131381567Y-77018387D02*
X131191091Y-77066006D01*
X131191091Y-77066006D02*
X131048234Y-77066006D01*
X131048234Y-77066006D02*
X130857758Y-77018387D01*
X130857758Y-77018387D02*
X130762520Y-76970768D01*
X130762520Y-76970768D02*
X130667282Y-76875530D01*
X130667282Y-76875530D02*
X130619663Y-76732673D01*
X130619663Y-76732673D02*
X130619663Y-76637435D01*
X130619663Y-76637435D02*
X130667282Y-76494578D01*
X130667282Y-76494578D02*
X130714901Y-76446959D01*
X131333948Y-76066006D02*
X131333948Y-75589816D01*
X131619663Y-76161244D02*
X130619663Y-75827911D01*
X130619663Y-75827911D02*
X131619663Y-75494578D01*
X131619663Y-75161244D02*
X130619663Y-75161244D01*
X130619663Y-75161244D02*
X131619663Y-74589816D01*
X131619663Y-74589816D02*
X130619663Y-74589816D01*
X123350657Y-82070710D02*
X122683990Y-82070710D01*
X122683990Y-82070710D02*
X122683990Y-80670710D01*
X124617323Y-81937377D02*
X124550656Y-82004044D01*
X124550656Y-82004044D02*
X124350656Y-82070710D01*
X124350656Y-82070710D02*
X124217323Y-82070710D01*
X124217323Y-82070710D02*
X124017323Y-82004044D01*
X124017323Y-82004044D02*
X123883990Y-81870710D01*
X123883990Y-81870710D02*
X123817323Y-81737377D01*
X123817323Y-81737377D02*
X123750656Y-81470710D01*
X123750656Y-81470710D02*
X123750656Y-81270710D01*
X123750656Y-81270710D02*
X123817323Y-81004044D01*
X123817323Y-81004044D02*
X123883990Y-80870710D01*
X123883990Y-80870710D02*
X124017323Y-80737377D01*
X124017323Y-80737377D02*
X124217323Y-80670710D01*
X124217323Y-80670710D02*
X124350656Y-80670710D01*
X124350656Y-80670710D02*
X124550656Y-80737377D01*
X124550656Y-80737377D02*
X124617323Y-80804044D01*
X125217323Y-82070710D02*
X125217323Y-80670710D01*
X125217323Y-80670710D02*
X125550656Y-80670710D01*
X125550656Y-80670710D02*
X125750656Y-80737377D01*
X125750656Y-80737377D02*
X125883990Y-80870710D01*
X125883990Y-80870710D02*
X125950656Y-81004044D01*
X125950656Y-81004044D02*
X126017323Y-81270710D01*
X126017323Y-81270710D02*
X126017323Y-81470710D01*
X126017323Y-81470710D02*
X125950656Y-81737377D01*
X125950656Y-81737377D02*
X125883990Y-81870710D01*
X125883990Y-81870710D02*
X125750656Y-82004044D01*
X125750656Y-82004044D02*
X125550656Y-82070710D01*
X125550656Y-82070710D02*
X125217323Y-82070710D01*
X114410180Y-74274424D02*
X114362561Y-74322044D01*
X114362561Y-74322044D02*
X114219704Y-74369663D01*
X114219704Y-74369663D02*
X114124466Y-74369663D01*
X114124466Y-74369663D02*
X113981609Y-74322044D01*
X113981609Y-74322044D02*
X113886371Y-74226805D01*
X113886371Y-74226805D02*
X113838752Y-74131567D01*
X113838752Y-74131567D02*
X113791133Y-73941091D01*
X113791133Y-73941091D02*
X113791133Y-73798234D01*
X113791133Y-73798234D02*
X113838752Y-73607758D01*
X113838752Y-73607758D02*
X113886371Y-73512520D01*
X113886371Y-73512520D02*
X113981609Y-73417282D01*
X113981609Y-73417282D02*
X114124466Y-73369663D01*
X114124466Y-73369663D02*
X114219704Y-73369663D01*
X114219704Y-73369663D02*
X114362561Y-73417282D01*
X114362561Y-73417282D02*
X114410180Y-73464901D01*
X114791133Y-74083948D02*
X115267323Y-74083948D01*
X114695895Y-74369663D02*
X115029228Y-73369663D01*
X115029228Y-73369663D02*
X115362561Y-74369663D01*
X115695895Y-74369663D02*
X115695895Y-73369663D01*
X115695895Y-73369663D02*
X116267323Y-74369663D01*
X116267323Y-74369663D02*
X116267323Y-73369663D01*
X110172085Y-73845853D02*
X110314942Y-73893472D01*
X110314942Y-73893472D02*
X110362561Y-73941091D01*
X110362561Y-73941091D02*
X110410180Y-74036329D01*
X110410180Y-74036329D02*
X110410180Y-74179186D01*
X110410180Y-74179186D02*
X110362561Y-74274424D01*
X110362561Y-74274424D02*
X110314942Y-74322044D01*
X110314942Y-74322044D02*
X110219704Y-74369663D01*
X110219704Y-74369663D02*
X109838752Y-74369663D01*
X109838752Y-74369663D02*
X109838752Y-73369663D01*
X109838752Y-73369663D02*
X110172085Y-73369663D01*
X110172085Y-73369663D02*
X110267323Y-73417282D01*
X110267323Y-73417282D02*
X110314942Y-73464901D01*
X110314942Y-73464901D02*
X110362561Y-73560139D01*
X110362561Y-73560139D02*
X110362561Y-73655377D01*
X110362561Y-73655377D02*
X110314942Y-73750615D01*
X110314942Y-73750615D02*
X110267323Y-73798234D01*
X110267323Y-73798234D02*
X110172085Y-73845853D01*
X110172085Y-73845853D02*
X109838752Y-73845853D01*
X110838752Y-74369663D02*
X110838752Y-73369663D01*
X110838752Y-73369663D02*
X111172085Y-74083948D01*
X111172085Y-74083948D02*
X111505418Y-73369663D01*
X111505418Y-73369663D02*
X111505418Y-74369663D01*
X111933990Y-74322044D02*
X112076847Y-74369663D01*
X112076847Y-74369663D02*
X112314942Y-74369663D01*
X112314942Y-74369663D02*
X112410180Y-74322044D01*
X112410180Y-74322044D02*
X112457799Y-74274424D01*
X112457799Y-74274424D02*
X112505418Y-74179186D01*
X112505418Y-74179186D02*
X112505418Y-74083948D01*
X112505418Y-74083948D02*
X112457799Y-73988710D01*
X112457799Y-73988710D02*
X112410180Y-73941091D01*
X112410180Y-73941091D02*
X112314942Y-73893472D01*
X112314942Y-73893472D02*
X112124466Y-73845853D01*
X112124466Y-73845853D02*
X112029228Y-73798234D01*
X112029228Y-73798234D02*
X111981609Y-73750615D01*
X111981609Y-73750615D02*
X111933990Y-73655377D01*
X111933990Y-73655377D02*
X111933990Y-73560139D01*
X111933990Y-73560139D02*
X111981609Y-73464901D01*
X111981609Y-73464901D02*
X112029228Y-73417282D01*
X112029228Y-73417282D02*
X112124466Y-73369663D01*
X112124466Y-73369663D02*
X112362561Y-73369663D01*
X112362561Y-73369663D02*
X112505418Y-73417282D01*
X100636371Y-79595186D02*
X100636371Y-78395186D01*
X100636371Y-78395186D02*
X101093514Y-78395186D01*
X101093514Y-78395186D02*
X101207799Y-78452329D01*
X101207799Y-78452329D02*
X101264942Y-78509472D01*
X101264942Y-78509472D02*
X101322085Y-78623758D01*
X101322085Y-78623758D02*
X101322085Y-78795186D01*
X101322085Y-78795186D02*
X101264942Y-78909472D01*
X101264942Y-78909472D02*
X101207799Y-78966615D01*
X101207799Y-78966615D02*
X101093514Y-79023758D01*
X101093514Y-79023758D02*
X100636371Y-79023758D01*
X102350657Y-79595186D02*
X102350657Y-78966615D01*
X102350657Y-78966615D02*
X102293514Y-78852329D01*
X102293514Y-78852329D02*
X102179228Y-78795186D01*
X102179228Y-78795186D02*
X101950657Y-78795186D01*
X101950657Y-78795186D02*
X101836371Y-78852329D01*
X102350657Y-79538044D02*
X102236371Y-79595186D01*
X102236371Y-79595186D02*
X101950657Y-79595186D01*
X101950657Y-79595186D02*
X101836371Y-79538044D01*
X101836371Y-79538044D02*
X101779228Y-79423758D01*
X101779228Y-79423758D02*
X101779228Y-79309472D01*
X101779228Y-79309472D02*
X101836371Y-79195186D01*
X101836371Y-79195186D02*
X101950657Y-79138044D01*
X101950657Y-79138044D02*
X102236371Y-79138044D01*
X102236371Y-79138044D02*
X102350657Y-79080901D01*
X103436371Y-78795186D02*
X103436371Y-79766615D01*
X103436371Y-79766615D02*
X103379228Y-79880901D01*
X103379228Y-79880901D02*
X103322085Y-79938044D01*
X103322085Y-79938044D02*
X103207799Y-79995186D01*
X103207799Y-79995186D02*
X103036371Y-79995186D01*
X103036371Y-79995186D02*
X102922085Y-79938044D01*
X103436371Y-79538044D02*
X103322085Y-79595186D01*
X103322085Y-79595186D02*
X103093513Y-79595186D01*
X103093513Y-79595186D02*
X102979228Y-79538044D01*
X102979228Y-79538044D02*
X102922085Y-79480901D01*
X102922085Y-79480901D02*
X102864942Y-79366615D01*
X102864942Y-79366615D02*
X102864942Y-79023758D01*
X102864942Y-79023758D02*
X102922085Y-78909472D01*
X102922085Y-78909472D02*
X102979228Y-78852329D01*
X102979228Y-78852329D02*
X103093513Y-78795186D01*
X103093513Y-78795186D02*
X103322085Y-78795186D01*
X103322085Y-78795186D02*
X103436371Y-78852329D01*
X104464942Y-79538044D02*
X104350656Y-79595186D01*
X104350656Y-79595186D02*
X104122085Y-79595186D01*
X104122085Y-79595186D02*
X104007799Y-79538044D01*
X104007799Y-79538044D02*
X103950656Y-79423758D01*
X103950656Y-79423758D02*
X103950656Y-78966615D01*
X103950656Y-78966615D02*
X104007799Y-78852329D01*
X104007799Y-78852329D02*
X104122085Y-78795186D01*
X104122085Y-78795186D02*
X104350656Y-78795186D01*
X104350656Y-78795186D02*
X104464942Y-78852329D01*
X104464942Y-78852329D02*
X104522085Y-78966615D01*
X104522085Y-78966615D02*
X104522085Y-79080901D01*
X104522085Y-79080901D02*
X103950656Y-79195186D01*
X92822085Y-92595186D02*
X92422085Y-92023758D01*
X92136371Y-92595186D02*
X92136371Y-91395186D01*
X92136371Y-91395186D02*
X92593514Y-91395186D01*
X92593514Y-91395186D02*
X92707799Y-91452329D01*
X92707799Y-91452329D02*
X92764942Y-91509472D01*
X92764942Y-91509472D02*
X92822085Y-91623758D01*
X92822085Y-91623758D02*
X92822085Y-91795186D01*
X92822085Y-91795186D02*
X92764942Y-91909472D01*
X92764942Y-91909472D02*
X92707799Y-91966615D01*
X92707799Y-91966615D02*
X92593514Y-92023758D01*
X92593514Y-92023758D02*
X92136371Y-92023758D01*
X93279228Y-92538044D02*
X93450657Y-92595186D01*
X93450657Y-92595186D02*
X93736371Y-92595186D01*
X93736371Y-92595186D02*
X93850657Y-92538044D01*
X93850657Y-92538044D02*
X93907799Y-92480901D01*
X93907799Y-92480901D02*
X93964942Y-92366615D01*
X93964942Y-92366615D02*
X93964942Y-92252329D01*
X93964942Y-92252329D02*
X93907799Y-92138044D01*
X93907799Y-92138044D02*
X93850657Y-92080901D01*
X93850657Y-92080901D02*
X93736371Y-92023758D01*
X93736371Y-92023758D02*
X93507799Y-91966615D01*
X93507799Y-91966615D02*
X93393514Y-91909472D01*
X93393514Y-91909472D02*
X93336371Y-91852329D01*
X93336371Y-91852329D02*
X93279228Y-91738044D01*
X93279228Y-91738044D02*
X93279228Y-91623758D01*
X93279228Y-91623758D02*
X93336371Y-91509472D01*
X93336371Y-91509472D02*
X93393514Y-91452329D01*
X93393514Y-91452329D02*
X93507799Y-91395186D01*
X93507799Y-91395186D02*
X93793514Y-91395186D01*
X93793514Y-91395186D02*
X93964942Y-91452329D01*
X94307799Y-91395186D02*
X94993514Y-91395186D01*
X94650656Y-92595186D02*
X94650656Y-91395186D01*
X106786371Y-119466615D02*
X106957799Y-119523758D01*
X106957799Y-119523758D02*
X107014942Y-119580901D01*
X107014942Y-119580901D02*
X107072085Y-119695186D01*
X107072085Y-119695186D02*
X107072085Y-119866615D01*
X107072085Y-119866615D02*
X107014942Y-119980901D01*
X107014942Y-119980901D02*
X106957799Y-120038044D01*
X106957799Y-120038044D02*
X106843514Y-120095186D01*
X106843514Y-120095186D02*
X106386371Y-120095186D01*
X106386371Y-120095186D02*
X106386371Y-118895186D01*
X106386371Y-118895186D02*
X106786371Y-118895186D01*
X106786371Y-118895186D02*
X106900657Y-118952329D01*
X106900657Y-118952329D02*
X106957799Y-119009472D01*
X106957799Y-119009472D02*
X107014942Y-119123758D01*
X107014942Y-119123758D02*
X107014942Y-119238044D01*
X107014942Y-119238044D02*
X106957799Y-119352329D01*
X106957799Y-119352329D02*
X106900657Y-119409472D01*
X106900657Y-119409472D02*
X106786371Y-119466615D01*
X106786371Y-119466615D02*
X106386371Y-119466615D01*
X107586371Y-120095186D02*
X107586371Y-118895186D01*
X107586371Y-118895186D02*
X107986371Y-119752329D01*
X107986371Y-119752329D02*
X108386371Y-118895186D01*
X108386371Y-118895186D02*
X108386371Y-120095186D01*
X108900657Y-120038044D02*
X109072086Y-120095186D01*
X109072086Y-120095186D02*
X109357800Y-120095186D01*
X109357800Y-120095186D02*
X109472086Y-120038044D01*
X109472086Y-120038044D02*
X109529228Y-119980901D01*
X109529228Y-119980901D02*
X109586371Y-119866615D01*
X109586371Y-119866615D02*
X109586371Y-119752329D01*
X109586371Y-119752329D02*
X109529228Y-119638044D01*
X109529228Y-119638044D02*
X109472086Y-119580901D01*
X109472086Y-119580901D02*
X109357800Y-119523758D01*
X109357800Y-119523758D02*
X109129228Y-119466615D01*
X109129228Y-119466615D02*
X109014943Y-119409472D01*
X109014943Y-119409472D02*
X108957800Y-119352329D01*
X108957800Y-119352329D02*
X108900657Y-119238044D01*
X108900657Y-119238044D02*
X108900657Y-119123758D01*
X108900657Y-119123758D02*
X108957800Y-119009472D01*
X108957800Y-119009472D02*
X109014943Y-118952329D01*
X109014943Y-118952329D02*
X109129228Y-118895186D01*
X109129228Y-118895186D02*
X109414943Y-118895186D01*
X109414943Y-118895186D02*
X109586371Y-118952329D01*
X111643514Y-120095186D02*
X110957800Y-120095186D01*
X111300657Y-120095186D02*
X111300657Y-118895186D01*
X111300657Y-118895186D02*
X111186371Y-119066615D01*
X111186371Y-119066615D02*
X111072086Y-119180901D01*
X111072086Y-119180901D02*
X110957800Y-119238044D01*
X125036371Y-119466615D02*
X125207799Y-119523758D01*
X125207799Y-119523758D02*
X125264942Y-119580901D01*
X125264942Y-119580901D02*
X125322085Y-119695186D01*
X125322085Y-119695186D02*
X125322085Y-119866615D01*
X125322085Y-119866615D02*
X125264942Y-119980901D01*
X125264942Y-119980901D02*
X125207799Y-120038044D01*
X125207799Y-120038044D02*
X125093514Y-120095186D01*
X125093514Y-120095186D02*
X124636371Y-120095186D01*
X124636371Y-120095186D02*
X124636371Y-118895186D01*
X124636371Y-118895186D02*
X125036371Y-118895186D01*
X125036371Y-118895186D02*
X125150657Y-118952329D01*
X125150657Y-118952329D02*
X125207799Y-119009472D01*
X125207799Y-119009472D02*
X125264942Y-119123758D01*
X125264942Y-119123758D02*
X125264942Y-119238044D01*
X125264942Y-119238044D02*
X125207799Y-119352329D01*
X125207799Y-119352329D02*
X125150657Y-119409472D01*
X125150657Y-119409472D02*
X125036371Y-119466615D01*
X125036371Y-119466615D02*
X124636371Y-119466615D01*
X125836371Y-120095186D02*
X125836371Y-118895186D01*
X125836371Y-118895186D02*
X126236371Y-119752329D01*
X126236371Y-119752329D02*
X126636371Y-118895186D01*
X126636371Y-118895186D02*
X126636371Y-120095186D01*
X127150657Y-120038044D02*
X127322086Y-120095186D01*
X127322086Y-120095186D02*
X127607800Y-120095186D01*
X127607800Y-120095186D02*
X127722086Y-120038044D01*
X127722086Y-120038044D02*
X127779228Y-119980901D01*
X127779228Y-119980901D02*
X127836371Y-119866615D01*
X127836371Y-119866615D02*
X127836371Y-119752329D01*
X127836371Y-119752329D02*
X127779228Y-119638044D01*
X127779228Y-119638044D02*
X127722086Y-119580901D01*
X127722086Y-119580901D02*
X127607800Y-119523758D01*
X127607800Y-119523758D02*
X127379228Y-119466615D01*
X127379228Y-119466615D02*
X127264943Y-119409472D01*
X127264943Y-119409472D02*
X127207800Y-119352329D01*
X127207800Y-119352329D02*
X127150657Y-119238044D01*
X127150657Y-119238044D02*
X127150657Y-119123758D01*
X127150657Y-119123758D02*
X127207800Y-119009472D01*
X127207800Y-119009472D02*
X127264943Y-118952329D01*
X127264943Y-118952329D02*
X127379228Y-118895186D01*
X127379228Y-118895186D02*
X127664943Y-118895186D01*
X127664943Y-118895186D02*
X127836371Y-118952329D01*
X129207800Y-119009472D02*
X129264943Y-118952329D01*
X129264943Y-118952329D02*
X129379229Y-118895186D01*
X129379229Y-118895186D02*
X129664943Y-118895186D01*
X129664943Y-118895186D02*
X129779229Y-118952329D01*
X129779229Y-118952329D02*
X129836371Y-119009472D01*
X129836371Y-119009472D02*
X129893514Y-119123758D01*
X129893514Y-119123758D02*
X129893514Y-119238044D01*
X129893514Y-119238044D02*
X129836371Y-119409472D01*
X129836371Y-119409472D02*
X129150657Y-120095186D01*
X129150657Y-120095186D02*
X129893514Y-120095186D01*
X133095186Y-108613628D02*
X131895186Y-108613628D01*
X131895186Y-108613628D02*
X131895186Y-108156485D01*
X131895186Y-108156485D02*
X131952329Y-108042200D01*
X131952329Y-108042200D02*
X132009472Y-107985057D01*
X132009472Y-107985057D02*
X132123758Y-107927914D01*
X132123758Y-107927914D02*
X132295186Y-107927914D01*
X132295186Y-107927914D02*
X132409472Y-107985057D01*
X132409472Y-107985057D02*
X132466615Y-108042200D01*
X132466615Y-108042200D02*
X132523758Y-108156485D01*
X132523758Y-108156485D02*
X132523758Y-108613628D01*
X131895186Y-107527914D02*
X133095186Y-107242200D01*
X133095186Y-107242200D02*
X132238044Y-107013628D01*
X132238044Y-107013628D02*
X133095186Y-106785057D01*
X133095186Y-106785057D02*
X131895186Y-106499343D01*
X133095186Y-105356485D02*
X132523758Y-105756485D01*
X133095186Y-106042199D02*
X131895186Y-106042199D01*
X131895186Y-106042199D02*
X131895186Y-105585056D01*
X131895186Y-105585056D02*
X131952329Y-105470771D01*
X131952329Y-105470771D02*
X132009472Y-105413628D01*
X132009472Y-105413628D02*
X132123758Y-105356485D01*
X132123758Y-105356485D02*
X132295186Y-105356485D01*
X132295186Y-105356485D02*
X132409472Y-105413628D01*
X132409472Y-105413628D02*
X132466615Y-105470771D01*
X132466615Y-105470771D02*
X132523758Y-105585056D01*
X132523758Y-105585056D02*
X132523758Y-106042199D01*
D11*
X105549693Y-100958830D02*
X105549693Y-101026174D01*
X105549693Y-101026174D02*
X105482349Y-101160861D01*
X105482349Y-101160861D02*
X105415006Y-101228204D01*
X105415006Y-101228204D02*
X105280319Y-101295548D01*
X105280319Y-101295548D02*
X105145632Y-101295548D01*
X105145632Y-101295548D02*
X105044617Y-101261876D01*
X105044617Y-101261876D02*
X104876258Y-101160861D01*
X104876258Y-101160861D02*
X104775243Y-101059846D01*
X104775243Y-101059846D02*
X104674227Y-100891487D01*
X104674227Y-100891487D02*
X104640556Y-100790472D01*
X104640556Y-100790472D02*
X104640556Y-100655785D01*
X104640556Y-100655785D02*
X104707899Y-100521098D01*
X104707899Y-100521098D02*
X104775243Y-100453754D01*
X104775243Y-100453754D02*
X104909930Y-100386411D01*
X104909930Y-100386411D02*
X104977273Y-100386411D01*
X106290471Y-100352739D02*
X105886410Y-100756800D01*
X106088441Y-100554769D02*
X105381334Y-99847663D01*
X105381334Y-99847663D02*
X105415006Y-100016021D01*
X105415006Y-100016021D02*
X105415006Y-100150708D01*
X105415006Y-100150708D02*
X105381334Y-100251724D01*
X106290472Y-99544617D02*
X106189456Y-99578288D01*
X106189456Y-99578288D02*
X106122113Y-99578288D01*
X106122113Y-99578288D02*
X106021098Y-99544617D01*
X106021098Y-99544617D02*
X105987426Y-99510945D01*
X105987426Y-99510945D02*
X105953754Y-99409930D01*
X105953754Y-99409930D02*
X105953754Y-99342586D01*
X105953754Y-99342586D02*
X105987426Y-99241571D01*
X105987426Y-99241571D02*
X106122113Y-99106884D01*
X106122113Y-99106884D02*
X106223128Y-99073212D01*
X106223128Y-99073212D02*
X106290472Y-99073212D01*
X106290472Y-99073212D02*
X106391487Y-99106884D01*
X106391487Y-99106884D02*
X106425159Y-99140556D01*
X106425159Y-99140556D02*
X106458830Y-99241571D01*
X106458830Y-99241571D02*
X106458830Y-99308914D01*
X106458830Y-99308914D02*
X106425159Y-99409930D01*
X106425159Y-99409930D02*
X106290472Y-99544617D01*
X106290472Y-99544617D02*
X106256800Y-99645632D01*
X106256800Y-99645632D02*
X106256800Y-99712975D01*
X106256800Y-99712975D02*
X106290472Y-99813991D01*
X106290472Y-99813991D02*
X106425159Y-99948678D01*
X106425159Y-99948678D02*
X106526174Y-99982349D01*
X106526174Y-99982349D02*
X106593517Y-99982349D01*
X106593517Y-99982349D02*
X106694533Y-99948678D01*
X106694533Y-99948678D02*
X106829220Y-99813991D01*
X106829220Y-99813991D02*
X106862891Y-99712975D01*
X106862891Y-99712975D02*
X106862891Y-99645632D01*
X106862891Y-99645632D02*
X106829220Y-99544617D01*
X106829220Y-99544617D02*
X106694533Y-99409930D01*
X106694533Y-99409930D02*
X106593517Y-99376258D01*
X106593517Y-99376258D02*
X106526174Y-99376258D01*
X106526174Y-99376258D02*
X106425159Y-99409930D01*
X115511905Y-85204819D02*
X115511905Y-84204819D01*
X115511905Y-84204819D02*
X115750000Y-84204819D01*
X115750000Y-84204819D02*
X115892857Y-84252438D01*
X115892857Y-84252438D02*
X115988095Y-84347676D01*
X115988095Y-84347676D02*
X116035714Y-84442914D01*
X116035714Y-84442914D02*
X116083333Y-84633390D01*
X116083333Y-84633390D02*
X116083333Y-84776247D01*
X116083333Y-84776247D02*
X116035714Y-84966723D01*
X116035714Y-84966723D02*
X115988095Y-85061961D01*
X115988095Y-85061961D02*
X115892857Y-85157200D01*
X115892857Y-85157200D02*
X115750000Y-85204819D01*
X115750000Y-85204819D02*
X115511905Y-85204819D01*
X116988095Y-84204819D02*
X116511905Y-84204819D01*
X116511905Y-84204819D02*
X116464286Y-84681009D01*
X116464286Y-84681009D02*
X116511905Y-84633390D01*
X116511905Y-84633390D02*
X116607143Y-84585771D01*
X116607143Y-84585771D02*
X116845238Y-84585771D01*
X116845238Y-84585771D02*
X116940476Y-84633390D01*
X116940476Y-84633390D02*
X116988095Y-84681009D01*
X116988095Y-84681009D02*
X117035714Y-84776247D01*
X117035714Y-84776247D02*
X117035714Y-85014342D01*
X117035714Y-85014342D02*
X116988095Y-85109580D01*
X116988095Y-85109580D02*
X116940476Y-85157200D01*
X116940476Y-85157200D02*
X116845238Y-85204819D01*
X116845238Y-85204819D02*
X116607143Y-85204819D01*
X116607143Y-85204819D02*
X116511905Y-85157200D01*
X116511905Y-85157200D02*
X116464286Y-85109580D01*
X104884580Y-105392857D02*
X104932200Y-105440476D01*
X104932200Y-105440476D02*
X104979819Y-105583333D01*
X104979819Y-105583333D02*
X104979819Y-105678571D01*
X104979819Y-105678571D02*
X104932200Y-105821428D01*
X104932200Y-105821428D02*
X104836961Y-105916666D01*
X104836961Y-105916666D02*
X104741723Y-105964285D01*
X104741723Y-105964285D02*
X104551247Y-106011904D01*
X104551247Y-106011904D02*
X104408390Y-106011904D01*
X104408390Y-106011904D02*
X104217914Y-105964285D01*
X104217914Y-105964285D02*
X104122676Y-105916666D01*
X104122676Y-105916666D02*
X104027438Y-105821428D01*
X104027438Y-105821428D02*
X103979819Y-105678571D01*
X103979819Y-105678571D02*
X103979819Y-105583333D01*
X103979819Y-105583333D02*
X104027438Y-105440476D01*
X104027438Y-105440476D02*
X104075057Y-105392857D01*
X104075057Y-105011904D02*
X104027438Y-104964285D01*
X104027438Y-104964285D02*
X103979819Y-104869047D01*
X103979819Y-104869047D02*
X103979819Y-104630952D01*
X103979819Y-104630952D02*
X104027438Y-104535714D01*
X104027438Y-104535714D02*
X104075057Y-104488095D01*
X104075057Y-104488095D02*
X104170295Y-104440476D01*
X104170295Y-104440476D02*
X104265533Y-104440476D01*
X104265533Y-104440476D02*
X104408390Y-104488095D01*
X104408390Y-104488095D02*
X104979819Y-105059523D01*
X104979819Y-105059523D02*
X104979819Y-104440476D01*
X104075057Y-104059523D02*
X104027438Y-104011904D01*
X104027438Y-104011904D02*
X103979819Y-103916666D01*
X103979819Y-103916666D02*
X103979819Y-103678571D01*
X103979819Y-103678571D02*
X104027438Y-103583333D01*
X104027438Y-103583333D02*
X104075057Y-103535714D01*
X104075057Y-103535714D02*
X104170295Y-103488095D01*
X104170295Y-103488095D02*
X104265533Y-103488095D01*
X104265533Y-103488095D02*
X104408390Y-103535714D01*
X104408390Y-103535714D02*
X104979819Y-104107142D01*
X104979819Y-104107142D02*
X104979819Y-103488095D01*
X131405333Y-97736819D02*
X131072000Y-97260628D01*
X130833905Y-97736819D02*
X130833905Y-96736819D01*
X130833905Y-96736819D02*
X131214857Y-96736819D01*
X131214857Y-96736819D02*
X131310095Y-96784438D01*
X131310095Y-96784438D02*
X131357714Y-96832057D01*
X131357714Y-96832057D02*
X131405333Y-96927295D01*
X131405333Y-96927295D02*
X131405333Y-97070152D01*
X131405333Y-97070152D02*
X131357714Y-97165390D01*
X131357714Y-97165390D02*
X131310095Y-97213009D01*
X131310095Y-97213009D02*
X131214857Y-97260628D01*
X131214857Y-97260628D02*
X130833905Y-97260628D01*
X131738667Y-96736819D02*
X132405333Y-96736819D01*
X132405333Y-96736819D02*
X131976762Y-97736819D01*
X106261905Y-105704819D02*
X106261905Y-104704819D01*
X106261905Y-104704819D02*
X106500000Y-104704819D01*
X106500000Y-104704819D02*
X106642857Y-104752438D01*
X106642857Y-104752438D02*
X106738095Y-104847676D01*
X106738095Y-104847676D02*
X106785714Y-104942914D01*
X106785714Y-104942914D02*
X106833333Y-105133390D01*
X106833333Y-105133390D02*
X106833333Y-105276247D01*
X106833333Y-105276247D02*
X106785714Y-105466723D01*
X106785714Y-105466723D02*
X106738095Y-105561961D01*
X106738095Y-105561961D02*
X106642857Y-105657200D01*
X106642857Y-105657200D02*
X106500000Y-105704819D01*
X106500000Y-105704819D02*
X106261905Y-105704819D01*
X107166667Y-104704819D02*
X107785714Y-104704819D01*
X107785714Y-104704819D02*
X107452381Y-105085771D01*
X107452381Y-105085771D02*
X107595238Y-105085771D01*
X107595238Y-105085771D02*
X107690476Y-105133390D01*
X107690476Y-105133390D02*
X107738095Y-105181009D01*
X107738095Y-105181009D02*
X107785714Y-105276247D01*
X107785714Y-105276247D02*
X107785714Y-105514342D01*
X107785714Y-105514342D02*
X107738095Y-105609580D01*
X107738095Y-105609580D02*
X107690476Y-105657200D01*
X107690476Y-105657200D02*
X107595238Y-105704819D01*
X107595238Y-105704819D02*
X107309524Y-105704819D01*
X107309524Y-105704819D02*
X107214286Y-105657200D01*
X107214286Y-105657200D02*
X107166667Y-105609580D01*
X118564819Y-119546666D02*
X118088628Y-119879999D01*
X118564819Y-120118094D02*
X117564819Y-120118094D01*
X117564819Y-120118094D02*
X117564819Y-119737142D01*
X117564819Y-119737142D02*
X117612438Y-119641904D01*
X117612438Y-119641904D02*
X117660057Y-119594285D01*
X117660057Y-119594285D02*
X117755295Y-119546666D01*
X117755295Y-119546666D02*
X117898152Y-119546666D01*
X117898152Y-119546666D02*
X117993390Y-119594285D01*
X117993390Y-119594285D02*
X118041009Y-119641904D01*
X118041009Y-119641904D02*
X118088628Y-119737142D01*
X118088628Y-119737142D02*
X118088628Y-120118094D01*
X117564819Y-118641904D02*
X117564819Y-119118094D01*
X117564819Y-119118094D02*
X118041009Y-119165713D01*
X118041009Y-119165713D02*
X117993390Y-119118094D01*
X117993390Y-119118094D02*
X117945771Y-119022856D01*
X117945771Y-119022856D02*
X117945771Y-118784761D01*
X117945771Y-118784761D02*
X117993390Y-118689523D01*
X117993390Y-118689523D02*
X118041009Y-118641904D01*
X118041009Y-118641904D02*
X118136247Y-118594285D01*
X118136247Y-118594285D02*
X118374342Y-118594285D01*
X118374342Y-118594285D02*
X118469580Y-118641904D01*
X118469580Y-118641904D02*
X118517200Y-118689523D01*
X118517200Y-118689523D02*
X118564819Y-118784761D01*
X118564819Y-118784761D02*
X118564819Y-119022856D01*
X118564819Y-119022856D02*
X118517200Y-119118094D01*
X118517200Y-119118094D02*
X118469580Y-119165713D01*
X110549693Y-96208830D02*
X110549693Y-96276174D01*
X110549693Y-96276174D02*
X110482349Y-96410861D01*
X110482349Y-96410861D02*
X110415006Y-96478204D01*
X110415006Y-96478204D02*
X110280319Y-96545548D01*
X110280319Y-96545548D02*
X110145632Y-96545548D01*
X110145632Y-96545548D02*
X110044617Y-96511876D01*
X110044617Y-96511876D02*
X109876258Y-96410861D01*
X109876258Y-96410861D02*
X109775243Y-96309846D01*
X109775243Y-96309846D02*
X109674227Y-96141487D01*
X109674227Y-96141487D02*
X109640556Y-96040472D01*
X109640556Y-96040472D02*
X109640556Y-95905785D01*
X109640556Y-95905785D02*
X109707899Y-95771098D01*
X109707899Y-95771098D02*
X109775243Y-95703754D01*
X109775243Y-95703754D02*
X109909930Y-95636411D01*
X109909930Y-95636411D02*
X109977273Y-95636411D01*
X111290471Y-95602739D02*
X110886410Y-96006800D01*
X111088441Y-95804769D02*
X110381334Y-95097663D01*
X110381334Y-95097663D02*
X110415006Y-95266021D01*
X110415006Y-95266021D02*
X110415006Y-95400708D01*
X110415006Y-95400708D02*
X110381334Y-95501724D01*
X110819067Y-94659930D02*
X111256800Y-94222197D01*
X111256800Y-94222197D02*
X111290472Y-94727273D01*
X111290472Y-94727273D02*
X111391487Y-94626258D01*
X111391487Y-94626258D02*
X111492502Y-94592586D01*
X111492502Y-94592586D02*
X111559846Y-94592586D01*
X111559846Y-94592586D02*
X111660861Y-94626258D01*
X111660861Y-94626258D02*
X111829220Y-94794617D01*
X111829220Y-94794617D02*
X111862891Y-94895632D01*
X111862891Y-94895632D02*
X111862891Y-94962975D01*
X111862891Y-94962975D02*
X111829220Y-95063991D01*
X111829220Y-95063991D02*
X111627189Y-95266021D01*
X111627189Y-95266021D02*
X111526174Y-95299693D01*
X111526174Y-95299693D02*
X111458830Y-95299693D01*
X98038530Y-84197667D02*
X98038530Y-84265011D01*
X98038530Y-84265011D02*
X97971186Y-84399698D01*
X97971186Y-84399698D02*
X97903843Y-84467041D01*
X97903843Y-84467041D02*
X97769156Y-84534385D01*
X97769156Y-84534385D02*
X97634469Y-84534385D01*
X97634469Y-84534385D02*
X97533454Y-84500713D01*
X97533454Y-84500713D02*
X97365095Y-84399698D01*
X97365095Y-84399698D02*
X97264080Y-84298683D01*
X97264080Y-84298683D02*
X97163064Y-84130324D01*
X97163064Y-84130324D02*
X97129393Y-84029309D01*
X97129393Y-84029309D02*
X97129393Y-83894622D01*
X97129393Y-83894622D02*
X97196736Y-83759935D01*
X97196736Y-83759935D02*
X97264080Y-83692591D01*
X97264080Y-83692591D02*
X97398767Y-83625248D01*
X97398767Y-83625248D02*
X97466110Y-83625248D01*
X98779308Y-83591576D02*
X98375247Y-83995637D01*
X98577278Y-83793606D02*
X97870171Y-83086500D01*
X97870171Y-83086500D02*
X97903843Y-83254858D01*
X97903843Y-83254858D02*
X97903843Y-83389545D01*
X97903843Y-83389545D02*
X97870171Y-83490561D01*
X98307904Y-82648767D02*
X98779309Y-82177362D01*
X98779309Y-82177362D02*
X99183370Y-83187515D01*
X115421580Y-116930466D02*
X115469200Y-116978085D01*
X115469200Y-116978085D02*
X115516819Y-117120942D01*
X115516819Y-117120942D02*
X115516819Y-117216180D01*
X115516819Y-117216180D02*
X115469200Y-117359037D01*
X115469200Y-117359037D02*
X115373961Y-117454275D01*
X115373961Y-117454275D02*
X115278723Y-117501894D01*
X115278723Y-117501894D02*
X115088247Y-117549513D01*
X115088247Y-117549513D02*
X114945390Y-117549513D01*
X114945390Y-117549513D02*
X114754914Y-117501894D01*
X114754914Y-117501894D02*
X114659676Y-117454275D01*
X114659676Y-117454275D02*
X114564438Y-117359037D01*
X114564438Y-117359037D02*
X114516819Y-117216180D01*
X114516819Y-117216180D02*
X114516819Y-117120942D01*
X114516819Y-117120942D02*
X114564438Y-116978085D01*
X114564438Y-116978085D02*
X114612057Y-116930466D01*
X115516819Y-116454275D02*
X115516819Y-116263799D01*
X115516819Y-116263799D02*
X115469200Y-116168561D01*
X115469200Y-116168561D02*
X115421580Y-116120942D01*
X115421580Y-116120942D02*
X115278723Y-116025704D01*
X115278723Y-116025704D02*
X115088247Y-115978085D01*
X115088247Y-115978085D02*
X114707295Y-115978085D01*
X114707295Y-115978085D02*
X114612057Y-116025704D01*
X114612057Y-116025704D02*
X114564438Y-116073323D01*
X114564438Y-116073323D02*
X114516819Y-116168561D01*
X114516819Y-116168561D02*
X114516819Y-116359037D01*
X114516819Y-116359037D02*
X114564438Y-116454275D01*
X114564438Y-116454275D02*
X114612057Y-116501894D01*
X114612057Y-116501894D02*
X114707295Y-116549513D01*
X114707295Y-116549513D02*
X114945390Y-116549513D01*
X114945390Y-116549513D02*
X115040628Y-116501894D01*
X115040628Y-116501894D02*
X115088247Y-116454275D01*
X115088247Y-116454275D02*
X115135866Y-116359037D01*
X115135866Y-116359037D02*
X115135866Y-116168561D01*
X115135866Y-116168561D02*
X115088247Y-116073323D01*
X115088247Y-116073323D02*
X115040628Y-116025704D01*
X115040628Y-116025704D02*
X114945390Y-115978085D01*
X114323905Y-110690819D02*
X114323905Y-109690819D01*
X114323905Y-109690819D02*
X114562000Y-109690819D01*
X114562000Y-109690819D02*
X114704857Y-109738438D01*
X114704857Y-109738438D02*
X114800095Y-109833676D01*
X114800095Y-109833676D02*
X114847714Y-109928914D01*
X114847714Y-109928914D02*
X114895333Y-110119390D01*
X114895333Y-110119390D02*
X114895333Y-110262247D01*
X114895333Y-110262247D02*
X114847714Y-110452723D01*
X114847714Y-110452723D02*
X114800095Y-110547961D01*
X114800095Y-110547961D02*
X114704857Y-110643200D01*
X114704857Y-110643200D02*
X114562000Y-110690819D01*
X114562000Y-110690819D02*
X114323905Y-110690819D01*
X115276286Y-109786057D02*
X115323905Y-109738438D01*
X115323905Y-109738438D02*
X115419143Y-109690819D01*
X115419143Y-109690819D02*
X115657238Y-109690819D01*
X115657238Y-109690819D02*
X115752476Y-109738438D01*
X115752476Y-109738438D02*
X115800095Y-109786057D01*
X115800095Y-109786057D02*
X115847714Y-109881295D01*
X115847714Y-109881295D02*
X115847714Y-109976533D01*
X115847714Y-109976533D02*
X115800095Y-110119390D01*
X115800095Y-110119390D02*
X115228667Y-110690819D01*
X115228667Y-110690819D02*
X115847714Y-110690819D01*
X124531333Y-96728819D02*
X124198000Y-96252628D01*
X123959905Y-96728819D02*
X123959905Y-95728819D01*
X123959905Y-95728819D02*
X124340857Y-95728819D01*
X124340857Y-95728819D02*
X124436095Y-95776438D01*
X124436095Y-95776438D02*
X124483714Y-95824057D01*
X124483714Y-95824057D02*
X124531333Y-95919295D01*
X124531333Y-95919295D02*
X124531333Y-96062152D01*
X124531333Y-96062152D02*
X124483714Y-96157390D01*
X124483714Y-96157390D02*
X124436095Y-96205009D01*
X124436095Y-96205009D02*
X124340857Y-96252628D01*
X124340857Y-96252628D02*
X123959905Y-96252628D01*
X124864667Y-95728819D02*
X125483714Y-95728819D01*
X125483714Y-95728819D02*
X125150381Y-96109771D01*
X125150381Y-96109771D02*
X125293238Y-96109771D01*
X125293238Y-96109771D02*
X125388476Y-96157390D01*
X125388476Y-96157390D02*
X125436095Y-96205009D01*
X125436095Y-96205009D02*
X125483714Y-96300247D01*
X125483714Y-96300247D02*
X125483714Y-96538342D01*
X125483714Y-96538342D02*
X125436095Y-96633580D01*
X125436095Y-96633580D02*
X125388476Y-96681200D01*
X125388476Y-96681200D02*
X125293238Y-96728819D01*
X125293238Y-96728819D02*
X125007524Y-96728819D01*
X125007524Y-96728819D02*
X124912286Y-96681200D01*
X124912286Y-96681200D02*
X124864667Y-96633580D01*
X106954819Y-79916666D02*
X106478628Y-80249999D01*
X106954819Y-80488094D02*
X105954819Y-80488094D01*
X105954819Y-80488094D02*
X105954819Y-80107142D01*
X105954819Y-80107142D02*
X106002438Y-80011904D01*
X106002438Y-80011904D02*
X106050057Y-79964285D01*
X106050057Y-79964285D02*
X106145295Y-79916666D01*
X106145295Y-79916666D02*
X106288152Y-79916666D01*
X106288152Y-79916666D02*
X106383390Y-79964285D01*
X106383390Y-79964285D02*
X106431009Y-80011904D01*
X106431009Y-80011904D02*
X106478628Y-80107142D01*
X106478628Y-80107142D02*
X106478628Y-80488094D01*
X106954819Y-79440475D02*
X106954819Y-79249999D01*
X106954819Y-79249999D02*
X106907200Y-79154761D01*
X106907200Y-79154761D02*
X106859580Y-79107142D01*
X106859580Y-79107142D02*
X106716723Y-79011904D01*
X106716723Y-79011904D02*
X106526247Y-78964285D01*
X106526247Y-78964285D02*
X106145295Y-78964285D01*
X106145295Y-78964285D02*
X106050057Y-79011904D01*
X106050057Y-79011904D02*
X106002438Y-79059523D01*
X106002438Y-79059523D02*
X105954819Y-79154761D01*
X105954819Y-79154761D02*
X105954819Y-79345237D01*
X105954819Y-79345237D02*
X106002438Y-79440475D01*
X106002438Y-79440475D02*
X106050057Y-79488094D01*
X106050057Y-79488094D02*
X106145295Y-79535713D01*
X106145295Y-79535713D02*
X106383390Y-79535713D01*
X106383390Y-79535713D02*
X106478628Y-79488094D01*
X106478628Y-79488094D02*
X106526247Y-79440475D01*
X106526247Y-79440475D02*
X106573866Y-79345237D01*
X106573866Y-79345237D02*
X106573866Y-79154761D01*
X106573866Y-79154761D02*
X106526247Y-79059523D01*
X106526247Y-79059523D02*
X106478628Y-79011904D01*
X106478628Y-79011904D02*
X106383390Y-78964285D01*
X96619047Y-74431009D02*
X96761904Y-74478628D01*
X96761904Y-74478628D02*
X96809523Y-74526247D01*
X96809523Y-74526247D02*
X96857142Y-74621485D01*
X96857142Y-74621485D02*
X96857142Y-74764342D01*
X96857142Y-74764342D02*
X96809523Y-74859580D01*
X96809523Y-74859580D02*
X96761904Y-74907200D01*
X96761904Y-74907200D02*
X96666666Y-74954819D01*
X96666666Y-74954819D02*
X96285714Y-74954819D01*
X96285714Y-74954819D02*
X96285714Y-73954819D01*
X96285714Y-73954819D02*
X96619047Y-73954819D01*
X96619047Y-73954819D02*
X96714285Y-74002438D01*
X96714285Y-74002438D02*
X96761904Y-74050057D01*
X96761904Y-74050057D02*
X96809523Y-74145295D01*
X96809523Y-74145295D02*
X96809523Y-74240533D01*
X96809523Y-74240533D02*
X96761904Y-74335771D01*
X96761904Y-74335771D02*
X96714285Y-74383390D01*
X96714285Y-74383390D02*
X96619047Y-74431009D01*
X96619047Y-74431009D02*
X96285714Y-74431009D01*
X97190476Y-73954819D02*
X97857142Y-73954819D01*
X97857142Y-73954819D02*
X97190476Y-74954819D01*
X97190476Y-74954819D02*
X97857142Y-74954819D01*
X98761904Y-74954819D02*
X98190476Y-74954819D01*
X98476190Y-74954819D02*
X98476190Y-73954819D01*
X98476190Y-73954819D02*
X98380952Y-74097676D01*
X98380952Y-74097676D02*
X98285714Y-74192914D01*
X98285714Y-74192914D02*
X98190476Y-74240533D01*
X94429048Y-81363866D02*
X95190953Y-81363866D01*
X94810000Y-81744819D02*
X94810000Y-80982914D01*
X106600666Y-107627009D02*
X106267333Y-107627009D01*
X106267333Y-108150819D02*
X106267333Y-107150819D01*
X106267333Y-107150819D02*
X106743523Y-107150819D01*
X107648285Y-108150819D02*
X107076857Y-108150819D01*
X107362571Y-108150819D02*
X107362571Y-107150819D01*
X107362571Y-107150819D02*
X107267333Y-107293676D01*
X107267333Y-107293676D02*
X107172095Y-107388914D01*
X107172095Y-107388914D02*
X107076857Y-107436533D01*
X116657333Y-96728819D02*
X116324000Y-96252628D01*
X116085905Y-96728819D02*
X116085905Y-95728819D01*
X116085905Y-95728819D02*
X116466857Y-95728819D01*
X116466857Y-95728819D02*
X116562095Y-95776438D01*
X116562095Y-95776438D02*
X116609714Y-95824057D01*
X116609714Y-95824057D02*
X116657333Y-95919295D01*
X116657333Y-95919295D02*
X116657333Y-96062152D01*
X116657333Y-96062152D02*
X116609714Y-96157390D01*
X116609714Y-96157390D02*
X116562095Y-96205009D01*
X116562095Y-96205009D02*
X116466857Y-96252628D01*
X116466857Y-96252628D02*
X116085905Y-96252628D01*
X117609714Y-96728819D02*
X117038286Y-96728819D01*
X117324000Y-96728819D02*
X117324000Y-95728819D01*
X117324000Y-95728819D02*
X117228762Y-95871676D01*
X117228762Y-95871676D02*
X117133524Y-95966914D01*
X117133524Y-95966914D02*
X117038286Y-96014533D01*
X118451333Y-105769580D02*
X118403714Y-105817200D01*
X118403714Y-105817200D02*
X118260857Y-105864819D01*
X118260857Y-105864819D02*
X118165619Y-105864819D01*
X118165619Y-105864819D02*
X118022762Y-105817200D01*
X118022762Y-105817200D02*
X117927524Y-105721961D01*
X117927524Y-105721961D02*
X117879905Y-105626723D01*
X117879905Y-105626723D02*
X117832286Y-105436247D01*
X117832286Y-105436247D02*
X117832286Y-105293390D01*
X117832286Y-105293390D02*
X117879905Y-105102914D01*
X117879905Y-105102914D02*
X117927524Y-105007676D01*
X117927524Y-105007676D02*
X118022762Y-104912438D01*
X118022762Y-104912438D02*
X118165619Y-104864819D01*
X118165619Y-104864819D02*
X118260857Y-104864819D01*
X118260857Y-104864819D02*
X118403714Y-104912438D01*
X118403714Y-104912438D02*
X118451333Y-104960057D01*
X118832286Y-104960057D02*
X118879905Y-104912438D01*
X118879905Y-104912438D02*
X118975143Y-104864819D01*
X118975143Y-104864819D02*
X119213238Y-104864819D01*
X119213238Y-104864819D02*
X119308476Y-104912438D01*
X119308476Y-104912438D02*
X119356095Y-104960057D01*
X119356095Y-104960057D02*
X119403714Y-105055295D01*
X119403714Y-105055295D02*
X119403714Y-105150533D01*
X119403714Y-105150533D02*
X119356095Y-105293390D01*
X119356095Y-105293390D02*
X118784667Y-105864819D01*
X118784667Y-105864819D02*
X119403714Y-105864819D01*
X98284819Y-96266666D02*
X97808628Y-96599999D01*
X98284819Y-96838094D02*
X97284819Y-96838094D01*
X97284819Y-96838094D02*
X97284819Y-96457142D01*
X97284819Y-96457142D02*
X97332438Y-96361904D01*
X97332438Y-96361904D02*
X97380057Y-96314285D01*
X97380057Y-96314285D02*
X97475295Y-96266666D01*
X97475295Y-96266666D02*
X97618152Y-96266666D01*
X97618152Y-96266666D02*
X97713390Y-96314285D01*
X97713390Y-96314285D02*
X97761009Y-96361904D01*
X97761009Y-96361904D02*
X97808628Y-96457142D01*
X97808628Y-96457142D02*
X97808628Y-96838094D01*
X97713390Y-95695237D02*
X97665771Y-95790475D01*
X97665771Y-95790475D02*
X97618152Y-95838094D01*
X97618152Y-95838094D02*
X97522914Y-95885713D01*
X97522914Y-95885713D02*
X97475295Y-95885713D01*
X97475295Y-95885713D02*
X97380057Y-95838094D01*
X97380057Y-95838094D02*
X97332438Y-95790475D01*
X97332438Y-95790475D02*
X97284819Y-95695237D01*
X97284819Y-95695237D02*
X97284819Y-95504761D01*
X97284819Y-95504761D02*
X97332438Y-95409523D01*
X97332438Y-95409523D02*
X97380057Y-95361904D01*
X97380057Y-95361904D02*
X97475295Y-95314285D01*
X97475295Y-95314285D02*
X97522914Y-95314285D01*
X97522914Y-95314285D02*
X97618152Y-95361904D01*
X97618152Y-95361904D02*
X97665771Y-95409523D01*
X97665771Y-95409523D02*
X97713390Y-95504761D01*
X97713390Y-95504761D02*
X97713390Y-95695237D01*
X97713390Y-95695237D02*
X97761009Y-95790475D01*
X97761009Y-95790475D02*
X97808628Y-95838094D01*
X97808628Y-95838094D02*
X97903866Y-95885713D01*
X97903866Y-95885713D02*
X98094342Y-95885713D01*
X98094342Y-95885713D02*
X98189580Y-95838094D01*
X98189580Y-95838094D02*
X98237200Y-95790475D01*
X98237200Y-95790475D02*
X98284819Y-95695237D01*
X98284819Y-95695237D02*
X98284819Y-95504761D01*
X98284819Y-95504761D02*
X98237200Y-95409523D01*
X98237200Y-95409523D02*
X98189580Y-95361904D01*
X98189580Y-95361904D02*
X98094342Y-95314285D01*
X98094342Y-95314285D02*
X97903866Y-95314285D01*
X97903866Y-95314285D02*
X97808628Y-95361904D01*
X97808628Y-95361904D02*
X97761009Y-95409523D01*
X97761009Y-95409523D02*
X97713390Y-95504761D01*
X85416666Y-83954819D02*
X85416666Y-84669104D01*
X85416666Y-84669104D02*
X85369047Y-84811961D01*
X85369047Y-84811961D02*
X85273809Y-84907200D01*
X85273809Y-84907200D02*
X85130952Y-84954819D01*
X85130952Y-84954819D02*
X85035714Y-84954819D01*
X85797619Y-83954819D02*
X86416666Y-83954819D01*
X86416666Y-83954819D02*
X86083333Y-84335771D01*
X86083333Y-84335771D02*
X86226190Y-84335771D01*
X86226190Y-84335771D02*
X86321428Y-84383390D01*
X86321428Y-84383390D02*
X86369047Y-84431009D01*
X86369047Y-84431009D02*
X86416666Y-84526247D01*
X86416666Y-84526247D02*
X86416666Y-84764342D01*
X86416666Y-84764342D02*
X86369047Y-84859580D01*
X86369047Y-84859580D02*
X86321428Y-84907200D01*
X86321428Y-84907200D02*
X86226190Y-84954819D01*
X86226190Y-84954819D02*
X85940476Y-84954819D01*
X85940476Y-84954819D02*
X85845238Y-84907200D01*
X85845238Y-84907200D02*
X85797619Y-84859580D01*
X105179905Y-114246819D02*
X105179905Y-113246819D01*
X105179905Y-113246819D02*
X105418000Y-113246819D01*
X105418000Y-113246819D02*
X105560857Y-113294438D01*
X105560857Y-113294438D02*
X105656095Y-113389676D01*
X105656095Y-113389676D02*
X105703714Y-113484914D01*
X105703714Y-113484914D02*
X105751333Y-113675390D01*
X105751333Y-113675390D02*
X105751333Y-113818247D01*
X105751333Y-113818247D02*
X105703714Y-114008723D01*
X105703714Y-114008723D02*
X105656095Y-114103961D01*
X105656095Y-114103961D02*
X105560857Y-114199200D01*
X105560857Y-114199200D02*
X105418000Y-114246819D01*
X105418000Y-114246819D02*
X105179905Y-114246819D01*
X106703714Y-114246819D02*
X106132286Y-114246819D01*
X106418000Y-114246819D02*
X106418000Y-113246819D01*
X106418000Y-113246819D02*
X106322762Y-113389676D01*
X106322762Y-113389676D02*
X106227524Y-113484914D01*
X106227524Y-113484914D02*
X106132286Y-113532533D01*
X114954819Y-80488094D02*
X113954819Y-80488094D01*
X113954819Y-80488094D02*
X113954819Y-80249999D01*
X113954819Y-80249999D02*
X114002438Y-80107142D01*
X114002438Y-80107142D02*
X114097676Y-80011904D01*
X114097676Y-80011904D02*
X114192914Y-79964285D01*
X114192914Y-79964285D02*
X114383390Y-79916666D01*
X114383390Y-79916666D02*
X114526247Y-79916666D01*
X114526247Y-79916666D02*
X114716723Y-79964285D01*
X114716723Y-79964285D02*
X114811961Y-80011904D01*
X114811961Y-80011904D02*
X114907200Y-80107142D01*
X114907200Y-80107142D02*
X114954819Y-80249999D01*
X114954819Y-80249999D02*
X114954819Y-80488094D01*
X114383390Y-79345237D02*
X114335771Y-79440475D01*
X114335771Y-79440475D02*
X114288152Y-79488094D01*
X114288152Y-79488094D02*
X114192914Y-79535713D01*
X114192914Y-79535713D02*
X114145295Y-79535713D01*
X114145295Y-79535713D02*
X114050057Y-79488094D01*
X114050057Y-79488094D02*
X114002438Y-79440475D01*
X114002438Y-79440475D02*
X113954819Y-79345237D01*
X113954819Y-79345237D02*
X113954819Y-79154761D01*
X113954819Y-79154761D02*
X114002438Y-79059523D01*
X114002438Y-79059523D02*
X114050057Y-79011904D01*
X114050057Y-79011904D02*
X114145295Y-78964285D01*
X114145295Y-78964285D02*
X114192914Y-78964285D01*
X114192914Y-78964285D02*
X114288152Y-79011904D01*
X114288152Y-79011904D02*
X114335771Y-79059523D01*
X114335771Y-79059523D02*
X114383390Y-79154761D01*
X114383390Y-79154761D02*
X114383390Y-79345237D01*
X114383390Y-79345237D02*
X114431009Y-79440475D01*
X114431009Y-79440475D02*
X114478628Y-79488094D01*
X114478628Y-79488094D02*
X114573866Y-79535713D01*
X114573866Y-79535713D02*
X114764342Y-79535713D01*
X114764342Y-79535713D02*
X114859580Y-79488094D01*
X114859580Y-79488094D02*
X114907200Y-79440475D01*
X114907200Y-79440475D02*
X114954819Y-79345237D01*
X114954819Y-79345237D02*
X114954819Y-79154761D01*
X114954819Y-79154761D02*
X114907200Y-79059523D01*
X114907200Y-79059523D02*
X114859580Y-79011904D01*
X114859580Y-79011904D02*
X114764342Y-78964285D01*
X114764342Y-78964285D02*
X114573866Y-78964285D01*
X114573866Y-78964285D02*
X114478628Y-79011904D01*
X114478628Y-79011904D02*
X114431009Y-79059523D01*
X114431009Y-79059523D02*
X114383390Y-79154761D01*
X102488095Y-109204819D02*
X102488095Y-110014342D01*
X102488095Y-110014342D02*
X102535714Y-110109580D01*
X102535714Y-110109580D02*
X102583333Y-110157200D01*
X102583333Y-110157200D02*
X102678571Y-110204819D01*
X102678571Y-110204819D02*
X102869047Y-110204819D01*
X102869047Y-110204819D02*
X102964285Y-110157200D01*
X102964285Y-110157200D02*
X103011904Y-110109580D01*
X103011904Y-110109580D02*
X103059523Y-110014342D01*
X103059523Y-110014342D02*
X103059523Y-109204819D01*
X103440476Y-109204819D02*
X104107142Y-109204819D01*
X104107142Y-109204819D02*
X103678571Y-110204819D01*
X113454819Y-79892857D02*
X112978628Y-80226190D01*
X113454819Y-80464285D02*
X112454819Y-80464285D01*
X112454819Y-80464285D02*
X112454819Y-80083333D01*
X112454819Y-80083333D02*
X112502438Y-79988095D01*
X112502438Y-79988095D02*
X112550057Y-79940476D01*
X112550057Y-79940476D02*
X112645295Y-79892857D01*
X112645295Y-79892857D02*
X112788152Y-79892857D01*
X112788152Y-79892857D02*
X112883390Y-79940476D01*
X112883390Y-79940476D02*
X112931009Y-79988095D01*
X112931009Y-79988095D02*
X112978628Y-80083333D01*
X112978628Y-80083333D02*
X112978628Y-80464285D01*
X113454819Y-78940476D02*
X113454819Y-79511904D01*
X113454819Y-79226190D02*
X112454819Y-79226190D01*
X112454819Y-79226190D02*
X112597676Y-79321428D01*
X112597676Y-79321428D02*
X112692914Y-79416666D01*
X112692914Y-79416666D02*
X112740533Y-79511904D01*
X113454819Y-77988095D02*
X113454819Y-78559523D01*
X113454819Y-78273809D02*
X112454819Y-78273809D01*
X112454819Y-78273809D02*
X112597676Y-78369047D01*
X112597676Y-78369047D02*
X112692914Y-78464285D01*
X112692914Y-78464285D02*
X112740533Y-78559523D01*
X108454819Y-80488094D02*
X107454819Y-80488094D01*
X107454819Y-80488094D02*
X107454819Y-80249999D01*
X107454819Y-80249999D02*
X107502438Y-80107142D01*
X107502438Y-80107142D02*
X107597676Y-80011904D01*
X107597676Y-80011904D02*
X107692914Y-79964285D01*
X107692914Y-79964285D02*
X107883390Y-79916666D01*
X107883390Y-79916666D02*
X108026247Y-79916666D01*
X108026247Y-79916666D02*
X108216723Y-79964285D01*
X108216723Y-79964285D02*
X108311961Y-80011904D01*
X108311961Y-80011904D02*
X108407200Y-80107142D01*
X108407200Y-80107142D02*
X108454819Y-80249999D01*
X108454819Y-80249999D02*
X108454819Y-80488094D01*
X107454819Y-79059523D02*
X107454819Y-79249999D01*
X107454819Y-79249999D02*
X107502438Y-79345237D01*
X107502438Y-79345237D02*
X107550057Y-79392856D01*
X107550057Y-79392856D02*
X107692914Y-79488094D01*
X107692914Y-79488094D02*
X107883390Y-79535713D01*
X107883390Y-79535713D02*
X108264342Y-79535713D01*
X108264342Y-79535713D02*
X108359580Y-79488094D01*
X108359580Y-79488094D02*
X108407200Y-79440475D01*
X108407200Y-79440475D02*
X108454819Y-79345237D01*
X108454819Y-79345237D02*
X108454819Y-79154761D01*
X108454819Y-79154761D02*
X108407200Y-79059523D01*
X108407200Y-79059523D02*
X108359580Y-79011904D01*
X108359580Y-79011904D02*
X108264342Y-78964285D01*
X108264342Y-78964285D02*
X108026247Y-78964285D01*
X108026247Y-78964285D02*
X107931009Y-79011904D01*
X107931009Y-79011904D02*
X107883390Y-79059523D01*
X107883390Y-79059523D02*
X107835771Y-79154761D01*
X107835771Y-79154761D02*
X107835771Y-79345237D01*
X107835771Y-79345237D02*
X107883390Y-79440475D01*
X107883390Y-79440475D02*
X107931009Y-79488094D01*
X107931009Y-79488094D02*
X108026247Y-79535713D01*
X127833333Y-96728819D02*
X127500000Y-96252628D01*
X127261905Y-96728819D02*
X127261905Y-95728819D01*
X127261905Y-95728819D02*
X127642857Y-95728819D01*
X127642857Y-95728819D02*
X127738095Y-95776438D01*
X127738095Y-95776438D02*
X127785714Y-95824057D01*
X127785714Y-95824057D02*
X127833333Y-95919295D01*
X127833333Y-95919295D02*
X127833333Y-96062152D01*
X127833333Y-96062152D02*
X127785714Y-96157390D01*
X127785714Y-96157390D02*
X127738095Y-96205009D01*
X127738095Y-96205009D02*
X127642857Y-96252628D01*
X127642857Y-96252628D02*
X127261905Y-96252628D01*
X128690476Y-96062152D02*
X128690476Y-96728819D01*
X128452381Y-95681200D02*
X128214286Y-96395485D01*
X128214286Y-96395485D02*
X128833333Y-96395485D01*
X121753333Y-117707580D02*
X121705714Y-117755200D01*
X121705714Y-117755200D02*
X121562857Y-117802819D01*
X121562857Y-117802819D02*
X121467619Y-117802819D01*
X121467619Y-117802819D02*
X121324762Y-117755200D01*
X121324762Y-117755200D02*
X121229524Y-117659961D01*
X121229524Y-117659961D02*
X121181905Y-117564723D01*
X121181905Y-117564723D02*
X121134286Y-117374247D01*
X121134286Y-117374247D02*
X121134286Y-117231390D01*
X121134286Y-117231390D02*
X121181905Y-117040914D01*
X121181905Y-117040914D02*
X121229524Y-116945676D01*
X121229524Y-116945676D02*
X121324762Y-116850438D01*
X121324762Y-116850438D02*
X121467619Y-116802819D01*
X121467619Y-116802819D02*
X121562857Y-116802819D01*
X121562857Y-116802819D02*
X121705714Y-116850438D01*
X121705714Y-116850438D02*
X121753333Y-116898057D01*
X122610476Y-116802819D02*
X122420000Y-116802819D01*
X122420000Y-116802819D02*
X122324762Y-116850438D01*
X122324762Y-116850438D02*
X122277143Y-116898057D01*
X122277143Y-116898057D02*
X122181905Y-117040914D01*
X122181905Y-117040914D02*
X122134286Y-117231390D01*
X122134286Y-117231390D02*
X122134286Y-117612342D01*
X122134286Y-117612342D02*
X122181905Y-117707580D01*
X122181905Y-117707580D02*
X122229524Y-117755200D01*
X122229524Y-117755200D02*
X122324762Y-117802819D01*
X122324762Y-117802819D02*
X122515238Y-117802819D01*
X122515238Y-117802819D02*
X122610476Y-117755200D01*
X122610476Y-117755200D02*
X122658095Y-117707580D01*
X122658095Y-117707580D02*
X122705714Y-117612342D01*
X122705714Y-117612342D02*
X122705714Y-117374247D01*
X122705714Y-117374247D02*
X122658095Y-117279009D01*
X122658095Y-117279009D02*
X122610476Y-117231390D01*
X122610476Y-117231390D02*
X122515238Y-117183771D01*
X122515238Y-117183771D02*
X122324762Y-117183771D01*
X122324762Y-117183771D02*
X122229524Y-117231390D01*
X122229524Y-117231390D02*
X122181905Y-117279009D01*
X122181905Y-117279009D02*
X122134286Y-117374247D01*
X119959333Y-96728819D02*
X119626000Y-96252628D01*
X119387905Y-96728819D02*
X119387905Y-95728819D01*
X119387905Y-95728819D02*
X119768857Y-95728819D01*
X119768857Y-95728819D02*
X119864095Y-95776438D01*
X119864095Y-95776438D02*
X119911714Y-95824057D01*
X119911714Y-95824057D02*
X119959333Y-95919295D01*
X119959333Y-95919295D02*
X119959333Y-96062152D01*
X119959333Y-96062152D02*
X119911714Y-96157390D01*
X119911714Y-96157390D02*
X119864095Y-96205009D01*
X119864095Y-96205009D02*
X119768857Y-96252628D01*
X119768857Y-96252628D02*
X119387905Y-96252628D01*
X120340286Y-95824057D02*
X120387905Y-95776438D01*
X120387905Y-95776438D02*
X120483143Y-95728819D01*
X120483143Y-95728819D02*
X120721238Y-95728819D01*
X120721238Y-95728819D02*
X120816476Y-95776438D01*
X120816476Y-95776438D02*
X120864095Y-95824057D01*
X120864095Y-95824057D02*
X120911714Y-95919295D01*
X120911714Y-95919295D02*
X120911714Y-96014533D01*
X120911714Y-96014533D02*
X120864095Y-96157390D01*
X120864095Y-96157390D02*
X120292667Y-96728819D01*
X120292667Y-96728819D02*
X120911714Y-96728819D01*
X111988095Y-95704819D02*
X111988095Y-96514342D01*
X111988095Y-96514342D02*
X112035714Y-96609580D01*
X112035714Y-96609580D02*
X112083333Y-96657200D01*
X112083333Y-96657200D02*
X112178571Y-96704819D01*
X112178571Y-96704819D02*
X112369047Y-96704819D01*
X112369047Y-96704819D02*
X112464285Y-96657200D01*
X112464285Y-96657200D02*
X112511904Y-96609580D01*
X112511904Y-96609580D02*
X112559523Y-96514342D01*
X112559523Y-96514342D02*
X112559523Y-95704819D01*
X113464285Y-96038152D02*
X113464285Y-96704819D01*
X113226190Y-95657200D02*
X112988095Y-96371485D01*
X112988095Y-96371485D02*
X113607142Y-96371485D01*
X119993580Y-119546666D02*
X120041200Y-119594285D01*
X120041200Y-119594285D02*
X120088819Y-119737142D01*
X120088819Y-119737142D02*
X120088819Y-119832380D01*
X120088819Y-119832380D02*
X120041200Y-119975237D01*
X120041200Y-119975237D02*
X119945961Y-120070475D01*
X119945961Y-120070475D02*
X119850723Y-120118094D01*
X119850723Y-120118094D02*
X119660247Y-120165713D01*
X119660247Y-120165713D02*
X119517390Y-120165713D01*
X119517390Y-120165713D02*
X119326914Y-120118094D01*
X119326914Y-120118094D02*
X119231676Y-120070475D01*
X119231676Y-120070475D02*
X119136438Y-119975237D01*
X119136438Y-119975237D02*
X119088819Y-119832380D01*
X119088819Y-119832380D02*
X119088819Y-119737142D01*
X119088819Y-119737142D02*
X119136438Y-119594285D01*
X119136438Y-119594285D02*
X119184057Y-119546666D01*
X119088819Y-119213332D02*
X119088819Y-118594285D01*
X119088819Y-118594285D02*
X119469771Y-118927618D01*
X119469771Y-118927618D02*
X119469771Y-118784761D01*
X119469771Y-118784761D02*
X119517390Y-118689523D01*
X119517390Y-118689523D02*
X119565009Y-118641904D01*
X119565009Y-118641904D02*
X119660247Y-118594285D01*
X119660247Y-118594285D02*
X119898342Y-118594285D01*
X119898342Y-118594285D02*
X119993580Y-118641904D01*
X119993580Y-118641904D02*
X120041200Y-118689523D01*
X120041200Y-118689523D02*
X120088819Y-118784761D01*
X120088819Y-118784761D02*
X120088819Y-119070475D01*
X120088819Y-119070475D02*
X120041200Y-119165713D01*
X120041200Y-119165713D02*
X119993580Y-119213332D01*
X91666666Y-89454819D02*
X91666666Y-90169104D01*
X91666666Y-90169104D02*
X91619047Y-90311961D01*
X91619047Y-90311961D02*
X91523809Y-90407200D01*
X91523809Y-90407200D02*
X91380952Y-90454819D01*
X91380952Y-90454819D02*
X91285714Y-90454819D01*
X92571428Y-89788152D02*
X92571428Y-90454819D01*
X92333333Y-89407200D02*
X92095238Y-90121485D01*
X92095238Y-90121485D02*
X92714285Y-90121485D01*
X110204819Y-79892857D02*
X109728628Y-80226190D01*
X110204819Y-80464285D02*
X109204819Y-80464285D01*
X109204819Y-80464285D02*
X109204819Y-80083333D01*
X109204819Y-80083333D02*
X109252438Y-79988095D01*
X109252438Y-79988095D02*
X109300057Y-79940476D01*
X109300057Y-79940476D02*
X109395295Y-79892857D01*
X109395295Y-79892857D02*
X109538152Y-79892857D01*
X109538152Y-79892857D02*
X109633390Y-79940476D01*
X109633390Y-79940476D02*
X109681009Y-79988095D01*
X109681009Y-79988095D02*
X109728628Y-80083333D01*
X109728628Y-80083333D02*
X109728628Y-80464285D01*
X110204819Y-78940476D02*
X110204819Y-79511904D01*
X110204819Y-79226190D02*
X109204819Y-79226190D01*
X109204819Y-79226190D02*
X109347676Y-79321428D01*
X109347676Y-79321428D02*
X109442914Y-79416666D01*
X109442914Y-79416666D02*
X109490533Y-79511904D01*
X109204819Y-78321428D02*
X109204819Y-78226190D01*
X109204819Y-78226190D02*
X109252438Y-78130952D01*
X109252438Y-78130952D02*
X109300057Y-78083333D01*
X109300057Y-78083333D02*
X109395295Y-78035714D01*
X109395295Y-78035714D02*
X109585771Y-77988095D01*
X109585771Y-77988095D02*
X109823866Y-77988095D01*
X109823866Y-77988095D02*
X110014342Y-78035714D01*
X110014342Y-78035714D02*
X110109580Y-78083333D01*
X110109580Y-78083333D02*
X110157200Y-78130952D01*
X110157200Y-78130952D02*
X110204819Y-78226190D01*
X110204819Y-78226190D02*
X110204819Y-78321428D01*
X110204819Y-78321428D02*
X110157200Y-78416666D01*
X110157200Y-78416666D02*
X110109580Y-78464285D01*
X110109580Y-78464285D02*
X110014342Y-78511904D01*
X110014342Y-78511904D02*
X109823866Y-78559523D01*
X109823866Y-78559523D02*
X109585771Y-78559523D01*
X109585771Y-78559523D02*
X109395295Y-78511904D01*
X109395295Y-78511904D02*
X109300057Y-78464285D01*
X109300057Y-78464285D02*
X109252438Y-78416666D01*
X109252438Y-78416666D02*
X109204819Y-78321428D01*
X111704819Y-80488094D02*
X110704819Y-80488094D01*
X110704819Y-80488094D02*
X110704819Y-80249999D01*
X110704819Y-80249999D02*
X110752438Y-80107142D01*
X110752438Y-80107142D02*
X110847676Y-80011904D01*
X110847676Y-80011904D02*
X110942914Y-79964285D01*
X110942914Y-79964285D02*
X111133390Y-79916666D01*
X111133390Y-79916666D02*
X111276247Y-79916666D01*
X111276247Y-79916666D02*
X111466723Y-79964285D01*
X111466723Y-79964285D02*
X111561961Y-80011904D01*
X111561961Y-80011904D02*
X111657200Y-80107142D01*
X111657200Y-80107142D02*
X111704819Y-80249999D01*
X111704819Y-80249999D02*
X111704819Y-80488094D01*
X110704819Y-79583332D02*
X110704819Y-78916666D01*
X110704819Y-78916666D02*
X111704819Y-79345237D01*
X101325750Y-82153246D02*
X101898170Y-82725666D01*
X101898170Y-82725666D02*
X101999185Y-82759338D01*
X101999185Y-82759338D02*
X102066529Y-82759338D01*
X102066529Y-82759338D02*
X102167544Y-82725666D01*
X102167544Y-82725666D02*
X102302231Y-82590979D01*
X102302231Y-82590979D02*
X102335903Y-82489964D01*
X102335903Y-82489964D02*
X102335903Y-82422620D01*
X102335903Y-82422620D02*
X102302231Y-82321605D01*
X102302231Y-82321605D02*
X101729811Y-81749185D01*
X102403246Y-81075750D02*
X102066529Y-81412468D01*
X102066529Y-81412468D02*
X102369575Y-81782857D01*
X102369575Y-81782857D02*
X102369575Y-81715514D01*
X102369575Y-81715514D02*
X102403246Y-81614498D01*
X102403246Y-81614498D02*
X102571605Y-81446140D01*
X102571605Y-81446140D02*
X102672620Y-81412468D01*
X102672620Y-81412468D02*
X102739964Y-81412468D01*
X102739964Y-81412468D02*
X102840979Y-81446140D01*
X102840979Y-81446140D02*
X103009338Y-81614498D01*
X103009338Y-81614498D02*
X103043010Y-81715514D01*
X103043010Y-81715514D02*
X103043010Y-81782857D01*
X103043010Y-81782857D02*
X103009338Y-81883872D01*
X103009338Y-81883872D02*
X102840979Y-82052231D01*
X102840979Y-82052231D02*
X102739964Y-82085903D01*
X102739964Y-82085903D02*
X102672620Y-82085903D01*
X115516819Y-113501466D02*
X115040628Y-113834799D01*
X115516819Y-114072894D02*
X114516819Y-114072894D01*
X114516819Y-114072894D02*
X114516819Y-113691942D01*
X114516819Y-113691942D02*
X114564438Y-113596704D01*
X114564438Y-113596704D02*
X114612057Y-113549085D01*
X114612057Y-113549085D02*
X114707295Y-113501466D01*
X114707295Y-113501466D02*
X114850152Y-113501466D01*
X114850152Y-113501466D02*
X114945390Y-113549085D01*
X114945390Y-113549085D02*
X114993009Y-113596704D01*
X114993009Y-113596704D02*
X115040628Y-113691942D01*
X115040628Y-113691942D02*
X115040628Y-114072894D01*
X114516819Y-112644323D02*
X114516819Y-112834799D01*
X114516819Y-112834799D02*
X114564438Y-112930037D01*
X114564438Y-112930037D02*
X114612057Y-112977656D01*
X114612057Y-112977656D02*
X114754914Y-113072894D01*
X114754914Y-113072894D02*
X114945390Y-113120513D01*
X114945390Y-113120513D02*
X115326342Y-113120513D01*
X115326342Y-113120513D02*
X115421580Y-113072894D01*
X115421580Y-113072894D02*
X115469200Y-113025275D01*
X115469200Y-113025275D02*
X115516819Y-112930037D01*
X115516819Y-112930037D02*
X115516819Y-112739561D01*
X115516819Y-112739561D02*
X115469200Y-112644323D01*
X115469200Y-112644323D02*
X115421580Y-112596704D01*
X115421580Y-112596704D02*
X115326342Y-112549085D01*
X115326342Y-112549085D02*
X115088247Y-112549085D01*
X115088247Y-112549085D02*
X114993009Y-112596704D01*
X114993009Y-112596704D02*
X114945390Y-112644323D01*
X114945390Y-112644323D02*
X114897771Y-112739561D01*
X114897771Y-112739561D02*
X114897771Y-112930037D01*
X114897771Y-112930037D02*
X114945390Y-113025275D01*
X114945390Y-113025275D02*
X114993009Y-113072894D01*
X114993009Y-113072894D02*
X115088247Y-113120513D01*
X108041169Y-82799693D02*
X107973825Y-82799693D01*
X107973825Y-82799693D02*
X107839138Y-82732349D01*
X107839138Y-82732349D02*
X107771795Y-82665006D01*
X107771795Y-82665006D02*
X107704451Y-82530319D01*
X107704451Y-82530319D02*
X107704451Y-82395632D01*
X107704451Y-82395632D02*
X107738123Y-82294617D01*
X107738123Y-82294617D02*
X107839138Y-82126258D01*
X107839138Y-82126258D02*
X107940153Y-82025243D01*
X107940153Y-82025243D02*
X108108512Y-81924227D01*
X108108512Y-81924227D02*
X108209527Y-81890556D01*
X108209527Y-81890556D02*
X108344214Y-81890556D01*
X108344214Y-81890556D02*
X108478901Y-81957899D01*
X108478901Y-81957899D02*
X108546245Y-82025243D01*
X108546245Y-82025243D02*
X108613588Y-82159930D01*
X108613588Y-82159930D02*
X108613588Y-82227273D01*
X108647260Y-83540471D02*
X108243199Y-83136410D01*
X108445230Y-83338441D02*
X109152336Y-82631334D01*
X109152336Y-82631334D02*
X108983978Y-82665006D01*
X108983978Y-82665006D02*
X108849291Y-82665006D01*
X108849291Y-82665006D02*
X108748275Y-82631334D01*
X109960459Y-83439456D02*
X109825772Y-83304769D01*
X109825772Y-83304769D02*
X109724756Y-83271098D01*
X109724756Y-83271098D02*
X109657413Y-83271098D01*
X109657413Y-83271098D02*
X109489054Y-83304769D01*
X109489054Y-83304769D02*
X109320695Y-83405785D01*
X109320695Y-83405785D02*
X109051321Y-83675159D01*
X109051321Y-83675159D02*
X109017650Y-83776174D01*
X109017650Y-83776174D02*
X109017650Y-83843517D01*
X109017650Y-83843517D02*
X109051321Y-83944533D01*
X109051321Y-83944533D02*
X109186008Y-84079220D01*
X109186008Y-84079220D02*
X109287024Y-84112891D01*
X109287024Y-84112891D02*
X109354367Y-84112891D01*
X109354367Y-84112891D02*
X109455382Y-84079220D01*
X109455382Y-84079220D02*
X109623741Y-83910861D01*
X109623741Y-83910861D02*
X109657413Y-83809846D01*
X109657413Y-83809846D02*
X109657413Y-83742502D01*
X109657413Y-83742502D02*
X109623741Y-83641487D01*
X109623741Y-83641487D02*
X109489054Y-83506800D01*
X109489054Y-83506800D02*
X109388039Y-83473128D01*
X109388039Y-83473128D02*
X109320695Y-83473128D01*
X109320695Y-83473128D02*
X109219680Y-83506800D01*
X117109580Y-99892857D02*
X117157200Y-99940476D01*
X117157200Y-99940476D02*
X117204819Y-100083333D01*
X117204819Y-100083333D02*
X117204819Y-100178571D01*
X117204819Y-100178571D02*
X117157200Y-100321428D01*
X117157200Y-100321428D02*
X117061961Y-100416666D01*
X117061961Y-100416666D02*
X116966723Y-100464285D01*
X116966723Y-100464285D02*
X116776247Y-100511904D01*
X116776247Y-100511904D02*
X116633390Y-100511904D01*
X116633390Y-100511904D02*
X116442914Y-100464285D01*
X116442914Y-100464285D02*
X116347676Y-100416666D01*
X116347676Y-100416666D02*
X116252438Y-100321428D01*
X116252438Y-100321428D02*
X116204819Y-100178571D01*
X116204819Y-100178571D02*
X116204819Y-100083333D01*
X116204819Y-100083333D02*
X116252438Y-99940476D01*
X116252438Y-99940476D02*
X116300057Y-99892857D01*
X117204819Y-98940476D02*
X117204819Y-99511904D01*
X117204819Y-99226190D02*
X116204819Y-99226190D01*
X116204819Y-99226190D02*
X116347676Y-99321428D01*
X116347676Y-99321428D02*
X116442914Y-99416666D01*
X116442914Y-99416666D02*
X116490533Y-99511904D01*
X116300057Y-98559523D02*
X116252438Y-98511904D01*
X116252438Y-98511904D02*
X116204819Y-98416666D01*
X116204819Y-98416666D02*
X116204819Y-98178571D01*
X116204819Y-98178571D02*
X116252438Y-98083333D01*
X116252438Y-98083333D02*
X116300057Y-98035714D01*
X116300057Y-98035714D02*
X116395295Y-97988095D01*
X116395295Y-97988095D02*
X116490533Y-97988095D01*
X116490533Y-97988095D02*
X116633390Y-98035714D01*
X116633390Y-98035714D02*
X117204819Y-98607142D01*
X117204819Y-98607142D02*
X117204819Y-97988095D01*
D12*
%TO.C,C18*%
X108214051Y-98007198D02*
X108007198Y-98214051D01*
X107492802Y-97285949D02*
X107285949Y-97492802D01*
%TO.C,D5*%
X120485000Y-85485000D02*
X120485000Y-84015000D01*
X120485000Y-84015000D02*
X118200000Y-84015000D01*
X118200000Y-85485000D02*
X120485000Y-85485000D01*
%TO.C,D4*%
X130583000Y-102324000D02*
X130583000Y-104784000D01*
X130583000Y-104784000D02*
X132053000Y-104784000D01*
X132053000Y-104784000D02*
X132053000Y-102324000D01*
%TO.C,C21*%
X91990000Y-109146267D02*
X91990000Y-108853733D01*
X93010000Y-109146267D02*
X93010000Y-108853733D01*
%TO.C,R13*%
X95354724Y-109427500D02*
X94845276Y-109427500D01*
X95354724Y-110472500D02*
X94845276Y-110472500D01*
%TO.C,C15*%
X94110000Y-100646267D02*
X94110000Y-100353733D01*
X93090000Y-100646267D02*
X93090000Y-100353733D01*
%TO.C,J2*%
X122190000Y-121290000D02*
X122190000Y-129110000D01*
X122190000Y-122890000D02*
X123110000Y-122890000D01*
X122190000Y-129110000D02*
X132310000Y-129110000D01*
X122950000Y-125250000D02*
X122950000Y-126850000D01*
X122950000Y-126850000D02*
X123950000Y-126850000D01*
X123110000Y-121290000D02*
X122190000Y-121290000D01*
X123110000Y-122890000D02*
X123110000Y-121290000D01*
X123390000Y-122890000D02*
X123110000Y-122890000D01*
X123390000Y-122890000D02*
X123390000Y-121675000D01*
X123450000Y-126850000D02*
X123450000Y-129110000D01*
X123950000Y-125250000D02*
X122950000Y-125250000D01*
X123950000Y-126850000D02*
X123950000Y-125250000D01*
X123950000Y-126850000D02*
X123950000Y-129110000D01*
X124750000Y-124750000D02*
X129750000Y-124750000D01*
X124750000Y-129110000D02*
X124750000Y-124750000D01*
X129750000Y-124750000D02*
X129750000Y-129110000D01*
X130550000Y-125250000D02*
X131550000Y-125250000D01*
X130550000Y-126850000D02*
X130550000Y-125250000D01*
X131390000Y-121290000D02*
X131390000Y-122890000D01*
X131390000Y-122890000D02*
X131110000Y-122890000D01*
X131550000Y-125250000D02*
X131550000Y-126850000D01*
X131550000Y-126850000D02*
X130550000Y-126850000D01*
X132310000Y-121290000D02*
X131390000Y-121290000D01*
X132310000Y-122890000D02*
X131390000Y-122890000D01*
X132310000Y-129110000D02*
X132310000Y-121290000D01*
%TO.C,C22*%
X102585000Y-104603733D02*
X102585000Y-104896267D01*
X103605000Y-104603733D02*
X103605000Y-104896267D01*
%TO.C,R7*%
X130795500Y-99313276D02*
X130795500Y-99822724D01*
X131840500Y-99313276D02*
X131840500Y-99822724D01*
%TO.C,D3*%
X114000000Y-101220000D02*
X108490000Y-101220000D01*
X114000000Y-104520000D02*
X108490000Y-104520000D01*
X114000000Y-104520000D02*
X114000000Y-101220000D01*
%TO.C,R5*%
X117511300Y-116509076D02*
X117511300Y-117018524D01*
X118556300Y-116509076D02*
X118556300Y-117018524D01*
%TO.C,C13*%
X109740000Y-98353733D02*
X109740000Y-98646267D01*
X110760000Y-98353733D02*
X110760000Y-98646267D01*
%TO.C,C14*%
X99910000Y-100353733D02*
X99910000Y-100646267D01*
X98890000Y-100353733D02*
X98890000Y-100646267D01*
%TO.C,C17*%
X98785949Y-84242802D02*
X98992802Y-84035949D01*
X99507198Y-84964051D02*
X99714051Y-84757198D01*
%TO.C,C9*%
X115999800Y-116617533D02*
X115999800Y-116910067D01*
X117019800Y-116617533D02*
X117019800Y-116910067D01*
%TO.C,D2*%
X110618000Y-110282000D02*
X110618000Y-115792000D01*
X113918000Y-110282000D02*
X110618000Y-110282000D01*
X113918000Y-110282000D02*
X113918000Y-115792000D01*
%TO.C,R3*%
X124952724Y-94227500D02*
X124443276Y-94227500D01*
X124952724Y-95272500D02*
X124443276Y-95272500D01*
%TO.C,R9*%
X105977500Y-76504724D02*
X105977500Y-75995276D01*
X107022500Y-76504724D02*
X107022500Y-75995276D01*
%TO.C,U6*%
X84865000Y-106750000D02*
X84865000Y-104550000D01*
X84865000Y-106750000D02*
X84865000Y-108950000D01*
X91635000Y-106750000D02*
X91635000Y-104550000D01*
X91635000Y-106750000D02*
X91635000Y-108950000D01*
X91175000Y-102890000D02*
X90935000Y-102560000D01*
X91415000Y-102560000D01*
X91175000Y-102890000D01*
G36*
X91175000Y-102890000D02*
G01*
X90935000Y-102560000D01*
X91415000Y-102560000D01*
X91175000Y-102890000D01*
G37*
%TO.C,BZ1*%
X97100000Y-78750000D02*
G75*
G02*
X84900000Y-78750000I-6100000J0D01*
G01*
X84900000Y-78750000D02*
G75*
G02*
X97100000Y-78750000I6100000J0D01*
G01*
%TO.C,F1*%
X109887936Y-106336000D02*
X111092064Y-106336000D01*
X109887936Y-109056000D02*
X111092064Y-109056000D01*
%TO.C,C19*%
X91140000Y-100353733D02*
X91140000Y-100646267D01*
X92160000Y-100353733D02*
X92160000Y-100646267D01*
%TO.C,JP1*%
X96425000Y-108705000D02*
X95095000Y-108705000D01*
X96425000Y-107375000D02*
X96425000Y-108705000D01*
X96425000Y-106105000D02*
X96425000Y-103505000D01*
X96425000Y-106105000D02*
X93765000Y-106105000D01*
X96425000Y-103505000D02*
X93765000Y-103505000D01*
X93765000Y-106105000D02*
X93765000Y-103505000D01*
%TO.C,R1*%
X117078724Y-94227500D02*
X116569276Y-94227500D01*
X117078724Y-95272500D02*
X116569276Y-95272500D01*
%TO.C,C2*%
X121328548Y-104725800D02*
X121851052Y-104725800D01*
X121328548Y-106195800D02*
X121851052Y-106195800D01*
%TO.C,Y2*%
X90750000Y-98850000D02*
X86750000Y-98850000D01*
X90750000Y-102150000D02*
X90750000Y-98850000D01*
%TO.C,R8*%
X96922500Y-95845276D02*
X96922500Y-96354724D01*
X95877500Y-95845276D02*
X95877500Y-96354724D01*
%TO.C,U3*%
X124325400Y-89773500D02*
X124325400Y-87823500D01*
X124325400Y-89773500D02*
X124325400Y-91723500D01*
X129445400Y-89773500D02*
X129445400Y-87823500D01*
X129445400Y-89773500D02*
X129445400Y-91723500D01*
X124420400Y-92473500D02*
X124090400Y-92713500D01*
X124090400Y-92233500D01*
X124420400Y-92473500D01*
G36*
X124420400Y-92473500D02*
G01*
X124090400Y-92713500D01*
X124090400Y-92233500D01*
X124420400Y-92473500D01*
G37*
%TO.C,J1*%
X103690000Y-121290000D02*
X103690000Y-129110000D01*
X103690000Y-122890000D02*
X104610000Y-122890000D01*
X103690000Y-129110000D02*
X113810000Y-129110000D01*
X104450000Y-125250000D02*
X104450000Y-126850000D01*
X104450000Y-126850000D02*
X105450000Y-126850000D01*
X104610000Y-121290000D02*
X103690000Y-121290000D01*
X104610000Y-122890000D02*
X104610000Y-121290000D01*
X104890000Y-122890000D02*
X104610000Y-122890000D01*
X104890000Y-122890000D02*
X104890000Y-121675000D01*
X104950000Y-126850000D02*
X104950000Y-129110000D01*
X105450000Y-125250000D02*
X104450000Y-125250000D01*
X105450000Y-126850000D02*
X105450000Y-125250000D01*
X105450000Y-126850000D02*
X105450000Y-129110000D01*
X106250000Y-124750000D02*
X111250000Y-124750000D01*
X106250000Y-129110000D02*
X106250000Y-124750000D01*
X111250000Y-124750000D02*
X111250000Y-129110000D01*
X112050000Y-125250000D02*
X113050000Y-125250000D01*
X112050000Y-126850000D02*
X112050000Y-125250000D01*
X112890000Y-121290000D02*
X112890000Y-122890000D01*
X112890000Y-122890000D02*
X112610000Y-122890000D01*
X113050000Y-125250000D02*
X113050000Y-126850000D01*
X113050000Y-126850000D02*
X112050000Y-126850000D01*
X113810000Y-121290000D02*
X112890000Y-121290000D01*
X113810000Y-122890000D02*
X112890000Y-122890000D01*
X113810000Y-129110000D02*
X113810000Y-121290000D01*
%TO.C,J3*%
X84620000Y-88330000D02*
X84620000Y-87000000D01*
X85950000Y-88330000D02*
X84620000Y-88330000D01*
X87220000Y-85670000D02*
X94900000Y-85670000D01*
X87220000Y-88330000D02*
X87220000Y-85670000D01*
X87220000Y-88330000D02*
X94900000Y-88330000D01*
X94900000Y-88330000D02*
X94900000Y-85670000D01*
D13*
%TO.C,L1*%
X123214800Y-106704800D02*
X124304800Y-106704800D01*
X123214800Y-114884800D02*
X123214800Y-106704800D01*
X124304800Y-114884800D02*
X123214800Y-114884800D01*
X130304800Y-114884800D02*
X131394800Y-114884800D01*
X131394800Y-106704800D02*
X130304800Y-106704800D01*
X131394800Y-114884800D02*
X131394800Y-106704800D01*
D12*
%TO.C,D1*%
X107062000Y-110282000D02*
X107062000Y-115792000D01*
X110362000Y-110282000D02*
X107062000Y-110282000D01*
X110362000Y-110282000D02*
X110362000Y-115792000D01*
%TO.C,D8*%
X113765000Y-77910000D02*
X115235000Y-77910000D01*
X115235000Y-77910000D02*
X115235000Y-75450000D01*
X113765000Y-75450000D02*
X113765000Y-77910000D01*
%TO.C,U7*%
X97035000Y-106750000D02*
X97035000Y-104800000D01*
X97035000Y-106750000D02*
X97035000Y-108700000D01*
X102155000Y-106750000D02*
X102155000Y-104800000D01*
X102155000Y-106750000D02*
X102155000Y-108700000D01*
X102390000Y-104290000D02*
X102060000Y-104050000D01*
X102390000Y-103810000D01*
X102390000Y-104290000D01*
G36*
X102390000Y-104290000D02*
G01*
X102060000Y-104050000D01*
X102390000Y-103810000D01*
X102390000Y-104290000D01*
G37*
%TO.C,R11*%
X112477500Y-76504724D02*
X112477500Y-75995276D01*
X113522500Y-76504724D02*
X113522500Y-75995276D01*
%TO.C,D6*%
X107265000Y-77910000D02*
X108735000Y-77910000D01*
X108735000Y-77910000D02*
X108735000Y-75450000D01*
X107265000Y-75450000D02*
X107265000Y-77910000D01*
%TO.C,R4*%
X127745276Y-94227500D02*
X128254724Y-94227500D01*
X127745276Y-95272500D02*
X128254724Y-95272500D01*
%TO.C,Y1*%
X98500000Y-102150000D02*
X98500000Y-98850000D01*
X98500000Y-98850000D02*
X94500000Y-98850000D01*
%TO.C,C20*%
X85340000Y-100646267D02*
X85340000Y-100353733D01*
X86360000Y-100646267D02*
X86360000Y-100353733D01*
%TO.C,C6*%
X121824533Y-115364800D02*
X122117067Y-115364800D01*
X121824533Y-116384800D02*
X122117067Y-116384800D01*
%TO.C,R2*%
X119871276Y-94227500D02*
X120380724Y-94227500D01*
X119871276Y-95272500D02*
X120380724Y-95272500D01*
%TO.C,U4*%
X111190000Y-98750000D02*
X111190000Y-98100000D01*
X111190000Y-98750000D02*
X111190000Y-99400000D01*
X114310000Y-98750000D02*
X114310000Y-98100000D01*
X114310000Y-98750000D02*
X114310000Y-99400000D01*
X114590000Y-97827500D02*
X114260000Y-97587500D01*
X114590000Y-97347500D01*
X114590000Y-97827500D01*
G36*
X114590000Y-97827500D02*
G01*
X114260000Y-97587500D01*
X114590000Y-97347500D01*
X114590000Y-97827500D01*
G37*
%TO.C,C3*%
X119047800Y-116617533D02*
X119047800Y-116910067D01*
X120067800Y-116617533D02*
X120067800Y-116910067D01*
%TO.C,SW1*%
X100050000Y-78000000D02*
X104450000Y-78000000D01*
X100050000Y-76200000D02*
X100050000Y-76300000D01*
X104450000Y-76200000D02*
X104450000Y-76300000D01*
X104450000Y-74500000D02*
X100050000Y-74500000D01*
%TO.C,R12*%
X93022500Y-105395276D02*
X93022500Y-105904724D01*
X91977500Y-105395276D02*
X91977500Y-105904724D01*
%TO.C,J6*%
X84467500Y-114650000D02*
X84467500Y-115650000D01*
X84467500Y-115650000D02*
X84967500Y-115150000D01*
X84967500Y-115150000D02*
X84467500Y-114650000D01*
X85152500Y-111270000D02*
X85152500Y-129230000D01*
X85152500Y-129230000D02*
X100672500Y-129230000D01*
X100672500Y-111270000D02*
X85152500Y-111270000D01*
X100672500Y-111270000D02*
X100672500Y-129230000D01*
%TO.C,J4*%
X85395000Y-89895000D02*
X86725000Y-89895000D01*
X85395000Y-91225000D02*
X85395000Y-89895000D01*
X85395000Y-92495000D02*
X85395000Y-97635000D01*
X85395000Y-92495000D02*
X87995000Y-92495000D01*
X85395000Y-97635000D02*
X90595000Y-97635000D01*
X87995000Y-89895000D02*
X90595000Y-89895000D01*
X87995000Y-92495000D02*
X87995000Y-89895000D01*
X90595000Y-89895000D02*
X90595000Y-97635000D01*
%TO.C,J5*%
X118940000Y-72090000D02*
X118940000Y-79910000D01*
X118940000Y-78310000D02*
X119860000Y-78310000D01*
X118940000Y-79910000D02*
X119860000Y-79910000D01*
X119700000Y-74350000D02*
X120700000Y-74350000D01*
X119700000Y-75950000D02*
X119700000Y-74350000D01*
X119860000Y-78310000D02*
X120140000Y-78310000D01*
X119860000Y-79910000D02*
X119860000Y-78310000D01*
X120700000Y-74350000D02*
X120700000Y-75950000D01*
X120700000Y-75950000D02*
X119700000Y-75950000D01*
X121500000Y-76450000D02*
X121500000Y-72090000D01*
X126500000Y-72090000D02*
X126500000Y-76450000D01*
X126500000Y-76450000D02*
X121500000Y-76450000D01*
X127300000Y-74350000D02*
X127300000Y-72090000D01*
X127300000Y-74350000D02*
X127300000Y-75950000D01*
X127300000Y-75950000D02*
X128300000Y-75950000D01*
X127800000Y-74350000D02*
X127800000Y-72090000D01*
X127860000Y-78310000D02*
X127860000Y-79525000D01*
X127860000Y-78310000D02*
X128140000Y-78310000D01*
X128140000Y-78310000D02*
X128140000Y-79910000D01*
X128140000Y-79910000D02*
X129060000Y-79910000D01*
X128300000Y-74350000D02*
X127300000Y-74350000D01*
X128300000Y-75950000D02*
X128300000Y-74350000D01*
X129060000Y-72090000D02*
X118940000Y-72090000D01*
X129060000Y-78310000D02*
X128140000Y-78310000D01*
X129060000Y-79910000D02*
X129060000Y-72090000D01*
%TO.C,R10*%
X109227500Y-76504724D02*
X109227500Y-75995276D01*
X110272500Y-76504724D02*
X110272500Y-75995276D01*
%TO.C,C7*%
X115240000Y-87674733D02*
X115240000Y-87967267D01*
X116260000Y-87674733D02*
X116260000Y-87967267D01*
%TO.C,C1*%
X121259548Y-101433800D02*
X122682052Y-101433800D01*
X121259548Y-104153800D02*
X122682052Y-104153800D01*
%TO.C,D7*%
X110515000Y-77910000D02*
X111985000Y-77910000D01*
X111985000Y-77910000D02*
X111985000Y-75450000D01*
X110515000Y-75450000D02*
X110515000Y-77910000D01*
%TO.C,C5*%
X122816400Y-91443767D02*
X122816400Y-91151233D01*
X123836400Y-91443767D02*
X123836400Y-91151233D01*
D11*
%TO.C,U1*%
X117617800Y-108719800D02*
X117617800Y-112869800D01*
X122767800Y-108719800D02*
X122767800Y-112869800D01*
D12*
X122997800Y-108359800D02*
X122667800Y-108119800D01*
X122997800Y-107879800D01*
X122997800Y-108359800D01*
G36*
X122997800Y-108359800D02*
G01*
X122667800Y-108119800D01*
X122997800Y-107879800D01*
X122997800Y-108359800D01*
G37*
D11*
%TO.C,U5*%
X96431445Y-91000000D02*
X96866315Y-91434871D01*
X96431445Y-91000000D02*
X96908742Y-90522703D01*
X103750000Y-83681445D02*
X103272703Y-84158742D01*
X103750000Y-83681445D02*
X104227297Y-84158742D01*
X103750000Y-98318555D02*
X103272703Y-97841258D01*
X103750000Y-98318555D02*
X104227297Y-97841258D01*
X111068555Y-91000000D02*
X110591258Y-90522703D01*
X111068555Y-91000000D02*
X110591258Y-91477297D01*
D12*
X96396089Y-91933381D02*
X95823333Y-91841457D01*
X96304166Y-91360624D01*
X96396089Y-91933381D01*
G36*
X96396089Y-91933381D02*
G01*
X95823333Y-91841457D01*
X96304166Y-91360624D01*
X96396089Y-91933381D01*
G37*
%TO.C,C10*%
X127762052Y-101433800D02*
X126339548Y-101433800D01*
X127762052Y-104153800D02*
X126339548Y-104153800D01*
%TO.C,Reset1*%
X93800000Y-93550000D02*
X93700000Y-93550000D01*
X92000000Y-93550000D02*
X92000000Y-97950000D01*
X95500000Y-97950000D02*
X95500000Y-93550000D01*
X93800000Y-97950000D02*
X93700000Y-97950000D01*
%TO.C,R6*%
X115987300Y-113080076D02*
X115987300Y-113589524D01*
X117032300Y-113080076D02*
X117032300Y-113589524D01*
%TO.C,C16*%
X107492802Y-84464051D02*
X107285949Y-84257198D01*
X108214051Y-83742802D02*
X108007198Y-83535949D01*
%TO.C,C11*%
X127762052Y-98131800D02*
X126339548Y-98131800D01*
X127762052Y-100851800D02*
X126339548Y-100851800D01*
%TO.C,C4*%
X115240000Y-91396267D02*
X115240000Y-91103733D01*
X116260000Y-91396267D02*
X116260000Y-91103733D01*
%TO.C,C8*%
X122816400Y-87722233D02*
X122816400Y-88014767D01*
X123836400Y-87722233D02*
X123836400Y-88014767D01*
%TO.C,U2*%
X116728400Y-89773500D02*
X116728400Y-87823500D01*
X116728400Y-89773500D02*
X116728400Y-91723500D01*
X121848400Y-89773500D02*
X121848400Y-87823500D01*
X121848400Y-89773500D02*
X121848400Y-91723500D01*
X116823400Y-92473500D02*
X116493400Y-92713500D01*
X116493400Y-92233500D01*
X116823400Y-92473500D01*
G36*
X116823400Y-92473500D02*
G01*
X116493400Y-92713500D01*
X116493400Y-92233500D01*
X116823400Y-92473500D01*
G37*
%TO.C,C12*%
X114740000Y-98353733D02*
X114740000Y-98646267D01*
X115760000Y-98353733D02*
X115760000Y-98646267D01*
%TD*%
M02*
